G04*
G04 #@! TF.GenerationSoftware,Altium Limited,Altium Designer,24.4.1 (13)*
G04*
G04 Layer_Physical_Order=1*
G04 Layer_Color=255*
%FSLAX44Y44*%
%MOMM*%
G71*
G04*
G04 #@! TF.SameCoordinates,5AD5FF80-1175-482D-978A-231780835DF3*
G04*
G04*
G04 #@! TF.FilePolarity,Positive*
G04*
G01*
G75*
%ADD11C,0.5080*%
%ADD13C,0.2540*%
%ADD15C,0.1524*%
%ADD19O,3.8100X2.0320*%
%ADD20R,2.5400X0.8636*%
%ADD21R,1.2700X0.8640*%
%ADD22R,1.5240X3.8000*%
%ADD23O,1.8000X0.3000*%
%ADD24O,0.3000X1.8000*%
%ADD25R,0.4000X0.5000*%
%ADD26R,0.5000X0.4000*%
%ADD27R,0.5500X0.6000*%
%ADD28R,1.3000X1.1500*%
%ADD29R,1.2000X0.9000*%
%ADD30R,0.8000X0.9000*%
%ADD31R,0.3500X1.3000*%
%ADD32O,0.3500X1.3000*%
%ADD33R,1.3000X1.2000*%
%ADD34R,1.8000X1.2000*%
%ADD35R,0.3000X1.4500*%
%ADD57R,1.1000X1.2000*%
%ADD58C,0.3810*%
%ADD59C,0.2032*%
%ADD60C,0.6350*%
%ADD61C,0.3000*%
%ADD62C,0.3250*%
%ADD63C,0.5588*%
G36*
X147320Y306070D02*
Y251460D01*
X142240Y246380D01*
X121920D01*
X116840Y251460D01*
Y281940D01*
X104140Y294640D01*
Y307340D01*
X110490Y313690D01*
X139700D01*
X147320Y306070D01*
D02*
G37*
G36*
X133336Y374133D02*
X137505Y373016D01*
X141492Y371365D01*
X145229Y369207D01*
X148653Y366580D01*
X151704Y363529D01*
X154331Y360105D01*
X156489Y356368D01*
X158140Y352381D01*
X159257Y348212D01*
X159821Y343934D01*
Y341776D01*
Y223198D01*
X152124D01*
X149321Y226001D01*
X148649Y226450D01*
X147856Y226608D01*
X147856Y226608D01*
X124026D01*
X119551Y231083D01*
X119888Y231896D01*
Y233513D01*
X119592Y234227D01*
X120438Y235497D01*
X120681D01*
Y241447D01*
X121740Y242531D01*
X121920Y242495D01*
X122584D01*
X123657Y242021D01*
Y235497D01*
X123951D01*
X124475Y234227D01*
X123952Y232964D01*
Y231348D01*
X124571Y229854D01*
X125714Y228711D01*
X127208Y228092D01*
X128824D01*
X130318Y228711D01*
X131461Y229854D01*
X132080Y231348D01*
Y232964D01*
X131461Y234458D01*
X130318Y235601D01*
X130136Y235677D01*
X130388Y236947D01*
X135748D01*
Y234998D01*
X142772D01*
Y242522D01*
X142772Y242522D01*
X143727Y242791D01*
X143886Y242898D01*
X143886Y242898D01*
X143889Y242899D01*
X144987Y243633D01*
X150067Y248713D01*
X150909Y249973D01*
X151205Y251460D01*
Y306070D01*
X150909Y307557D01*
X150067Y308817D01*
X142447Y316437D01*
X141187Y317279D01*
X139700Y317575D01*
X110490D01*
X109003Y317279D01*
X107743Y316437D01*
X101393Y310087D01*
X100551Y308827D01*
X100255Y307340D01*
Y304800D01*
X89543D01*
Y294640D01*
X100255D01*
X100551Y293153D01*
X101393Y291893D01*
X102551Y290735D01*
X102065Y289562D01*
X89543D01*
Y287847D01*
X87843D01*
X87765Y287925D01*
X86271Y288544D01*
X84654D01*
X83160Y287925D01*
X83082Y287847D01*
X80532D01*
Y291242D01*
X68008D01*
Y277718D01*
X69381D01*
X70230Y276448D01*
X70104Y276144D01*
Y274528D01*
X70723Y273034D01*
X71588Y272169D01*
Y265978D01*
X77112D01*
Y272502D01*
X77112Y272502D01*
X77112D01*
X77440Y272850D01*
X77613Y273034D01*
X77791Y273462D01*
X78232Y274528D01*
Y276144D01*
X78106Y276448D01*
X78955Y277718D01*
X80532D01*
Y281113D01*
X83082D01*
X83160Y281035D01*
X84654Y280416D01*
X86271D01*
X87765Y281035D01*
X87843Y281113D01*
X89543D01*
Y279398D01*
X103767D01*
Y287860D01*
X104940Y288346D01*
X112955Y280331D01*
Y271330D01*
X111685Y270568D01*
X111071Y270690D01*
X111069Y270690D01*
X105410D01*
X105410Y270690D01*
X104370Y270483D01*
X103488Y269893D01*
X103488Y269893D01*
X103487Y269893D01*
X102898Y269011D01*
X102691Y267970D01*
X102898Y266929D01*
X103487Y266047D01*
X104369Y265458D01*
X105410Y265251D01*
X105412Y265251D01*
X111070D01*
X111685Y265373D01*
X112955Y264611D01*
Y251460D01*
X113251Y249973D01*
X114093Y248713D01*
X115847Y246959D01*
Y242021D01*
X115157D01*
Y241431D01*
X114139Y241124D01*
X113887Y241110D01*
X112792Y242205D01*
X111298Y242824D01*
X109682D01*
X108188Y242205D01*
X107045Y241062D01*
X106426Y239568D01*
Y237952D01*
X107045Y236458D01*
X108188Y235315D01*
X109682Y234696D01*
X110875D01*
X111642Y233831D01*
X111764Y233523D01*
X111760Y233513D01*
Y231896D01*
X112379Y230402D01*
X113522Y229259D01*
X115016Y228640D01*
X116133D01*
X121703Y223071D01*
X121703Y223071D01*
X122375Y222622D01*
X123168Y222464D01*
X123168Y222464D01*
X146998D01*
X149194Y220268D01*
Y212674D01*
X159821D01*
Y209065D01*
X158551Y208358D01*
X157058Y208976D01*
X154854D01*
X152818Y208133D01*
X151259Y206574D01*
X150416Y204538D01*
Y202334D01*
X151259Y200298D01*
X152818Y198739D01*
X154854Y197896D01*
X157058D01*
X158551Y198514D01*
X159821Y197806D01*
Y192066D01*
X158551Y191358D01*
X157058Y191976D01*
X154854D01*
X152818Y191133D01*
X151259Y189574D01*
X150416Y187538D01*
Y185334D01*
X151259Y183298D01*
X152818Y181739D01*
X154854Y180896D01*
X157058D01*
X158551Y181514D01*
X159821Y180807D01*
Y177198D01*
X149194D01*
Y169604D01*
X146254Y166664D01*
X109205D01*
X109109Y166894D01*
X107966Y168037D01*
X106472Y168656D01*
X104856D01*
X103362Y168037D01*
X102219Y166894D01*
X101600Y165400D01*
Y163784D01*
X102219Y162290D01*
X103362Y161147D01*
X104856Y160528D01*
X106472D01*
X107966Y161147D01*
X109109Y162290D01*
X109205Y162520D01*
X147112D01*
X147112Y162520D01*
X147905Y162678D01*
X148577Y163127D01*
X152124Y166674D01*
X159821D01*
Y147446D01*
X158646Y146962D01*
X157480Y147446D01*
X147760D01*
X146594Y146962D01*
X146110Y145796D01*
X146594Y144630D01*
X147760Y144146D01*
X157480D01*
X158646Y144630D01*
X159821Y144146D01*
Y130055D01*
X159050Y129540D01*
X157434D01*
X155940Y128921D01*
X154797Y127778D01*
X154526Y127126D01*
X151526D01*
Y129238D01*
X144502D01*
Y121714D01*
X151526D01*
Y123826D01*
X154526D01*
X154797Y123174D01*
X155940Y122031D01*
X157434Y121412D01*
X159050D01*
X159821Y120897D01*
Y110751D01*
X159050Y110236D01*
X157434D01*
X155940Y109617D01*
X154797Y108474D01*
X154526Y107822D01*
X151526D01*
Y109934D01*
X144502D01*
Y102410D01*
X151526D01*
Y104522D01*
X154526D01*
X154797Y103870D01*
X155940Y102727D01*
X157434Y102108D01*
X159050D01*
X159821Y101593D01*
Y-7112D01*
Y-9270D01*
X159257Y-13548D01*
X158140Y-17717D01*
X156489Y-21704D01*
X154331Y-25441D01*
X151704Y-28865D01*
X148653Y-31916D01*
X145229Y-34543D01*
X141492Y-36701D01*
X137505Y-38352D01*
X133336Y-39469D01*
X129058Y-40033D01*
X107009D01*
Y-16803D01*
X108710D01*
X108712Y-16804D01*
X109505Y-16646D01*
X110177Y-16197D01*
X110626Y-15525D01*
X110784Y-14732D01*
X110626Y-13939D01*
X110177Y-13267D01*
X110177Y-13267D01*
X109504Y-12817D01*
X108712Y-12660D01*
X108712Y-12660D01*
X107009D01*
Y-5120D01*
X108712D01*
X108712Y-5120D01*
X109504Y-4963D01*
X110177Y-4513D01*
X110177Y-4513D01*
X110626Y-3841D01*
X110784Y-3048D01*
X110626Y-2255D01*
X110177Y-1583D01*
X109505Y-1134D01*
X108712Y-976D01*
X108710Y-977D01*
X107009D01*
Y9652D01*
X106713Y11139D01*
X105871Y12399D01*
X104611Y13241D01*
X103124Y13537D01*
X96102D01*
X95504Y14432D01*
Y16048D01*
X94885Y17542D01*
X93742Y18685D01*
X92248Y19304D01*
X90632D01*
X89138Y18685D01*
X87995Y17542D01*
X87376Y16048D01*
Y14432D01*
X86778Y13537D01*
X60452D01*
Y16714D01*
X43688D01*
Y13537D01*
X28742D01*
Y18542D01*
X28742Y18542D01*
X28584Y19335D01*
X28135Y20007D01*
X28135Y20007D01*
X22801Y25341D01*
X22129Y25790D01*
X21336Y25948D01*
X20543Y25790D01*
X19871Y25341D01*
X19422Y24669D01*
X19264Y23876D01*
X19422Y23083D01*
X19871Y22411D01*
X24598Y17684D01*
Y13537D01*
X2731D01*
Y18274D01*
X2731Y18274D01*
X2573Y19067D01*
X2124Y19739D01*
X-3801Y25663D01*
X-4473Y26112D01*
X-5265Y26270D01*
X-6058Y26112D01*
X-6730Y25663D01*
X-7180Y24991D01*
X-7337Y24199D01*
X-7180Y23406D01*
X-6730Y22734D01*
X-1413Y17416D01*
Y13537D01*
X-15748D01*
Y16714D01*
X-22058D01*
Y22256D01*
X-16823Y27491D01*
X-16823Y27491D01*
X-16374Y28163D01*
X-16216Y28956D01*
X-16216Y28956D01*
Y30321D01*
X-15027D01*
Y31011D01*
X-9357D01*
Y30321D01*
X-2833D01*
Y31011D01*
X2833D01*
Y30321D01*
X9357D01*
Y35845D01*
X2833D01*
Y35155D01*
X-2833D01*
Y35845D01*
X-9357D01*
Y35155D01*
X-15027D01*
Y35845D01*
X-21551D01*
Y30321D01*
X-21551D01*
X-21123Y29051D01*
X-25595Y24579D01*
X-26044Y23907D01*
X-26202Y23114D01*
X-26202Y23114D01*
Y16714D01*
X-32512D01*
Y13537D01*
X-41148D01*
Y16714D01*
X-57912D01*
Y13537D01*
X-94119D01*
X-105664Y25081D01*
Y25192D01*
X-106283Y26686D01*
X-107426Y27829D01*
X-108920Y28448D01*
X-110536D01*
X-112030Y27829D01*
X-112457Y27403D01*
X-129350D01*
Y29298D01*
X-138874D01*
Y18774D01*
X-129350D01*
Y20669D01*
X-111380D01*
X-110536Y20320D01*
X-110425D01*
X-103257Y13152D01*
X-103331Y12399D01*
X-104173Y11139D01*
X-104469Y9652D01*
Y-40033D01*
X-129058D01*
X-133336Y-39469D01*
X-137505Y-38352D01*
X-141492Y-36701D01*
X-145229Y-34543D01*
X-148653Y-31916D01*
X-151704Y-28865D01*
X-154331Y-25441D01*
X-156489Y-21704D01*
X-158140Y-17717D01*
X-159257Y-13548D01*
X-159821Y-9270D01*
Y-7112D01*
Y341776D01*
Y343934D01*
X-159257Y348212D01*
X-158140Y352381D01*
X-156489Y356368D01*
X-154331Y360105D01*
X-151704Y363529D01*
X-148653Y366580D01*
X-145229Y369207D01*
X-141492Y371365D01*
X-137505Y373016D01*
X-133336Y374133D01*
X-129058Y374697D01*
X129058D01*
X133336Y374133D01*
D02*
G37*
%LPC*%
G36*
X71120Y365964D02*
X52300D01*
X50764Y365659D01*
X49462Y364788D01*
X48591Y363486D01*
X48286Y361950D01*
X48591Y360414D01*
X49462Y359112D01*
X50764Y358241D01*
X52300Y357936D01*
X71120D01*
X72656Y358241D01*
X73958Y359112D01*
X74829Y360414D01*
X75134Y361950D01*
X74829Y363486D01*
X73958Y364788D01*
X72656Y365659D01*
X71120Y365964D01*
D02*
G37*
G36*
X-50700Y365634D02*
X-69520D01*
X-71056Y365329D01*
X-72358Y364458D01*
X-73229Y363156D01*
X-73534Y361620D01*
X-73229Y360084D01*
X-72358Y358782D01*
X-71056Y357911D01*
X-69520Y357606D01*
X-50700D01*
X-49164Y357911D01*
X-47862Y358782D01*
X-46991Y360084D01*
X-46686Y361620D01*
X-46991Y363156D01*
X-47862Y364458D01*
X-49164Y365329D01*
X-50700Y365634D01*
D02*
G37*
G36*
X16048Y335534D02*
X14432D01*
X12938Y334915D01*
X11795Y333772D01*
X11176Y332278D01*
Y331281D01*
X9906Y330755D01*
X8786Y331874D01*
X7620Y332358D01*
X-3048D01*
X-4214Y331874D01*
X-6332Y329757D01*
X-6569Y329184D01*
X-6640D01*
X-8134Y328565D01*
X-9277Y327422D01*
X-9896Y325928D01*
Y324311D01*
X-9277Y322818D01*
X-8134Y321674D01*
X-6640Y321056D01*
X-5225D01*
X-4346Y320066D01*
X-4419Y319536D01*
X-5238Y318672D01*
X-5238Y318672D01*
X-9762Y318672D01*
X-11032Y318672D01*
X-14762Y318672D01*
X-15850Y319110D01*
Y328142D01*
X-16334Y329308D01*
X-17034Y330009D01*
X-16764Y330662D01*
Y332278D01*
X-17383Y333772D01*
X-18526Y334915D01*
X-20020Y335534D01*
X-21636D01*
X-23130Y334915D01*
X-24273Y333772D01*
X-24892Y332278D01*
Y330997D01*
X-24955Y330913D01*
X-25719Y330345D01*
X-26065Y330213D01*
X-27748Y330910D01*
X-30052D01*
X-32180Y330028D01*
X-33809Y328400D01*
X-34690Y326272D01*
Y323968D01*
X-33809Y321840D01*
X-32180Y320211D01*
X-30052Y319330D01*
X-29264D01*
X-28262Y318682D01*
X-28262Y318060D01*
Y302658D01*
X-27751D01*
Y300108D01*
X-27494Y298820D01*
X-26765Y297727D01*
X-19265Y290227D01*
X-18172Y289498D01*
X-16884Y289241D01*
X-2844D01*
X-1774Y288798D01*
X-258D01*
X812Y289241D01*
X16014D01*
X16540Y287971D01*
X15859Y287290D01*
X15240Y285796D01*
Y284180D01*
X15859Y282686D01*
X16131Y282413D01*
Y280311D01*
X14519D01*
Y274787D01*
X21043D01*
Y280311D01*
X21043Y280311D01*
X21043D01*
X21416Y281464D01*
X21606Y281543D01*
X22749Y282686D01*
X23368Y284180D01*
Y285796D01*
X22749Y287290D01*
X22068Y287971D01*
X22594Y289241D01*
X46248D01*
X49008Y286481D01*
Y277718D01*
X61532D01*
Y291242D01*
X53769D01*
X50023Y294989D01*
X48930Y295718D01*
X47642Y295975D01*
X28282D01*
X27562Y297245D01*
X27751Y298196D01*
Y302648D01*
X28262D01*
Y318060D01*
X28262Y318672D01*
X29260Y319330D01*
X30052D01*
X32180Y320211D01*
X33809Y321840D01*
X34690Y323968D01*
Y326272D01*
X33809Y328400D01*
X32180Y330028D01*
X30052Y330910D01*
X27748D01*
X25620Y330028D01*
X23991Y328400D01*
X23110Y326272D01*
Y323968D01*
X23991Y321840D01*
X25620Y320211D01*
X26271Y319942D01*
X26018Y318672D01*
X21032D01*
X20738Y318672D01*
X19762D01*
X19468Y318672D01*
X15238Y318672D01*
X14250Y319352D01*
Y327047D01*
X14609Y327406D01*
X16048D01*
X17542Y328025D01*
X18685Y329168D01*
X19304Y330662D01*
Y332278D01*
X18685Y333772D01*
X17542Y334915D01*
X16048Y335534D01*
D02*
G37*
G36*
X134581Y363120D02*
X132119D01*
X131618Y363020D01*
X131108Y363020D01*
X128693Y362540D01*
X128222Y362344D01*
X127722Y362245D01*
X125447Y361303D01*
X125023Y361019D01*
X124551Y360824D01*
X122504Y359456D01*
X122143Y359095D01*
X121719Y358812D01*
X119978Y357071D01*
X119695Y356647D01*
X119334Y356286D01*
X117966Y354239D01*
X117771Y353767D01*
X117487Y353343D01*
X116545Y351068D01*
X116446Y350568D01*
X116250Y350097D01*
X115770Y347682D01*
Y347172D01*
X115670Y346671D01*
Y344209D01*
X115770Y343708D01*
Y343198D01*
X116250Y340783D01*
X116446Y340312D01*
X116545Y339812D01*
X117487Y337537D01*
X117771Y337113D01*
X117966Y336641D01*
X119334Y334594D01*
X119695Y334233D01*
X119978Y333809D01*
X121719Y332068D01*
X122143Y331785D01*
X122504Y331424D01*
X124551Y330056D01*
X125023Y329861D01*
X125447Y329577D01*
X127722Y328635D01*
X128222Y328536D01*
X128693Y328340D01*
X131108Y327860D01*
X131618D01*
X132119Y327761D01*
X134581D01*
X135082Y327860D01*
X135592D01*
X138007Y328340D01*
X138478Y328536D01*
X138978Y328635D01*
X141253Y329577D01*
X141677Y329861D01*
X142149Y330056D01*
X144196Y331424D01*
X144557Y331785D01*
X144981Y332068D01*
X146722Y333809D01*
X147005Y334233D01*
X147366Y334594D01*
X148734Y336641D01*
X148929Y337113D01*
X149213Y337537D01*
X150155Y339812D01*
X150254Y340312D01*
X150450Y340783D01*
X150930Y343198D01*
Y343708D01*
X151030Y344209D01*
Y346671D01*
X150930Y347172D01*
X150930Y347682D01*
X150450Y350097D01*
X150254Y350568D01*
X150155Y351068D01*
X149213Y353343D01*
X148929Y353767D01*
X148734Y354239D01*
X147366Y356286D01*
X147005Y356647D01*
X146722Y357071D01*
X144981Y358812D01*
X144557Y359095D01*
X144196Y359456D01*
X142149Y360824D01*
X141677Y361019D01*
X141253Y361303D01*
X138978Y362245D01*
X138478Y362344D01*
X138007Y362540D01*
X135592Y363020D01*
X135082D01*
X134581Y363120D01*
D02*
G37*
G36*
X-130849D02*
X-133311D01*
X-133812Y363020D01*
X-134322Y363020D01*
X-136737Y362540D01*
X-137208Y362344D01*
X-137708Y362245D01*
X-139983Y361303D01*
X-140407Y361019D01*
X-140879Y360824D01*
X-142926Y359456D01*
X-143287Y359095D01*
X-143711Y358812D01*
X-145452Y357071D01*
X-145735Y356647D01*
X-146096Y356286D01*
X-147464Y354239D01*
X-147659Y353767D01*
X-147943Y353343D01*
X-148885Y351068D01*
X-148984Y350568D01*
X-149180Y350097D01*
X-149660Y347682D01*
Y347172D01*
X-149760Y346671D01*
Y344209D01*
X-149660Y343708D01*
Y343198D01*
X-149180Y340783D01*
X-148984Y340312D01*
X-148885Y339812D01*
X-147943Y337537D01*
X-147659Y337113D01*
X-147464Y336641D01*
X-146096Y334594D01*
X-145735Y334233D01*
X-145452Y333809D01*
X-143711Y332068D01*
X-143287Y331785D01*
X-142926Y331424D01*
X-140879Y330056D01*
X-140407Y329861D01*
X-139983Y329577D01*
X-137708Y328635D01*
X-137208Y328536D01*
X-136737Y328340D01*
X-134322Y327860D01*
X-133812D01*
X-133311Y327761D01*
X-130849D01*
X-130349Y327860D01*
X-129838D01*
X-127423Y328340D01*
X-126952Y328536D01*
X-126452Y328635D01*
X-124177Y329577D01*
X-123753Y329861D01*
X-123281Y330056D01*
X-121234Y331424D01*
X-120873Y331785D01*
X-120449Y332068D01*
X-118708Y333809D01*
X-118425Y334233D01*
X-118064Y334594D01*
X-116696Y336641D01*
X-116501Y337113D01*
X-116217Y337537D01*
X-115275Y339812D01*
X-115176Y340312D01*
X-114980Y340783D01*
X-114500Y343198D01*
Y343708D01*
X-114401Y344209D01*
Y346671D01*
X-114500Y347172D01*
X-114500Y347682D01*
X-114980Y350097D01*
X-115176Y350568D01*
X-115275Y351068D01*
X-116217Y353343D01*
X-116501Y353767D01*
X-116696Y354239D01*
X-118064Y356286D01*
X-118425Y356647D01*
X-118708Y357071D01*
X-120449Y358812D01*
X-120873Y359095D01*
X-121234Y359456D01*
X-123281Y360824D01*
X-123753Y361019D01*
X-124177Y361303D01*
X-126452Y362245D01*
X-126952Y362344D01*
X-127423Y362540D01*
X-129838Y363020D01*
X-130349D01*
X-130849Y363120D01*
D02*
G37*
G36*
X71120Y324054D02*
X52300D01*
X50764Y323749D01*
X49462Y322878D01*
X48591Y321576D01*
X48286Y320040D01*
X48591Y318504D01*
X49462Y317202D01*
X50764Y316331D01*
X52300Y316026D01*
X71120D01*
X72656Y316331D01*
X73958Y317202D01*
X74829Y318504D01*
X75134Y320040D01*
X74829Y321576D01*
X73958Y322878D01*
X72656Y323749D01*
X71120Y324054D01*
D02*
G37*
G36*
X-51030D02*
X-69850D01*
X-71386Y323749D01*
X-72688Y322878D01*
X-73559Y321576D01*
X-73864Y320040D01*
X-73559Y318504D01*
X-72688Y317202D01*
X-71386Y316331D01*
X-69850Y316026D01*
X-51030D01*
X-49494Y316331D01*
X-48192Y317202D01*
X-47321Y318504D01*
X-47016Y320040D01*
X-47321Y321576D01*
X-48192Y322878D01*
X-49494Y323749D01*
X-51030Y324054D01*
D02*
G37*
G36*
X96520Y329757D02*
X95232Y329500D01*
X94139Y328771D01*
X93410Y327678D01*
X93153Y326390D01*
Y315095D01*
X93410Y313807D01*
X94139Y312714D01*
X95232Y311985D01*
X96520Y311728D01*
X97808Y311985D01*
X98901Y312714D01*
X99630Y313807D01*
X99887Y315095D01*
Y326390D01*
X99630Y327678D01*
X98901Y328771D01*
X97808Y329500D01*
X96520Y329757D01*
D02*
G37*
G36*
X37638Y282194D02*
X36022D01*
X34528Y281575D01*
X33602Y280650D01*
X32473Y280311D01*
X32473Y280311D01*
Y280311D01*
X32473Y280311D01*
X25949D01*
Y274787D01*
X32473D01*
Y275048D01*
X33743Y275470D01*
X34528Y274685D01*
X36022Y274066D01*
X37638D01*
X39132Y274685D01*
X40275Y275828D01*
X40894Y277322D01*
Y278938D01*
X40275Y280432D01*
X39132Y281575D01*
X37638Y282194D01*
D02*
G37*
G36*
X-26348Y291564D02*
X-27141Y291406D01*
X-27813Y290957D01*
X-28262Y290285D01*
X-28420Y289492D01*
Y282008D01*
X-28262Y281215D01*
X-27813Y280543D01*
X-27141Y280094D01*
X-26348Y279936D01*
X-25555Y280094D01*
X-24883Y280543D01*
X-24434Y281215D01*
X-24276Y282008D01*
Y289492D01*
X-24434Y290285D01*
X-24883Y290957D01*
X-25555Y291406D01*
X-26348Y291564D01*
D02*
G37*
G36*
X-15018Y285202D02*
X-20542D01*
Y278678D01*
X-19430D01*
Y273772D01*
X-20542D01*
Y267248D01*
X-19290D01*
Y260877D01*
X-19634Y260536D01*
X-20869Y260211D01*
X-21617Y260711D01*
X-22500Y260886D01*
X-23383Y260711D01*
X-24131Y260211D01*
X-24278Y259991D01*
X-25722D01*
X-25869Y260211D01*
X-26617Y260711D01*
X-27500Y260886D01*
X-28383Y260711D01*
X-29131Y260211D01*
X-29631Y259463D01*
X-29806Y258580D01*
Y251878D01*
X-31076Y251625D01*
X-31331Y252239D01*
X-31333Y252246D01*
X-32500Y252730D01*
X-33666Y252246D01*
X-33669Y252240D01*
X-33924Y251625D01*
X-35194Y251878D01*
Y258580D01*
X-35369Y259463D01*
X-35428Y259551D01*
Y262544D01*
X-35586Y263337D01*
X-36035Y264009D01*
X-36035Y264009D01*
X-38322Y266296D01*
X-37974Y267566D01*
X-37378D01*
Y267599D01*
X-36108Y268105D01*
X-35322Y267319D01*
X-33828Y266700D01*
X-32212D01*
X-30718Y267319D01*
X-30312Y267725D01*
X-29042Y267248D01*
Y267248D01*
X-23518D01*
Y273772D01*
X-29042D01*
X-29042Y273772D01*
Y273772D01*
X-30303Y273794D01*
X-30718Y274209D01*
X-32212Y274828D01*
X-33828D01*
X-35322Y274209D01*
X-36206Y273326D01*
X-37378Y273090D01*
X-37378Y273090D01*
X-37378Y273090D01*
X-43902D01*
Y267566D01*
X-42712D01*
Y265684D01*
X-42712Y265684D01*
X-42554Y264891D01*
X-42105Y264219D01*
X-39572Y261686D01*
Y259551D01*
X-39631Y259463D01*
X-39806Y258580D01*
Y243580D01*
X-39631Y242697D01*
X-39131Y241949D01*
X-38383Y241449D01*
X-37500Y241274D01*
X-36617Y241449D01*
X-35869Y241949D01*
X-35420Y242622D01*
X-35326Y242636D01*
X-34150Y241992D01*
Y239794D01*
X-33666Y238628D01*
X-30144Y235105D01*
X-30125Y235060D01*
X-30122Y235054D01*
X-28956Y234570D01*
X-28951Y234573D01*
X-27790Y235054D01*
X-27306Y236220D01*
Y236250D01*
X-27790Y237416D01*
X-30850Y240477D01*
Y241992D01*
X-29674Y242636D01*
X-29580Y242622D01*
X-29131Y241949D01*
X-28383Y241449D01*
X-27500Y241274D01*
X-26617Y241449D01*
X-25869Y241949D01*
X-24663Y241478D01*
X-24150Y240953D01*
Y239268D01*
X-23666Y238102D01*
X-23611Y238046D01*
X-24135Y236780D01*
Y235163D01*
X-23517Y233669D01*
X-22373Y232526D01*
X-20880Y231907D01*
X-19263D01*
X-17769Y232526D01*
X-16626Y233669D01*
X-16007Y235163D01*
Y236780D01*
X-16626Y238273D01*
X-17769Y239417D01*
X-19263Y240035D01*
X-20850D01*
Y241977D01*
X-20722Y242169D01*
X-19278D01*
X-19131Y241949D01*
X-18383Y241449D01*
X-17500Y241274D01*
X-16617Y241449D01*
X-15869Y241949D01*
X-14663Y241478D01*
X-14150Y240953D01*
Y239540D01*
X-13666Y238374D01*
X-12799Y237507D01*
X-13208Y236520D01*
Y234904D01*
X-12589Y233410D01*
X-11446Y232267D01*
X-9952Y231648D01*
X-8336D01*
X-6842Y232267D01*
X-5699Y233410D01*
X-5080Y234904D01*
Y236520D01*
X-5699Y238014D01*
X-6842Y239157D01*
X-8336Y239776D01*
X-9952D01*
X-10850Y240724D01*
Y241977D01*
X-10722Y242169D01*
X-9278D01*
X-9131Y241949D01*
X-8383Y241449D01*
X-7500Y241274D01*
X-6617Y241449D01*
X-5869Y241949D01*
X-5722Y242169D01*
X-4278D01*
X-4131Y241949D01*
X-3383Y241449D01*
X-2500Y241274D01*
X-1617Y241449D01*
X-869Y241949D01*
X-722Y242169D01*
X722D01*
X869Y241949D01*
X1617Y241449D01*
X2500Y241274D01*
X3383Y241449D01*
X4131Y241949D01*
X4278Y242169D01*
X5722D01*
X5869Y241949D01*
X6617Y241449D01*
X7500Y241274D01*
X8383Y241449D01*
X9131Y241949D01*
X9278Y242169D01*
X10722D01*
X10869Y241949D01*
X11617Y241449D01*
X12500Y241274D01*
X13383Y241449D01*
X14131Y241949D01*
X14278Y242169D01*
X15722D01*
X15869Y241949D01*
X16617Y241449D01*
X17500Y241274D01*
X18383Y241449D01*
X19131Y241949D01*
X19278Y242169D01*
X20722D01*
X20869Y241949D01*
X21617Y241449D01*
X22500Y241274D01*
X23383Y241449D01*
X24131Y241949D01*
X24278Y242169D01*
X25722D01*
X25869Y241949D01*
X26617Y241449D01*
X27500Y241274D01*
X28383Y241449D01*
X29131Y241949D01*
X29278Y242169D01*
X30722D01*
X30869Y241949D01*
X31617Y241449D01*
X32500Y241274D01*
X33383Y241449D01*
X34131Y241949D01*
X34278Y242169D01*
X35722Y242169D01*
X35869Y241949D01*
X36617Y241449D01*
X37500Y241274D01*
X38383Y241449D01*
X39131Y241949D01*
X39631Y242697D01*
X39806Y243580D01*
Y258580D01*
X39631Y259463D01*
X39150Y260183D01*
Y262220D01*
X38666Y263386D01*
X36726Y265326D01*
X35560Y265810D01*
X33545D01*
X32473Y266287D01*
Y271811D01*
X25949D01*
Y266287D01*
X27561D01*
Y265429D01*
X28044Y264263D01*
X29314Y262994D01*
X30480Y262510D01*
X34877D01*
X35850Y261537D01*
Y261208D01*
X35337Y260682D01*
X34131Y260211D01*
X33383Y260711D01*
X32500Y260886D01*
X31617Y260711D01*
X30869Y260211D01*
X30722Y259991D01*
X29278D01*
X29131Y260211D01*
X28383Y260711D01*
X27500Y260886D01*
X26617Y260711D01*
X25869Y260211D01*
X25722Y259991D01*
X24278D01*
X24131Y260211D01*
X23383Y260711D01*
X22500Y260886D01*
X21617Y260711D01*
X20869Y260211D01*
X19663Y260682D01*
X19150Y261208D01*
Y266287D01*
X21043D01*
Y271811D01*
X14519D01*
Y266287D01*
X15850D01*
Y260183D01*
X15722Y259991D01*
X14278D01*
X14131Y260211D01*
X13383Y260711D01*
X12500Y260886D01*
X11617Y260711D01*
X10869Y260211D01*
X10722Y259991D01*
X9278D01*
X9131Y260211D01*
X8383Y260711D01*
X7500Y260886D01*
X6617Y260711D01*
X5869Y260211D01*
X5722Y259991D01*
X4278D01*
X4131Y260211D01*
X3383Y260711D01*
X2500Y260886D01*
X1617Y260711D01*
X869Y260211D01*
X722Y259991D01*
X-722D01*
X-869Y260211D01*
X-1617Y260711D01*
X-2500Y260886D01*
X-3383Y260711D01*
X-4131Y260211D01*
X-4278Y259991D01*
X-5722D01*
X-5869Y260211D01*
X-6617Y260711D01*
X-7500Y260886D01*
X-8383Y260711D01*
X-9131Y260211D01*
X-9278Y259991D01*
X-10722D01*
X-10869Y260211D01*
X-11617Y260711D01*
X-12500Y260886D01*
X-13383Y260711D01*
X-14131Y260211D01*
X-15369Y260520D01*
X-15990Y261150D01*
Y267248D01*
X-15018D01*
Y273772D01*
X-16130D01*
Y278678D01*
X-15018D01*
Y285202D01*
D02*
G37*
G36*
X65351Y271313D02*
X57151D01*
X56358Y271155D01*
X55686Y270706D01*
X55686Y270706D01*
X55685Y270705D01*
X55236Y270033D01*
X55078Y269240D01*
X55236Y268447D01*
X55685Y267775D01*
X56357Y267326D01*
X57150Y267168D01*
X57154Y267169D01*
X65351D01*
X66144Y267327D01*
X66816Y267776D01*
X67265Y268448D01*
X67423Y269241D01*
X67265Y270034D01*
X66816Y270706D01*
X66144Y271155D01*
X65351Y271313D01*
D02*
G37*
G36*
X154940Y240832D02*
X147760D01*
X146967Y240674D01*
X146295Y240225D01*
X145846Y239553D01*
X145688Y238760D01*
X145846Y237967D01*
X146295Y237295D01*
X146967Y236846D01*
X147760Y236688D01*
X154940D01*
X155733Y236846D01*
X156405Y237295D01*
X156854Y237967D01*
X157012Y238760D01*
X156854Y239553D01*
X156405Y240225D01*
X155733Y240674D01*
X154940Y240832D01*
D02*
G37*
G36*
X-115824Y277916D02*
X-116617Y277758D01*
X-117013Y277494D01*
X-125730D01*
X-125828Y277453D01*
X-127811Y277059D01*
X-129576Y275880D01*
X-130754Y274115D01*
X-131149Y272132D01*
X-131190Y272034D01*
Y265176D01*
Y255270D01*
Y245872D01*
Y239776D01*
X-131131Y239634D01*
X-130822Y236504D01*
X-129868Y233357D01*
X-128318Y230457D01*
X-127874Y229916D01*
X-127803Y229655D01*
X-127376Y229010D01*
X-127330Y229046D01*
X-126064Y227504D01*
X-123434Y225345D01*
X-120434Y223741D01*
X-117178Y222754D01*
X-113925Y222433D01*
X-113792Y222378D01*
X-97028D01*
X-95862Y222862D01*
X-95378Y224028D01*
X-95862Y225194D01*
X-97028Y225678D01*
X-112678D01*
X-113498Y226608D01*
Y228220D01*
X-96259D01*
X-95006Y228220D01*
X-95006Y228220D01*
X-94994Y228220D01*
X-94991Y228221D01*
X-94990Y228220D01*
X-94989Y228221D01*
X-93755Y228134D01*
X-92668Y227991D01*
X-90514Y227099D01*
X-89446Y226280D01*
X-88543Y225433D01*
X-88008Y224309D01*
X-88007Y224307D01*
X-86632Y220987D01*
X-83731Y216252D01*
X-82952Y215340D01*
X-82183Y214328D01*
X-82125Y214188D01*
X-82011Y214141D01*
X-81321Y213393D01*
X-80793Y212749D01*
X-79006Y211282D01*
X-78334Y210731D01*
X-78262Y210557D01*
X-78193Y210529D01*
X-78051Y210470D01*
X-77100Y209740D01*
X-77096Y209737D01*
X-77021Y209697D01*
X-73736Y207941D01*
X-70091Y206836D01*
X-66445Y206476D01*
X-66336Y206432D01*
Y206432D01*
X-66333Y206430D01*
X-66333Y206430D01*
X-65959Y206430D01*
X-65661Y206093D01*
Y205067D01*
X-65959Y204730D01*
X-73365D01*
X-76050Y207414D01*
X-77216Y207898D01*
X-80618D01*
Y210271D01*
X-86142D01*
Y203747D01*
X-85154D01*
Y198843D01*
X-86391D01*
Y192319D01*
X-80867D01*
Y198843D01*
X-81855D01*
Y203747D01*
X-80618D01*
Y204598D01*
X-77899D01*
X-75215Y201914D01*
X-75210Y200599D01*
X-75692Y199436D01*
Y197820D01*
X-75073Y196326D01*
X-74675Y195928D01*
X-74021Y195072D01*
X-74675Y194268D01*
X-75099Y193844D01*
X-75718Y192350D01*
Y190734D01*
X-75099Y189240D01*
X-73956Y188097D01*
X-73495Y187906D01*
Y186531D01*
X-73930Y186351D01*
X-75073Y185208D01*
X-75692Y183714D01*
Y182098D01*
X-75412Y181422D01*
X-76261Y180152D01*
X-80622D01*
Y181570D01*
X-86146D01*
Y175046D01*
X-86146Y175046D01*
X-85971Y173776D01*
X-86757Y172990D01*
X-87376Y171496D01*
Y169880D01*
X-86757Y168386D01*
X-85614Y167243D01*
X-84120Y166624D01*
X-82504D01*
X-81010Y167243D01*
X-79867Y168386D01*
X-79248Y169880D01*
Y171496D01*
X-79867Y172990D01*
X-80653Y173776D01*
X-80622Y175046D01*
X-79879Y176008D01*
X-65427D01*
X-65420Y176000D01*
X-66035Y174730D01*
X-68644D01*
X-69811Y174246D01*
X-71212Y172846D01*
X-71628D01*
X-72794Y172362D01*
X-73278Y171196D01*
X-72794Y170030D01*
X-71628Y169546D01*
X-70528D01*
X-69362Y170030D01*
X-67961Y171430D01*
X-64841D01*
X-64198Y170254D01*
X-64212Y170160D01*
X-64885Y169711D01*
X-65385Y168963D01*
X-65560Y168080D01*
X-65385Y167197D01*
X-64885Y166449D01*
X-64665Y166302D01*
Y164858D01*
X-64885Y164711D01*
X-65385Y163963D01*
X-65560Y163080D01*
X-65385Y162197D01*
X-64885Y161449D01*
X-65356Y160243D01*
X-65881Y159730D01*
X-68488D01*
X-69654Y159246D01*
X-72078Y156822D01*
X-72562Y155656D01*
Y152669D01*
X-72078Y151502D01*
X-69778Y149202D01*
X-68611Y148718D01*
X-67216D01*
X-66945Y148066D01*
X-65802Y146923D01*
X-64308Y146304D01*
X-62692D01*
X-61198Y146923D01*
X-60055Y148066D01*
X-59436Y149560D01*
Y151176D01*
X-60055Y152670D01*
X-61198Y153813D01*
X-62692Y154432D01*
X-64308D01*
X-65802Y153813D01*
X-66945Y152670D01*
X-68389Y152479D01*
X-69262Y153352D01*
Y154973D01*
X-67805Y156430D01*
X-64857D01*
X-64137Y155949D01*
X-63254Y155774D01*
X-49866D01*
X-49614Y154504D01*
X-50054Y154321D01*
X-51197Y153178D01*
X-51816Y151684D01*
Y150068D01*
X-51197Y148574D01*
X-50054Y147431D01*
X-48560Y146812D01*
X-46944D01*
X-45450Y147431D01*
X-44307Y148574D01*
X-44036Y149226D01*
X-40648D01*
X-40427Y149061D01*
X-39731Y147956D01*
X-39806Y147580D01*
Y132580D01*
X-39631Y131697D01*
X-39131Y130949D01*
X-38383Y130449D01*
X-37500Y130274D01*
X-36617Y130449D01*
X-35869Y130949D01*
X-35369Y131697D01*
X-35194Y132580D01*
Y139282D01*
X-33924Y139535D01*
X-33669Y138920D01*
X-33666Y138914D01*
X-32500Y138430D01*
X-32494Y138433D01*
X-31334Y138914D01*
X-31076Y139535D01*
X-29806Y139282D01*
Y132580D01*
X-29631Y131697D01*
X-29131Y130949D01*
X-28383Y130449D01*
X-27500Y130274D01*
X-26617Y130449D01*
X-25869Y130949D01*
X-25722Y131170D01*
X-24278D01*
X-24131Y130949D01*
X-23383Y130449D01*
X-22500Y130274D01*
X-21617Y130449D01*
X-20869Y130949D01*
X-20722Y131169D01*
X-19278D01*
X-19131Y130949D01*
X-18383Y130449D01*
X-17500Y130274D01*
X-16617Y130449D01*
X-16350Y130628D01*
X-15018Y130378D01*
X-14815Y130242D01*
X-14674Y129899D01*
X-16939Y127634D01*
X-60452D01*
X-61618Y127150D01*
X-72819Y115950D01*
X-99568D01*
X-100734Y115466D01*
X-103730Y112470D01*
X-104214Y111304D01*
Y108203D01*
X-104375Y108095D01*
X-104930Y107264D01*
X-105125Y106284D01*
Y96784D01*
X-104930Y95804D01*
X-104375Y94973D01*
X-103544Y94418D01*
X-102564Y94223D01*
X-101584Y94418D01*
X-100753Y94973D01*
X-100198Y95804D01*
X-100003Y96784D01*
Y106284D01*
X-100198Y107264D01*
X-100753Y108095D01*
X-100914Y108203D01*
Y110621D01*
X-98885Y112650D01*
X-72136D01*
X-70970Y113134D01*
X-66017Y118086D01*
X-65357Y117843D01*
X-64844Y117464D01*
Y108203D01*
X-65005Y108095D01*
X-65560Y107264D01*
X-65755Y106284D01*
Y96784D01*
X-65560Y95804D01*
X-65005Y94973D01*
X-64174Y94418D01*
X-63194Y94223D01*
X-62214Y94418D01*
X-61383Y94973D01*
X-60828Y95804D01*
X-60633Y96784D01*
Y106284D01*
X-60828Y107264D01*
X-61383Y108095D01*
X-61544Y108203D01*
Y112886D01*
X-60274Y113138D01*
X-60139Y112812D01*
X-58996Y111669D01*
X-58344Y111398D01*
Y108203D01*
X-58505Y108095D01*
X-59060Y107264D01*
X-59255Y106284D01*
Y96784D01*
X-59060Y95804D01*
X-58505Y94973D01*
X-57674Y94418D01*
X-56694Y94223D01*
X-55714Y94418D01*
X-54883Y94973D01*
X-54328Y95804D01*
X-54133Y96784D01*
Y106284D01*
X-54328Y107264D01*
X-54883Y108095D01*
X-55044Y108203D01*
Y111398D01*
X-54392Y111669D01*
X-53249Y112812D01*
X-52630Y114306D01*
Y115922D01*
X-53249Y117416D01*
X-54392Y118559D01*
X-55886Y119178D01*
X-57502D01*
X-57568Y119151D01*
X-58288Y120227D01*
X-57229Y121286D01*
X-23050D01*
X-22524Y120016D01*
X-24990Y117550D01*
X-25474Y116384D01*
Y108203D01*
X-25635Y108095D01*
X-26190Y107264D01*
X-26385Y106284D01*
Y96784D01*
X-26190Y95804D01*
X-25635Y94973D01*
X-24804Y94418D01*
X-23824Y94223D01*
X-22844Y94418D01*
X-22013Y94973D01*
X-21458Y95804D01*
X-21263Y96784D01*
Y106284D01*
X-21458Y107264D01*
X-22013Y108095D01*
X-22174Y108203D01*
Y115701D01*
X-20346Y117529D01*
X-19833Y117444D01*
X-18974Y116201D01*
Y108203D01*
X-19135Y108095D01*
X-19690Y107264D01*
X-19885Y106284D01*
Y96784D01*
X-19690Y95804D01*
X-19135Y94973D01*
X-18304Y94418D01*
X-17324Y94223D01*
X-16344Y94418D01*
X-15513Y94973D01*
X-14958Y95804D01*
X-14763Y96784D01*
Y106284D01*
X-14958Y107264D01*
X-15513Y108095D01*
X-15674Y108203D01*
Y115444D01*
X-3302D01*
X-2136Y115928D01*
X7029Y125092D01*
X7722Y124985D01*
X8156Y123632D01*
X7731Y123206D01*
X7112Y121712D01*
Y120096D01*
X7731Y118602D01*
X8874Y117459D01*
X10368Y116840D01*
X11984D01*
X12637Y117110D01*
X13896Y115851D01*
Y108203D01*
X13735Y108095D01*
X13180Y107264D01*
X12985Y106284D01*
Y96784D01*
X13180Y95804D01*
X13735Y94973D01*
X14566Y94418D01*
X15546Y94223D01*
X16526Y94418D01*
X17357Y94973D01*
X17912Y95804D01*
X18107Y96784D01*
Y106284D01*
X17912Y107264D01*
X17357Y108095D01*
X17196Y108203D01*
Y116534D01*
X16712Y117700D01*
X15475Y118938D01*
X15623Y119582D01*
X17018Y119982D01*
X17510Y119491D01*
X19004Y118872D01*
X20396D01*
Y108203D01*
X20235Y108095D01*
X19680Y107264D01*
X19485Y106284D01*
Y96784D01*
X19680Y95804D01*
X20235Y94973D01*
X21066Y94418D01*
X22046Y94223D01*
X23026Y94418D01*
X23857Y94973D01*
X24412Y95804D01*
X24607Y96784D01*
Y106284D01*
X24412Y107264D01*
X23857Y108095D01*
X23696Y108203D01*
Y119602D01*
X23263Y120647D01*
X23876Y122128D01*
Y123744D01*
X23257Y125238D01*
X22114Y126381D01*
X20620Y127000D01*
X19369D01*
X18825Y127847D01*
X18736Y128031D01*
X18700Y128173D01*
X19150Y129260D01*
Y130977D01*
X19278Y131169D01*
X20722D01*
X20869Y130949D01*
X21617Y130449D01*
X22500Y130274D01*
X23383Y130449D01*
X24131Y130949D01*
X24278Y131169D01*
X25722D01*
X25869Y130949D01*
X26617Y130449D01*
X27500Y130274D01*
X28383Y130449D01*
X29131Y130949D01*
X29278Y131169D01*
X30722D01*
X30869Y130949D01*
X31617Y130449D01*
X32500Y130274D01*
X33383Y130449D01*
X34131Y130949D01*
X34278Y131169D01*
X35722D01*
X35869Y130949D01*
X36617Y130449D01*
X37500Y130274D01*
X38383Y130449D01*
X39131Y130949D01*
X39631Y131697D01*
X39806Y132580D01*
Y147580D01*
X39631Y148463D01*
X39131Y149211D01*
X38383Y149711D01*
X37500Y149886D01*
X36617Y149711D01*
X35869Y149211D01*
X34667Y149698D01*
X34201Y150168D01*
X34195Y150226D01*
X35735Y151766D01*
X58753D01*
X63374Y147145D01*
Y139192D01*
X63858Y138026D01*
X67414Y134470D01*
X68580Y133986D01*
X73002D01*
Y132374D01*
X78526D01*
Y138898D01*
X73002D01*
Y137286D01*
X69263D01*
X66674Y139875D01*
Y146368D01*
X67944Y146894D01*
X68684Y146153D01*
X69851Y145670D01*
X73247D01*
Y144057D01*
X78771D01*
Y150581D01*
X73247D01*
Y148969D01*
X70534D01*
X68960Y150543D01*
Y158188D01*
X70133Y158674D01*
X71224Y157583D01*
X72391Y157100D01*
X73247D01*
Y155487D01*
X78771D01*
Y162011D01*
X73247D01*
Y162011D01*
X72692Y161786D01*
X71500Y162673D01*
Y171450D01*
X71016Y172617D01*
X69386Y174246D01*
X68220Y174730D01*
X65705D01*
X65187Y176000D01*
X65627Y176430D01*
X72697D01*
X73908Y175219D01*
X73501Y173949D01*
X73501D01*
Y167425D01*
X79025D01*
Y173949D01*
X77913D01*
Y175197D01*
X77430Y176363D01*
X75446Y178347D01*
X75972Y179617D01*
X78771D01*
Y186141D01*
X73247D01*
Y184730D01*
X65705D01*
X65187Y186000D01*
X65627Y186430D01*
X69662D01*
X70828Y186914D01*
X75272Y191357D01*
X79463D01*
Y196881D01*
X72939D01*
Y193690D01*
X68978Y189730D01*
X64603D01*
X64411Y189858D01*
Y191302D01*
X64631Y191449D01*
X65131Y192197D01*
X65306Y193080D01*
X65131Y193963D01*
X64631Y194711D01*
X64411Y194858D01*
Y196302D01*
X64631Y196449D01*
X65131Y197197D01*
X65306Y198080D01*
X65131Y198963D01*
X64631Y199711D01*
X64411Y199858D01*
Y201302D01*
X64631Y201449D01*
X65131Y202197D01*
X65306Y203080D01*
X65131Y203963D01*
X64631Y204711D01*
X65102Y205917D01*
X65627Y206430D01*
X69557D01*
X72939Y203048D01*
Y199857D01*
X79463D01*
Y204228D01*
X79463Y204521D01*
X79473Y204565D01*
X80537Y204777D01*
X80537Y204777D01*
X80537D01*
X81379Y203958D01*
X82026Y203311D01*
X83520Y202692D01*
X85136D01*
X86630Y203311D01*
X87773Y204454D01*
X88392Y205948D01*
Y207564D01*
X87773Y209058D01*
X86734Y210097D01*
X86790Y210579D01*
X87123Y211367D01*
X87271D01*
Y217891D01*
X81747D01*
Y211367D01*
X81747D01*
X81914Y210166D01*
X81922Y210097D01*
X80883Y209058D01*
X80264Y207564D01*
Y207152D01*
X79953Y205956D01*
X79124Y205381D01*
X79124Y205381D01*
X78575Y205381D01*
X75272D01*
X71406Y209246D01*
X70240Y209730D01*
X64603D01*
X64411Y209858D01*
Y211302D01*
X64631Y211449D01*
X65131Y212197D01*
X65306Y213080D01*
X65131Y213963D01*
X64631Y214711D01*
X64411Y214858D01*
Y216302D01*
X64631Y216449D01*
X65131Y217197D01*
X65306Y218080D01*
X65131Y218963D01*
X64631Y219711D01*
X64411Y219858D01*
X64397Y219933D01*
X64766Y221148D01*
X66079D01*
X67258Y219969D01*
Y216842D01*
X67742Y215676D01*
X69954Y213463D01*
X71121Y212980D01*
X73247D01*
Y211367D01*
X78771D01*
Y217891D01*
X73247D01*
Y216279D01*
X71804D01*
X70558Y217525D01*
Y220652D01*
X70074Y221818D01*
X67929Y223964D01*
X66762Y224447D01*
X65416D01*
X64963Y225560D01*
X65102Y225917D01*
X65627Y226430D01*
X72748D01*
Y222798D01*
X78272D01*
Y229322D01*
X74575D01*
X74272Y229448D01*
X74060D01*
X73379Y229730D01*
X65914D01*
X65908Y229738D01*
X66547Y231008D01*
X71100D01*
X71100Y231008D01*
X71893Y231166D01*
X72565Y231615D01*
X75178Y234228D01*
X78272D01*
Y240752D01*
X78272D01*
X78105Y241953D01*
X78097Y242022D01*
X79137Y243062D01*
X79756Y244556D01*
Y246172D01*
X79137Y247666D01*
X77994Y248809D01*
X76500Y249428D01*
X74884D01*
X73390Y248809D01*
X72247Y247666D01*
X71628Y246172D01*
Y244556D01*
X72247Y243062D01*
X73287Y242022D01*
X73232Y241544D01*
X72897Y240752D01*
X72748D01*
Y237658D01*
X70242Y235152D01*
X63971D01*
X63883Y235211D01*
X63000Y235386D01*
X48000D01*
X47117Y235211D01*
X46369Y234711D01*
X45869Y233963D01*
X45694Y233080D01*
X45869Y232197D01*
X46369Y231449D01*
X46589Y231302D01*
Y229858D01*
X46369Y229711D01*
X45869Y228963D01*
X45694Y228080D01*
X45869Y227197D01*
X46369Y226449D01*
X46589Y226302D01*
Y224858D01*
X46369Y224711D01*
X45869Y223963D01*
X45694Y223080D01*
X45869Y222197D01*
X46369Y221449D01*
X46410Y221422D01*
X46025Y220152D01*
X41148D01*
Y221280D01*
X40529Y222774D01*
X39386Y223917D01*
X37892Y224536D01*
X36276D01*
X34782Y223917D01*
X33639Y222774D01*
X33020Y221280D01*
Y219664D01*
X33639Y218170D01*
X34782Y217027D01*
X36276Y216408D01*
X37892D01*
X38120Y216502D01*
X38932Y216068D01*
X38963Y215873D01*
X38863Y214677D01*
X38201Y214248D01*
X37892Y214376D01*
X36276D01*
X34782Y213757D01*
X33639Y212614D01*
X33020Y211120D01*
Y209504D01*
X33639Y208010D01*
X34782Y206867D01*
X36276Y206248D01*
X37892D01*
X39386Y206867D01*
X40529Y208010D01*
X41148Y209504D01*
Y210928D01*
X45905D01*
X46273Y209964D01*
X46334Y209658D01*
X45869Y208963D01*
X45694Y208080D01*
X45869Y207197D01*
X46369Y206449D01*
X46589Y206302D01*
Y204858D01*
X46369Y204711D01*
X45869Y203963D01*
X45694Y203080D01*
X45869Y202197D01*
X46369Y201449D01*
X46589Y201302D01*
X46608Y201193D01*
X46247Y200004D01*
X42437D01*
X42053Y200930D01*
X40910Y202073D01*
X39416Y202692D01*
X37800D01*
X36306Y202073D01*
X35163Y200930D01*
X34544Y199436D01*
Y198277D01*
X34452Y197759D01*
X33466Y197104D01*
X32720D01*
X31226Y196485D01*
X30083Y195342D01*
X29464Y193848D01*
Y192232D01*
X30083Y190738D01*
X31226Y189595D01*
X32720Y188976D01*
X34336D01*
X35830Y189595D01*
X36973Y190738D01*
X37252Y191410D01*
X46427D01*
X46589Y191302D01*
Y189858D01*
X46369Y189711D01*
X45869Y188963D01*
X45694Y188080D01*
X45869Y187197D01*
X46369Y186449D01*
X46589Y186302D01*
Y184858D01*
X46369Y184711D01*
X45869Y183963D01*
X45736Y183295D01*
X45077Y182928D01*
X44459Y182776D01*
X43958Y183277D01*
X42464Y183896D01*
X40848D01*
X39354Y183277D01*
X38211Y182134D01*
X37592Y180640D01*
Y179024D01*
X37862Y178371D01*
X32337Y172846D01*
X4572D01*
X3406Y172362D01*
X-2096Y166861D01*
X-2748Y167131D01*
X-4365D01*
X-5859Y166513D01*
X-7002Y165369D01*
X-7621Y163876D01*
Y162259D01*
X-7002Y160765D01*
X-5859Y159622D01*
X-4365Y159003D01*
X-2748D01*
X-1255Y159622D01*
X-111Y160765D01*
X507Y162259D01*
Y163876D01*
X237Y164528D01*
X5255Y169546D01*
X12509D01*
X13036Y168276D01*
X11334Y166574D01*
X10850Y165408D01*
Y149183D01*
X10722Y148991D01*
X9278D01*
X9131Y149211D01*
X8383Y149711D01*
X7500Y149886D01*
X6617Y149711D01*
X5869Y149211D01*
X5722Y148991D01*
X4278D01*
X4131Y149211D01*
X3383Y149711D01*
X2500Y149886D01*
X1617Y149711D01*
X869Y149211D01*
X722Y148991D01*
X-722D01*
X-869Y149211D01*
X-1617Y149711D01*
X-2500Y149886D01*
X-3383Y149711D01*
X-4131Y149211D01*
X-4278Y148991D01*
X-5722D01*
X-5869Y149211D01*
X-6617Y149711D01*
X-7500Y149886D01*
X-8383Y149711D01*
X-9131Y149211D01*
X-9278Y148991D01*
X-10722D01*
X-10869Y149211D01*
X-11617Y149711D01*
X-12500Y149886D01*
X-13383Y149711D01*
X-14131Y149211D01*
X-14278Y148991D01*
X-15722Y148991D01*
X-15850Y149183D01*
Y151528D01*
X-16029Y151960D01*
X-15859Y152130D01*
X-15240Y153624D01*
Y155240D01*
X-15859Y156734D01*
X-17002Y157877D01*
X-18496Y158496D01*
X-20112D01*
X-21606Y157877D01*
X-22749Y156734D01*
X-23368Y155240D01*
Y153624D01*
X-22749Y152130D01*
X-21780Y151161D01*
X-21606Y150987D01*
X-22054Y149798D01*
X-22500Y149886D01*
X-23383Y149711D01*
X-24131Y149211D01*
X-24158Y149170D01*
X-25428Y149555D01*
Y152468D01*
X-25574Y153203D01*
X-25400Y153624D01*
Y155240D01*
X-26019Y156734D01*
X-27162Y157877D01*
X-28656Y158496D01*
X-30272D01*
X-31766Y157877D01*
X-32909Y156734D01*
X-33154Y156144D01*
X-34652Y155846D01*
X-35043Y156237D01*
X-35410Y157122D01*
X-36576Y157606D01*
X-37742Y157122D01*
X-38226Y155956D01*
Y155437D01*
X-37742Y154271D01*
X-34150Y150678D01*
Y149518D01*
X-35225Y148964D01*
X-35910Y149473D01*
Y149827D01*
X-36393Y150994D01*
X-37441Y152042D01*
X-38608Y152526D01*
X-44036D01*
X-44307Y153178D01*
X-45450Y154321D01*
X-46777Y154871D01*
X-46961Y155526D01*
X-46981Y156210D01*
X-46623Y156449D01*
X-46123Y157197D01*
X-45948Y158080D01*
X-46123Y158963D01*
X-46623Y159711D01*
X-46843Y159858D01*
Y161302D01*
X-46623Y161449D01*
X-46123Y162197D01*
X-45948Y163080D01*
X-46123Y163963D01*
X-46623Y164711D01*
X-46152Y165917D01*
X-45627Y166430D01*
X-17395D01*
X-16228Y166914D01*
X-13138Y170004D01*
X-12950Y169926D01*
X-11434D01*
X-10034Y170506D01*
X-8962Y171578D01*
X-8382Y172978D01*
Y174494D01*
X-8962Y175894D01*
X-10034Y176966D01*
X-11434Y177546D01*
X-12950D01*
X-14350Y176966D01*
X-15422Y175894D01*
X-16002Y174494D01*
Y172978D01*
X-15659Y172149D01*
X-18078Y169730D01*
X-26572D01*
X-26749Y170050D01*
X-26961Y171000D01*
X-26019Y171942D01*
X-25400Y173436D01*
Y175052D01*
X-26019Y176546D01*
X-27162Y177689D01*
X-28656Y178308D01*
X-30272D01*
X-31766Y177689D01*
X-32909Y176546D01*
X-33528Y175052D01*
Y173436D01*
X-32909Y171942D01*
X-31967Y171000D01*
X-32179Y170050D01*
X-32356Y169730D01*
X-46651D01*
X-47371Y170211D01*
X-48254Y170386D01*
X-54956D01*
X-55209Y171656D01*
X-54594Y171911D01*
X-54587Y171914D01*
X-54104Y173080D01*
X-54587Y174247D01*
X-54594Y174249D01*
X-55209Y174504D01*
X-54956Y175774D01*
X-48254D01*
X-47371Y175949D01*
X-46623Y176449D01*
X-46123Y177197D01*
X-45948Y178080D01*
X-46123Y178963D01*
X-46623Y179711D01*
X-46843Y179858D01*
Y181302D01*
X-46623Y181449D01*
X-46123Y182197D01*
X-45948Y183080D01*
X-46123Y183963D01*
X-46623Y184711D01*
X-46843Y184858D01*
Y186302D01*
X-46623Y186449D01*
X-46123Y187197D01*
X-45948Y188080D01*
X-46123Y188963D01*
X-46623Y189711D01*
X-46843Y189858D01*
Y191302D01*
X-46623Y191449D01*
X-46123Y192197D01*
X-45948Y193080D01*
X-46123Y193963D01*
X-46623Y194711D01*
X-46152Y195917D01*
X-45627Y196430D01*
X-33568D01*
X-32402Y196914D01*
X-25758Y203558D01*
X-25274Y204724D01*
Y208903D01*
X-24766Y209114D01*
X-23694Y210186D01*
X-23114Y211586D01*
Y213102D01*
X-23694Y214502D01*
X-24766Y215574D01*
X-26166Y216154D01*
X-27682D01*
X-29082Y215574D01*
X-30154Y214502D01*
X-30734Y213102D01*
Y211586D01*
X-30154Y210186D01*
X-29082Y209114D01*
X-28574Y208903D01*
Y205407D01*
X-34251Y199730D01*
X-46651D01*
X-46843Y199858D01*
Y201302D01*
X-46623Y201449D01*
X-46123Y202197D01*
X-45948Y203080D01*
X-46123Y203963D01*
X-46623Y204711D01*
X-46843Y204858D01*
Y206302D01*
X-46623Y206449D01*
X-46123Y207197D01*
X-45948Y208080D01*
X-46123Y208963D01*
X-46623Y209711D01*
X-46843Y209858D01*
Y211302D01*
X-46623Y211449D01*
X-46123Y212197D01*
X-45948Y213080D01*
X-46123Y213963D01*
X-46623Y214711D01*
X-46843Y214858D01*
Y216302D01*
X-46623Y216449D01*
X-46123Y217197D01*
X-45948Y218080D01*
X-46123Y218963D01*
X-46623Y219711D01*
X-46843Y219858D01*
Y221302D01*
X-46623Y221449D01*
X-46123Y222197D01*
X-45948Y223080D01*
X-46123Y223963D01*
X-46623Y224711D01*
X-46843Y224858D01*
Y226302D01*
X-46623Y226449D01*
X-46123Y227197D01*
X-45948Y228080D01*
X-46123Y228963D01*
X-46623Y229711D01*
X-46843Y229858D01*
Y231302D01*
X-46623Y231449D01*
X-46123Y232197D01*
X-45948Y233080D01*
X-46123Y233963D01*
X-46623Y234711D01*
X-47371Y235211D01*
X-48254Y235386D01*
X-63254D01*
X-64137Y235211D01*
X-64885Y234711D01*
X-65385Y233963D01*
X-65560Y233080D01*
X-65385Y232197D01*
X-64885Y231449D01*
X-64665Y231302D01*
Y229858D01*
X-64885Y229711D01*
X-65385Y228963D01*
X-65560Y228080D01*
X-65385Y227197D01*
X-64885Y226449D01*
X-64665Y226302D01*
Y224858D01*
X-64885Y224711D01*
X-65385Y223963D01*
X-65560Y223080D01*
X-65385Y222197D01*
X-64885Y221449D01*
X-64665Y221302D01*
Y219858D01*
X-64885Y219711D01*
X-65385Y218963D01*
X-65560Y218080D01*
X-65385Y217197D01*
X-64885Y216449D01*
X-64665Y216302D01*
Y214858D01*
X-64857Y214729D01*
X-70104Y214729D01*
X-70232Y214677D01*
X-72259Y214943D01*
X-74267Y215775D01*
X-75992Y217098D01*
X-77315Y218823D01*
X-78147Y220831D01*
X-78414Y222858D01*
X-78361Y222986D01*
Y227076D01*
X-78360Y260708D01*
X-76748D01*
X-76326Y259613D01*
Y249428D01*
Y237236D01*
X-75842Y236070D01*
X-74676Y235586D01*
X-73510Y236070D01*
X-73026Y237236D01*
Y249428D01*
Y262636D01*
X-73098Y262808D01*
X-73365Y265524D01*
X-74208Y268301D01*
X-75575Y270860D01*
X-77417Y273104D01*
X-79660Y274944D01*
X-82219Y276313D01*
X-84996Y277155D01*
X-87712Y277422D01*
X-87884Y277494D01*
X-114635D01*
X-115031Y277758D01*
X-115824Y277916D01*
D02*
G37*
G36*
X-139446Y271107D02*
X-144314D01*
Y224790D01*
X-139446D01*
Y271107D01*
D02*
G37*
G36*
X84328Y247436D02*
X83535Y247278D01*
X82863Y246829D01*
X82414Y246157D01*
X82256Y245364D01*
X82347Y244909D01*
Y237580D01*
X82347Y237580D01*
X82365Y237489D01*
X82347Y237399D01*
X82347Y237398D01*
Y232611D01*
X82256Y232156D01*
X82347Y231701D01*
Y226150D01*
X82347Y226150D01*
X82505Y225357D01*
X82954Y224685D01*
X83044Y224594D01*
X83716Y224145D01*
X84509Y223987D01*
X85302Y224145D01*
X85974Y224594D01*
X86423Y225266D01*
X86581Y226059D01*
X86490Y226515D01*
Y232065D01*
X86490Y232065D01*
X86472Y232156D01*
X86490Y232247D01*
X86490Y232247D01*
Y237034D01*
X86581Y237489D01*
X86490Y237945D01*
Y245273D01*
X86490Y245273D01*
X86333Y246066D01*
X85884Y246738D01*
X85793Y246829D01*
X85121Y247278D01*
X84328Y247436D01*
D02*
G37*
G36*
X97314Y231351D02*
X95697D01*
X94203Y230732D01*
X93060Y229589D01*
X92441Y228095D01*
Y226478D01*
X93060Y224985D01*
X94203Y223841D01*
X95697Y223223D01*
X97314D01*
X98807Y223841D01*
X99951Y224985D01*
X100569Y226478D01*
Y228095D01*
X99951Y229589D01*
X98807Y230732D01*
X97314Y231351D01*
D02*
G37*
G36*
X12768Y224717D02*
X11252D01*
X9852Y224137D01*
X8780Y223065D01*
X8200Y221665D01*
Y220149D01*
X8780Y218749D01*
X9852Y217677D01*
X11252Y217097D01*
X12768D01*
X14168Y217677D01*
X15240Y218749D01*
X15820Y220149D01*
Y221665D01*
X15240Y223065D01*
X14168Y224137D01*
X12768Y224717D01*
D02*
G37*
G36*
X97400Y219964D02*
X95784D01*
X94290Y219345D01*
X93147Y218202D01*
X92528Y216708D01*
Y215092D01*
X93147Y213598D01*
X94290Y212455D01*
X95784Y211836D01*
X97400D01*
X98894Y212455D01*
X100037Y213598D01*
X100656Y215092D01*
Y216708D01*
X100037Y218202D01*
X98894Y219345D01*
X97400Y219964D01*
D02*
G37*
G36*
X-92379Y208660D02*
X-99060D01*
X-100226Y208176D01*
X-100710Y207010D01*
X-100226Y205844D01*
X-99060Y205360D01*
X-92379D01*
X-91213Y205844D01*
X-90730Y207010D01*
X-91213Y208176D01*
X-92379Y208660D01*
D02*
G37*
G36*
X147718Y218198D02*
X133194D01*
Y205174D01*
X147718D01*
Y218198D01*
D02*
G37*
G36*
X97227Y207937D02*
X95611D01*
X94117Y207318D01*
X92973Y206175D01*
X92355Y204682D01*
Y203065D01*
X92973Y201571D01*
X94117Y200428D01*
X95611Y199809D01*
X97227D01*
X98721Y200428D01*
X99864Y201571D01*
X100483Y203065D01*
Y204682D01*
X99864Y206175D01*
X98721Y207318D01*
X97227Y207937D01*
D02*
G37*
G36*
X-59136Y261620D02*
X-60752D01*
X-62246Y261001D01*
X-63389Y259858D01*
X-64008Y258364D01*
Y256748D01*
X-63389Y255254D01*
X-62246Y254111D01*
X-60752Y253492D01*
X-59136D01*
X-58905Y253587D01*
X-12060Y206742D01*
X-12060Y206742D01*
X-11388Y206293D01*
X-10595Y206135D01*
X5745D01*
X8925Y202955D01*
X8889Y202869D01*
Y201353D01*
X9469Y199953D01*
X10541Y198881D01*
X11941Y198301D01*
X13457D01*
X14857Y198881D01*
X15929Y199953D01*
X16509Y201353D01*
Y202869D01*
X15929Y204269D01*
X14857Y205341D01*
X13457Y205921D01*
X11941D01*
X11855Y205885D01*
X8069Y209672D01*
X7397Y210121D01*
X6604Y210279D01*
X6604Y210279D01*
X-9737D01*
X-55975Y256517D01*
X-55880Y256748D01*
Y258364D01*
X-56499Y259858D01*
X-57642Y261001D01*
X-59136Y261620D01*
D02*
G37*
G36*
X-98252Y199644D02*
X-99868D01*
X-101362Y199025D01*
X-102505Y197882D01*
X-103124Y196388D01*
Y194772D01*
X-102505Y193278D01*
X-101362Y192135D01*
X-99868Y191516D01*
X-98252D01*
X-96758Y192135D01*
X-96161Y192731D01*
X-94891Y192319D01*
Y192319D01*
X-89367D01*
Y198843D01*
X-94891D01*
Y198843D01*
X-96161Y198429D01*
X-96758Y199025D01*
X-98252Y199644D01*
D02*
G37*
G36*
X140508Y196088D02*
X138892D01*
X137398Y195469D01*
X136255Y194326D01*
X135636Y192832D01*
Y191216D01*
X136255Y189722D01*
X137398Y188579D01*
X138892Y187960D01*
X140508D01*
X142002Y188579D01*
X143145Y189722D01*
X143764Y191216D01*
Y192832D01*
X143145Y194326D01*
X142002Y195469D01*
X140508Y196088D01*
D02*
G37*
G36*
X-90124Y190500D02*
X-91740D01*
X-93234Y189881D01*
X-94377Y188738D01*
X-94996Y187244D01*
Y185628D01*
X-94377Y184134D01*
X-93234Y182991D01*
X-91740Y182372D01*
X-90124D01*
X-88630Y182991D01*
X-87487Y184134D01*
X-86868Y185628D01*
Y187244D01*
X-87487Y188738D01*
X-88630Y189881D01*
X-90124Y190500D01*
D02*
G37*
G36*
X97328Y194056D02*
X95712D01*
X94218Y193437D01*
X93075Y192294D01*
X92456Y190800D01*
Y189184D01*
X93075Y187690D01*
X94218Y186547D01*
X94870Y186276D01*
Y182745D01*
X93600Y182214D01*
X93472Y182341D01*
Y183688D01*
X92853Y185182D01*
X91710Y186325D01*
X90216Y186944D01*
X88600D01*
X87106Y186325D01*
X86922Y186141D01*
X81747D01*
Y179617D01*
X81747Y179617D01*
X81747D01*
X81510Y179290D01*
X81391Y179125D01*
X81171Y178594D01*
X80772Y177632D01*
Y176015D01*
X81391Y174521D01*
X82001Y173911D01*
Y167425D01*
X87525D01*
Y173765D01*
X88281Y174521D01*
X88900Y176015D01*
Y177631D01*
X89260Y178113D01*
X90173Y178208D01*
X91314Y177191D01*
Y161719D01*
X89994Y160399D01*
X87271D01*
Y162011D01*
X81747D01*
Y155487D01*
X87271D01*
Y157100D01*
X90677D01*
X91844Y157583D01*
X93600Y159340D01*
X94870Y158813D01*
Y149860D01*
X95354Y148694D01*
X99417Y144630D01*
X100583Y144147D01*
X115675D01*
Y142535D01*
X121199D01*
Y149059D01*
X115675D01*
Y147446D01*
X101266D01*
X98170Y150543D01*
Y186276D01*
X98822Y186547D01*
X99965Y187690D01*
X100584Y189184D01*
Y190800D01*
X99965Y192294D01*
X98822Y193437D01*
X97328Y194056D01*
D02*
G37*
G36*
X13530Y186109D02*
X12014D01*
X10614Y185529D01*
X9542Y184457D01*
X8962Y183057D01*
Y181541D01*
X9542Y180141D01*
X10614Y179069D01*
X12014Y178489D01*
X13530D01*
X14930Y179069D01*
X16002Y180141D01*
X16582Y181541D01*
Y183057D01*
X16002Y184457D01*
X14930Y185529D01*
X13530Y186109D01*
D02*
G37*
G36*
X147718Y184698D02*
X133194D01*
Y171674D01*
X147718D01*
Y184698D01*
D02*
G37*
G36*
X-92383Y180381D02*
X-93176Y180223D01*
X-93848Y179774D01*
X-93885Y179737D01*
X-94334Y179065D01*
X-94491Y178272D01*
X-94491Y178272D01*
Y170871D01*
X-94528Y170688D01*
X-94370Y169895D01*
X-93921Y169223D01*
X-93249Y168774D01*
X-92456Y168616D01*
X-91663Y168774D01*
X-90991Y169223D01*
X-90955Y169259D01*
X-90506Y169932D01*
X-90348Y170724D01*
X-90348Y170725D01*
Y178126D01*
X-90311Y178309D01*
X-90469Y179102D01*
X-90918Y179774D01*
X-91590Y180223D01*
X-92383Y180381D01*
D02*
G37*
G36*
X119606Y158858D02*
X117989D01*
X116495Y158239D01*
X115352Y157096D01*
X114733Y155602D01*
Y153985D01*
X115352Y152492D01*
X116495Y151348D01*
X117989Y150730D01*
X119606D01*
X121099Y151348D01*
X122242Y152492D01*
X122861Y153985D01*
Y155602D01*
X122242Y157096D01*
X121099Y158239D01*
X119606Y158858D01*
D02*
G37*
G36*
X-118064Y157988D02*
X-119680D01*
X-121174Y157369D01*
X-122317Y156226D01*
X-122936Y154732D01*
Y153116D01*
X-122317Y151622D01*
X-121174Y150479D01*
X-119680Y149860D01*
X-118064D01*
X-116570Y150479D01*
X-115427Y151622D01*
X-114808Y153116D01*
Y154732D01*
X-115427Y156226D01*
X-116570Y157369D01*
X-118064Y157988D01*
D02*
G37*
G36*
X142772Y149558D02*
X135748D01*
Y147446D01*
X129699D01*
Y149059D01*
X124175D01*
Y142535D01*
X129699D01*
Y144146D01*
X135748D01*
Y142034D01*
X142772D01*
Y149558D01*
D02*
G37*
G36*
X90216Y151384D02*
X88600D01*
X87106Y150765D01*
X86922Y150581D01*
X81747D01*
Y144057D01*
X86923D01*
X87106Y143875D01*
X88600Y143256D01*
X90216D01*
X91710Y143875D01*
X92853Y145018D01*
X93472Y146512D01*
Y148128D01*
X92853Y149622D01*
X91710Y150765D01*
X90216Y151384D01*
D02*
G37*
G36*
X-73646Y146953D02*
X-75263D01*
X-76757Y146334D01*
X-77900Y145191D01*
X-78519Y143698D01*
Y142081D01*
X-77900Y140587D01*
X-76757Y139444D01*
X-75263Y138825D01*
X-73646D01*
X-72153Y139444D01*
X-71009Y140587D01*
X-70391Y142081D01*
Y143698D01*
X-71009Y145191D01*
X-72153Y146334D01*
X-73646Y146953D01*
D02*
G37*
G36*
X-145012Y143860D02*
X-146628D01*
X-148122Y143241D01*
X-149265Y142098D01*
X-149884Y140604D01*
Y138988D01*
X-149265Y137494D01*
X-148122Y136351D01*
X-146628Y135732D01*
X-145012D01*
X-143518Y136351D01*
X-142375Y137494D01*
X-141756Y138988D01*
Y140604D01*
X-142375Y142098D01*
X-143518Y143241D01*
X-145012Y143860D01*
D02*
G37*
G36*
X-86801Y133095D02*
X-88418D01*
X-89911Y132477D01*
X-91054Y131333D01*
X-91673Y129840D01*
Y128223D01*
X-91054Y126729D01*
X-89911Y125586D01*
X-88418Y124967D01*
X-86801D01*
X-85307Y125586D01*
X-84164Y126729D01*
X-83545Y128223D01*
Y129840D01*
X-84164Y131333D01*
X-85307Y132477D01*
X-86801Y133095D01*
D02*
G37*
G36*
X121189Y136865D02*
X115665D01*
Y130341D01*
X115071Y129317D01*
X114891Y129138D01*
X114273Y127644D01*
Y126027D01*
X114891Y124534D01*
X115199Y124226D01*
X115665Y123149D01*
X115665Y123149D01*
X115665D01*
X115665Y123149D01*
Y116625D01*
X121189D01*
Y123149D01*
X121189Y123149D01*
X121189D01*
X121189Y123149D01*
X121527Y124279D01*
X121782Y124534D01*
X122401Y126027D01*
Y127644D01*
X121782Y129138D01*
X121656Y129264D01*
X121189Y130341D01*
X121189Y130341D01*
X121189D01*
X121189Y130341D01*
Y136865D01*
D02*
G37*
G36*
X129689D02*
X124165D01*
Y130341D01*
X129689D01*
Y131954D01*
X135970D01*
X137415Y130508D01*
X136889Y129238D01*
X136002D01*
Y122807D01*
X136002Y121714D01*
X134805Y121537D01*
X129689D01*
Y123149D01*
X124165D01*
Y116625D01*
X129689D01*
Y118238D01*
X135462D01*
X137864Y115835D01*
Y109934D01*
X136002D01*
Y102410D01*
X143026D01*
Y109934D01*
X141164D01*
Y116518D01*
X140680Y117684D01*
X137921Y120444D01*
X138447Y121714D01*
X143026D01*
Y129238D01*
X141164D01*
Y130742D01*
X140680Y131908D01*
X137819Y134770D01*
X136653Y135253D01*
X129689D01*
Y136865D01*
D02*
G37*
G36*
X-127208Y126492D02*
X-128824D01*
X-130318Y125873D01*
X-131461Y124730D01*
X-132080Y123236D01*
Y121620D01*
X-131461Y120126D01*
X-130318Y118983D01*
X-128824Y118364D01*
X-127208D01*
X-125714Y118983D01*
X-124571Y120126D01*
X-123952Y121620D01*
Y123236D01*
X-124571Y124730D01*
X-125714Y125873D01*
X-127208Y126492D01*
D02*
G37*
G36*
X89200Y118364D02*
X87584D01*
X86090Y117745D01*
X84947Y116602D01*
X84328Y115108D01*
Y113492D01*
X84947Y111998D01*
X86090Y110855D01*
X87584Y110236D01*
X89200D01*
X90694Y110855D01*
X91522Y111683D01*
X92636Y110569D01*
Y108203D01*
X92475Y108095D01*
X91920Y107264D01*
X91725Y106284D01*
Y96784D01*
X91920Y95804D01*
X92475Y94973D01*
X93306Y94418D01*
X94286Y94223D01*
X95266Y94418D01*
X96097Y94973D01*
X96652Y95804D01*
X96847Y96784D01*
Y106284D01*
X96652Y107264D01*
X96097Y108095D01*
X95936Y108203D01*
Y111252D01*
X95452Y112418D01*
X93182Y114689D01*
X92456Y114990D01*
Y115108D01*
X91837Y116602D01*
X90694Y117745D01*
X89200Y118364D01*
D02*
G37*
G36*
X52624Y117094D02*
X51008D01*
X49514Y116475D01*
X48371Y115332D01*
X47752Y113838D01*
Y112222D01*
X48371Y110728D01*
X49514Y109585D01*
X51008Y108966D01*
X52276D01*
X52324Y108915D01*
X52879Y107895D01*
X52903Y107793D01*
X52550Y107264D01*
X52355Y106284D01*
Y96784D01*
X52550Y95804D01*
X53105Y94973D01*
X53936Y94418D01*
X54916Y94223D01*
X55896Y94418D01*
X56727Y94973D01*
X57282Y95804D01*
X57477Y96784D01*
Y106284D01*
X57282Y107264D01*
X56727Y108095D01*
X56566Y108203D01*
Y110184D01*
X56082Y111350D01*
X55684Y111749D01*
X55880Y112222D01*
Y113838D01*
X55261Y115332D01*
X54118Y116475D01*
X52624Y117094D01*
D02*
G37*
G36*
X70428Y108796D02*
X65404D01*
Y94272D01*
X66266D01*
Y89427D01*
X65186Y88347D01*
X64357Y88492D01*
X63514Y89785D01*
X63540Y89916D01*
X63540Y89916D01*
Y101482D01*
X63540Y101482D01*
X63382Y102275D01*
X62933Y102947D01*
X62881Y102999D01*
X62209Y103448D01*
X61416Y103606D01*
X60623Y103448D01*
X59951Y102999D01*
X59502Y102327D01*
X59344Y101534D01*
X59396Y101272D01*
Y90972D01*
X51150D01*
X50488Y91634D01*
Y101534D01*
X50330Y102327D01*
X49881Y102999D01*
X49209Y103448D01*
X48416Y103606D01*
X47623Y103448D01*
X46951Y102999D01*
X46502Y102327D01*
X46344Y101534D01*
Y90776D01*
X46344Y90776D01*
X46502Y89983D01*
X46951Y89311D01*
X48827Y87435D01*
X49499Y86986D01*
X50292Y86828D01*
X50292Y86828D01*
X58823D01*
X58864Y86798D01*
X59567Y85558D01*
X59182Y84628D01*
Y83012D01*
X59801Y81518D01*
X60944Y80375D01*
X62438Y79756D01*
X64054D01*
X65548Y80375D01*
X66691Y81518D01*
X67310Y83012D01*
Y84628D01*
X66965Y85461D01*
X69082Y87577D01*
X69566Y88744D01*
Y94272D01*
X70428D01*
Y108796D01*
D02*
G37*
G36*
X109798D02*
X104774D01*
Y94272D01*
X105636D01*
Y89173D01*
X104077Y87614D01*
X103424Y87884D01*
X101808D01*
X101716Y87846D01*
X100997Y88923D01*
X102251Y90177D01*
X102251Y90177D01*
X102700Y90849D01*
X102858Y91642D01*
X102858Y91642D01*
Y101534D01*
X102700Y102327D01*
X102251Y102999D01*
X101579Y103448D01*
X100786Y103606D01*
X99993Y103448D01*
X99321Y102999D01*
X98872Y102327D01*
X98714Y101534D01*
Y92500D01*
X97730Y91516D01*
X95371D01*
X95281Y91576D01*
X94488Y91734D01*
X93695Y91576D01*
X93551Y91480D01*
X90774D01*
X89858Y92396D01*
Y101534D01*
X89700Y102327D01*
X89251Y102999D01*
X88579Y103448D01*
X87786Y103606D01*
X86993Y103448D01*
X86321Y102999D01*
X85872Y102327D01*
X85714Y101534D01*
Y91538D01*
X85714Y91538D01*
X85872Y90745D01*
X86321Y90073D01*
X88451Y87943D01*
X88451Y87943D01*
X89123Y87494D01*
X89916Y87336D01*
X89916Y87336D01*
X94234D01*
X94234Y87336D01*
X94470Y87383D01*
X94524Y87372D01*
X98588D01*
X98588Y87372D01*
X98634Y87381D01*
X99260Y86211D01*
X99171Y86122D01*
X98552Y84628D01*
Y83012D01*
X99171Y81518D01*
X100314Y80375D01*
X101808Y79756D01*
X103424D01*
X104918Y80375D01*
X106061Y81518D01*
X106680Y83012D01*
Y84628D01*
X106410Y85281D01*
X108452Y87324D01*
X108936Y88490D01*
Y94272D01*
X109798D01*
Y108796D01*
D02*
G37*
G36*
X-87052D02*
X-92076D01*
Y94272D01*
X-91214D01*
Y89587D01*
X-93289Y87512D01*
X-94188Y87884D01*
X-94440D01*
X-94966Y89154D01*
X-94599Y89521D01*
X-94599Y89521D01*
X-94150Y90193D01*
X-93992Y90986D01*
X-93992Y90986D01*
Y101534D01*
X-93992Y101534D01*
X-94150Y102327D01*
X-94599Y102999D01*
X-95271Y103448D01*
X-96064Y103606D01*
X-96857Y103448D01*
X-97529Y102999D01*
X-97978Y102327D01*
X-98136Y101534D01*
X-98136Y101534D01*
Y91844D01*
X-99427Y90553D01*
X-102143D01*
X-102844Y90692D01*
X-102845Y90692D01*
X-105666D01*
X-106992Y92019D01*
Y101534D01*
X-107150Y102327D01*
X-107599Y102999D01*
X-108271Y103448D01*
X-109064Y103606D01*
X-109857Y103448D01*
X-110529Y102999D01*
X-110978Y102327D01*
X-111136Y101534D01*
Y91161D01*
X-111136Y91161D01*
X-110978Y90368D01*
X-110529Y89696D01*
X-107989Y87156D01*
X-107317Y86706D01*
X-106524Y86549D01*
X-106524Y86549D01*
X-103515D01*
X-103409Y86478D01*
X-102616Y86320D01*
X-102169Y86409D01*
X-99697D01*
X-98848Y85139D01*
X-99060Y84628D01*
Y83012D01*
X-98441Y81518D01*
X-97298Y80375D01*
X-95804Y79756D01*
X-94188D01*
X-92694Y80375D01*
X-91551Y81518D01*
X-90932Y83012D01*
Y84628D01*
X-91100Y85035D01*
X-88398Y87737D01*
X-87914Y88904D01*
Y94272D01*
X-87052D01*
Y108796D01*
D02*
G37*
G36*
X-47682D02*
X-52706D01*
Y94272D01*
X-51844D01*
Y88581D01*
X-53134Y87292D01*
X-54564Y87884D01*
X-56180D01*
X-57674Y87265D01*
X-58817Y86122D01*
X-59436Y84628D01*
Y83012D01*
X-58817Y81518D01*
X-57674Y80375D01*
X-56180Y79756D01*
X-54564D01*
X-53070Y80375D01*
X-51927Y81518D01*
X-51308Y83012D01*
Y84451D01*
X-49028Y86732D01*
X-48544Y87898D01*
Y94272D01*
X-47682D01*
Y108796D01*
D02*
G37*
G36*
X-136860Y88900D02*
X-138476D01*
X-139970Y88281D01*
X-141113Y87138D01*
X-141732Y85644D01*
Y84028D01*
X-141113Y82534D01*
X-139970Y81391D01*
X-138476Y80772D01*
X-136860D01*
X-135366Y81391D01*
X-134223Y82534D01*
X-133604Y84028D01*
Y85644D01*
X-134223Y87138D01*
X-135366Y88281D01*
X-136860Y88900D01*
D02*
G37*
G36*
X31058Y108796D02*
X26034D01*
Y94272D01*
X26896D01*
Y89427D01*
X25353Y87884D01*
X24338D01*
X22844Y87265D01*
X21701Y86122D01*
X21082Y84628D01*
Y83012D01*
X21701Y81518D01*
X22844Y80375D01*
X24338Y79756D01*
X25954D01*
X27448Y80375D01*
X28591Y81518D01*
X29210Y83012D01*
Y84628D01*
X28591Y86122D01*
X28424Y86289D01*
X29712Y87578D01*
X30196Y88744D01*
Y94272D01*
X31058D01*
Y108796D01*
D02*
G37*
G36*
X-8312D02*
X-13336D01*
Y94272D01*
X-12474D01*
Y89427D01*
X-14017Y87884D01*
X-15032D01*
X-16526Y87265D01*
X-17669Y86122D01*
X-18288Y84628D01*
Y83012D01*
X-17669Y81518D01*
X-16526Y80375D01*
X-15032Y79756D01*
X-13416D01*
X-11922Y80375D01*
X-10779Y81518D01*
X-10160Y83012D01*
Y84628D01*
X-10779Y86122D01*
X-10946Y86289D01*
X-9658Y87578D01*
X-9174Y88744D01*
Y94272D01*
X-8312D01*
Y108796D01*
D02*
G37*
G36*
X-3764Y78232D02*
X-5380D01*
X-6874Y77613D01*
X-8017Y76470D01*
X-8303Y75781D01*
X-8672D01*
X-9839Y75298D01*
X-11990Y73146D01*
X-12474Y71980D01*
Y68203D01*
X-12635Y68095D01*
X-13190Y67264D01*
X-13385Y66284D01*
Y56784D01*
X-13190Y55804D01*
X-12635Y54973D01*
X-11804Y54418D01*
X-10824Y54223D01*
X-9844Y54418D01*
X-9013Y54973D01*
X-8458Y55804D01*
X-8263Y56784D01*
Y66284D01*
X-8458Y67264D01*
X-9013Y68095D01*
X-9174Y68203D01*
Y70998D01*
X-8151Y71892D01*
X-8017Y71866D01*
X-6874Y70723D01*
X-5380Y70104D01*
X-3764D01*
X-2270Y70723D01*
X-1127Y71866D01*
X-508Y73360D01*
Y74976D01*
X-1127Y76470D01*
X-2270Y77613D01*
X-3764Y78232D01*
D02*
G37*
G36*
X-42880D02*
X-44496D01*
X-45990Y77613D01*
X-47133Y76470D01*
X-47418Y75781D01*
X-47788D01*
X-48955Y75298D01*
X-51206Y73046D01*
X-51690Y71880D01*
Y68306D01*
X-52005Y68095D01*
X-52560Y67264D01*
X-52755Y66284D01*
Y56784D01*
X-52560Y55804D01*
X-52005Y54973D01*
X-51174Y54418D01*
X-50194Y54223D01*
X-49214Y54418D01*
X-48383Y54973D01*
X-47828Y55804D01*
X-47633Y56784D01*
Y66284D01*
X-47828Y67264D01*
X-48383Y68095D01*
X-48390Y68100D01*
Y71065D01*
X-47421Y71923D01*
X-47133Y71866D01*
X-45990Y70723D01*
X-44496Y70104D01*
X-42880D01*
X-41386Y70723D01*
X-40243Y71866D01*
X-39624Y73360D01*
Y74976D01*
X-40243Y76470D01*
X-41386Y77613D01*
X-42880Y78232D01*
D02*
G37*
G36*
X114600Y77724D02*
X112984D01*
X111490Y77105D01*
X110347Y75962D01*
X110272Y75781D01*
X109692D01*
X108525Y75298D01*
X106274Y73046D01*
X105791Y71880D01*
Y68306D01*
X105475Y68095D01*
X104920Y67264D01*
X104725Y66284D01*
Y56784D01*
X104920Y55804D01*
X105475Y54973D01*
X106306Y54418D01*
X107286Y54223D01*
X108266Y54418D01*
X109097Y54973D01*
X109652Y55804D01*
X109847Y56784D01*
Y66284D01*
X109652Y67264D01*
X109097Y68095D01*
X109090Y68100D01*
Y70358D01*
X110288Y71370D01*
X110347Y71358D01*
X111490Y70215D01*
X112984Y69596D01*
X114600D01*
X116094Y70215D01*
X117237Y71358D01*
X117856Y72852D01*
Y74468D01*
X117237Y75962D01*
X116094Y77105D01*
X114600Y77724D01*
D02*
G37*
G36*
X74976D02*
X73360D01*
X71866Y77105D01*
X70723Y75962D01*
X70648Y75781D01*
X70068D01*
X68902Y75298D01*
X66650Y73046D01*
X66167Y71880D01*
Y68136D01*
X66105Y68095D01*
X65550Y67264D01*
X65355Y66284D01*
Y56784D01*
X65550Y55804D01*
X66105Y54973D01*
X66936Y54418D01*
X67916Y54223D01*
X68896Y54418D01*
X69727Y54973D01*
X70282Y55804D01*
X70477Y56784D01*
Y66284D01*
X70282Y67264D01*
X69727Y68095D01*
X69466Y68270D01*
Y70358D01*
X70664Y71370D01*
X70723Y71358D01*
X71866Y70215D01*
X73360Y69596D01*
X74976D01*
X76470Y70215D01*
X77613Y71358D01*
X78232Y72852D01*
Y74468D01*
X77613Y75962D01*
X76470Y77105D01*
X74976Y77724D01*
D02*
G37*
G36*
X35860D02*
X34244D01*
X32750Y77105D01*
X31607Y75962D01*
X31532Y75781D01*
X30952D01*
X29785Y75298D01*
X27534Y73046D01*
X27050Y71880D01*
Y68306D01*
X26735Y68095D01*
X26180Y67264D01*
X25985Y66284D01*
Y56784D01*
X26180Y55804D01*
X26735Y54973D01*
X27566Y54418D01*
X28546Y54223D01*
X29526Y54418D01*
X30357Y54973D01*
X30912Y55804D01*
X31107Y56784D01*
Y66284D01*
X30912Y67264D01*
X30357Y68095D01*
X30350Y68100D01*
Y70358D01*
X31548Y71370D01*
X31607Y71358D01*
X32750Y70215D01*
X34244Y69596D01*
X35860D01*
X37354Y70215D01*
X38497Y71358D01*
X39116Y72852D01*
Y74468D01*
X38497Y75962D01*
X37354Y77105D01*
X35860Y77724D01*
D02*
G37*
G36*
X-83012Y77216D02*
X-84628D01*
X-86122Y76597D01*
X-87265Y75454D01*
X-87673Y74470D01*
X-88805Y74001D01*
X-90652Y72153D01*
X-91136Y70987D01*
Y68255D01*
X-91375Y68095D01*
X-91930Y67264D01*
X-92125Y66284D01*
Y56784D01*
X-91930Y55804D01*
X-91375Y54973D01*
X-90544Y54418D01*
X-89564Y54223D01*
X-88584Y54418D01*
X-87753Y54973D01*
X-87198Y55804D01*
X-87003Y56784D01*
Y66284D01*
X-87198Y67264D01*
X-87753Y68095D01*
X-87836Y68151D01*
Y69625D01*
X-86566Y70151D01*
X-86122Y69707D01*
X-84628Y69088D01*
X-83012D01*
X-81518Y69707D01*
X-80375Y70850D01*
X-79756Y72344D01*
Y73960D01*
X-80375Y75454D01*
X-81518Y76597D01*
X-83012Y77216D01*
D02*
G37*
G36*
X-143764Y73192D02*
X-144557Y73034D01*
X-145229Y72585D01*
X-145678Y71913D01*
X-145836Y71120D01*
Y65460D01*
X-145836Y65460D01*
X-145678Y64667D01*
X-145229Y63995D01*
X-145228Y63994D01*
X-144556Y63545D01*
X-143763Y63387D01*
X-142970Y63545D01*
X-142298Y63994D01*
X-142240Y64081D01*
X-140970Y63708D01*
X-140351Y62214D01*
X-139305Y61168D01*
X-139253Y60452D01*
X-139305Y59736D01*
X-139404Y59637D01*
X-140502Y59222D01*
X-140502Y59222D01*
X-147026D01*
Y53698D01*
X-146407D01*
Y49298D01*
X-148374D01*
Y38774D01*
X-138850D01*
Y49298D01*
X-140969D01*
Y52907D01*
X-139841Y53374D01*
X-139446Y53181D01*
X-139208Y52943D01*
X-137714Y52324D01*
X-136098D01*
X-134604Y52943D01*
X-133461Y54086D01*
X-132842Y55580D01*
Y57196D01*
X-133461Y58690D01*
X-134507Y59736D01*
X-134559Y60452D01*
X-134507Y61168D01*
X-133461Y62214D01*
X-133275Y62662D01*
X-127721D01*
Y62189D01*
X-121197D01*
Y67713D01*
X-127721D01*
Y66805D01*
X-133455D01*
X-133461Y66818D01*
X-134604Y67961D01*
X-136098Y68580D01*
X-137714D01*
X-139208Y67961D01*
X-140351Y66818D01*
X-140422Y66647D01*
X-141692Y66900D01*
Y71120D01*
X-141850Y71913D01*
X-142299Y72585D01*
X-142971Y73034D01*
X-143764Y73192D01*
D02*
G37*
G36*
X100584Y76240D02*
X99791Y76082D01*
X99119Y75633D01*
X98670Y74961D01*
X98512Y74168D01*
X98613Y73660D01*
Y61635D01*
X98613Y61635D01*
X98771Y60842D01*
X99220Y60170D01*
X99321Y60069D01*
X99993Y59620D01*
X100786Y59462D01*
X101579Y59620D01*
X102251Y60069D01*
X102700Y60741D01*
X102858Y61534D01*
X102757Y62042D01*
Y74067D01*
X102757Y74067D01*
X102599Y74860D01*
X102150Y75532D01*
X102049Y75633D01*
X101377Y76082D01*
X100584Y76240D01*
D02*
G37*
G36*
X61468Y75732D02*
X60675Y75574D01*
X60003Y75125D01*
X59977Y75099D01*
X59528Y74427D01*
X59370Y73634D01*
X59370Y73634D01*
Y61665D01*
X59344Y61534D01*
X59502Y60741D01*
X59951Y60069D01*
X60623Y59620D01*
X61416Y59462D01*
X62209Y59620D01*
X62881Y60069D01*
X62907Y60095D01*
X62907Y60095D01*
X63356Y60767D01*
X63514Y61560D01*
X63514Y61560D01*
Y73529D01*
X63540Y73660D01*
X63382Y74453D01*
X62933Y75125D01*
X62261Y75574D01*
X61468Y75732D01*
D02*
G37*
G36*
X9046Y103606D02*
X8253Y103448D01*
X7581Y102999D01*
X7132Y102327D01*
X6974Y101534D01*
X7023Y101288D01*
Y81837D01*
X7023Y81837D01*
X7033Y81788D01*
X7023Y81739D01*
X7023Y81739D01*
Y61780D01*
X6974Y61534D01*
X7132Y60741D01*
X7581Y60069D01*
X8253Y59620D01*
X9046Y59462D01*
X9839Y59620D01*
X10511Y60069D01*
X10560Y60118D01*
X11009Y60790D01*
X11167Y61583D01*
X11167Y61583D01*
Y81542D01*
X11216Y81788D01*
X11167Y82034D01*
Y101485D01*
X11167Y101485D01*
X11009Y102278D01*
X10560Y102950D01*
X10511Y102999D01*
X9839Y103448D01*
X9046Y103606D01*
D02*
G37*
G36*
X-30324D02*
X-31117Y103448D01*
X-31789Y102999D01*
X-31867Y102921D01*
X-32316Y102249D01*
X-32474Y101456D01*
X-32474Y101456D01*
Y82180D01*
X-32552Y81788D01*
X-32474Y81396D01*
Y61612D01*
X-32474Y61612D01*
X-32316Y60819D01*
X-31867Y60147D01*
X-31789Y60069D01*
X-31117Y59620D01*
X-30324Y59462D01*
X-29531Y59620D01*
X-28859Y60069D01*
X-28410Y60741D01*
X-28252Y61534D01*
X-28330Y61926D01*
Y81710D01*
X-28330Y81710D01*
X-28346Y81788D01*
X-28330Y81866D01*
X-28330Y81866D01*
Y101142D01*
X-28252Y101534D01*
X-28410Y102327D01*
X-28859Y102999D01*
X-29531Y103448D01*
X-30324Y103606D01*
D02*
G37*
G36*
X-96012Y75732D02*
X-96805Y75574D01*
X-97477Y75125D01*
X-97503Y75099D01*
X-97952Y74427D01*
X-98110Y73634D01*
X-98110Y73634D01*
Y61665D01*
X-98136Y61534D01*
X-97978Y60741D01*
X-97529Y60069D01*
X-96857Y59620D01*
X-96064Y59462D01*
X-95271Y59620D01*
X-94599Y60069D01*
X-94573Y60095D01*
X-94573Y60095D01*
X-94124Y60767D01*
X-93966Y61560D01*
Y73529D01*
X-93940Y73660D01*
X-94098Y74453D01*
X-94547Y75125D01*
X-95219Y75574D01*
X-96012Y75732D01*
D02*
G37*
G36*
X-69694Y103606D02*
X-70487Y103448D01*
X-71159Y102999D01*
X-71608Y102327D01*
X-71766Y101534D01*
X-71717Y101288D01*
Y77773D01*
X-71717Y77773D01*
X-71707Y77724D01*
X-71717Y77675D01*
X-71717Y77675D01*
Y61780D01*
X-71766Y61534D01*
X-71608Y60741D01*
X-71159Y60069D01*
X-70487Y59620D01*
X-69694Y59462D01*
X-68901Y59620D01*
X-68229Y60069D01*
X-68180Y60118D01*
X-67731Y60790D01*
X-67573Y61583D01*
X-67573Y61583D01*
Y77478D01*
X-67524Y77724D01*
X-67573Y77970D01*
Y101485D01*
X-67573Y101485D01*
X-67731Y102278D01*
X-68180Y102950D01*
X-68229Y102999D01*
X-68901Y103448D01*
X-69694Y103606D01*
D02*
G37*
G36*
X88692Y77724D02*
X87076D01*
X85582Y77105D01*
X84439Y75962D01*
X83820Y74468D01*
Y72852D01*
X84439Y71358D01*
X85582Y70215D01*
X86185Y69965D01*
Y68236D01*
X85975Y68095D01*
X85420Y67264D01*
X85225Y66284D01*
Y56784D01*
X85420Y55804D01*
X85975Y54973D01*
X86806Y54418D01*
X87786Y54223D01*
X88766Y54418D01*
X89597Y54973D01*
X90152Y55804D01*
X90347Y56784D01*
Y66284D01*
X90152Y67264D01*
X89597Y68095D01*
X89485Y68170D01*
Y69924D01*
X90186Y70215D01*
X91329Y71358D01*
X91948Y72852D01*
Y74468D01*
X91329Y75962D01*
X90186Y77105D01*
X88692Y77724D01*
D02*
G37*
G36*
X49576D02*
X47960D01*
X46466Y77105D01*
X45323Y75962D01*
X44704Y74468D01*
Y72852D01*
X45323Y71358D01*
X46466Y70215D01*
X46942Y70017D01*
Y68320D01*
X46605Y68095D01*
X46050Y67264D01*
X45855Y66284D01*
Y56784D01*
X46050Y55804D01*
X46605Y54973D01*
X47436Y54418D01*
X48416Y54223D01*
X49396Y54418D01*
X50227Y54973D01*
X50782Y55804D01*
X50977Y56784D01*
Y66284D01*
X50782Y67264D01*
X50242Y68073D01*
Y69872D01*
X51070Y70215D01*
X52213Y71358D01*
X52832Y72852D01*
Y74468D01*
X52213Y75962D01*
X51070Y77105D01*
X49576Y77724D01*
D02*
G37*
G36*
X-114508Y78232D02*
X-116124D01*
X-117618Y77613D01*
X-118761Y76470D01*
X-119380Y74976D01*
Y73360D01*
X-118761Y71866D01*
X-117618Y70723D01*
X-116124Y70104D01*
X-114508D01*
X-113014Y70723D01*
X-112475Y71262D01*
X-112062Y71292D01*
X-110792Y70111D01*
Y68151D01*
X-110875Y68095D01*
X-111430Y67264D01*
X-111625Y66284D01*
Y56784D01*
X-111430Y55804D01*
X-110875Y54973D01*
X-110044Y54418D01*
X-109064Y54223D01*
X-108084Y54418D01*
X-107253Y54973D01*
X-106698Y55804D01*
X-106503Y56784D01*
Y66284D01*
X-106698Y67264D01*
X-107253Y68095D01*
X-107492Y68255D01*
Y72058D01*
X-107976Y73224D01*
X-110049Y75298D01*
X-111216Y75781D01*
X-111586D01*
X-111871Y76470D01*
X-113014Y77613D01*
X-114508Y78232D01*
D02*
G37*
G36*
X22046Y68845D02*
X21066Y68650D01*
X20235Y68095D01*
X19680Y67264D01*
X19485Y66284D01*
Y56784D01*
X19680Y55804D01*
X20235Y54973D01*
X20702Y54661D01*
Y53340D01*
X21186Y52174D01*
X21639Y51720D01*
X21188Y50375D01*
X20617Y50296D01*
X17236Y53677D01*
X17308Y54941D01*
X17357Y54973D01*
X17912Y55804D01*
X18107Y56784D01*
Y66284D01*
X17912Y67264D01*
X17357Y68095D01*
X16526Y68650D01*
X15546Y68845D01*
X14566Y68650D01*
X13735Y68095D01*
X13180Y67264D01*
X12985Y66284D01*
Y56784D01*
X13180Y55804D01*
X13735Y54973D01*
X13896Y54865D01*
Y53034D01*
X14380Y51868D01*
X19154Y47094D01*
X20320Y46610D01*
X27257D01*
X28252Y45615D01*
X27726Y44345D01*
X27217D01*
Y40878D01*
X25947Y40030D01*
X25700Y40132D01*
X24084D01*
X22590Y39513D01*
X21447Y38370D01*
X21103Y37540D01*
X20396Y37399D01*
X19724Y36950D01*
X19724Y36950D01*
X18619Y35845D01*
X15025D01*
Y30321D01*
X21549D01*
Y31867D01*
X21985Y32184D01*
X22819Y32528D01*
X24084Y32004D01*
X25700D01*
X25947Y32106D01*
X27217Y31258D01*
Y30321D01*
X33741D01*
Y35845D01*
X30147D01*
X29043Y36950D01*
X29115Y38208D01*
X29525Y38821D01*
X33741D01*
Y44345D01*
X32129D01*
Y45721D01*
X31646Y46887D01*
X30556Y47977D01*
X31042Y49150D01*
X38941D01*
X41022Y47070D01*
Y44345D01*
X39409D01*
Y38821D01*
X43164D01*
X44203Y37580D01*
X44108Y36950D01*
X44108Y36950D01*
X43003Y35845D01*
X39409D01*
Y30321D01*
X45933D01*
Y31496D01*
X47203Y32317D01*
X47960Y32004D01*
X49576D01*
X50331Y32317D01*
X51601Y31495D01*
Y30321D01*
X58125D01*
Y35845D01*
X54531D01*
X53427Y36950D01*
X52754Y37399D01*
X52603Y37429D01*
X52213Y38370D01*
X51070Y39513D01*
X49576Y40132D01*
X47960D01*
X47203Y39819D01*
X45933Y40640D01*
Y44345D01*
X44321D01*
Y47753D01*
X43838Y48919D01*
X40790Y51966D01*
X39624Y52450D01*
X25575D01*
X24002Y54023D01*
Y55189D01*
X24412Y55804D01*
X24607Y56784D01*
Y66284D01*
X24412Y67264D01*
X23857Y68095D01*
X23026Y68650D01*
X22046Y68845D01*
D02*
G37*
G36*
X54916D02*
X53936Y68650D01*
X53105Y68095D01*
X52550Y67264D01*
X52355Y66284D01*
Y56784D01*
X52550Y55804D01*
X53105Y54973D01*
X53266Y54865D01*
Y52780D01*
X53750Y51614D01*
X55222Y50142D01*
X56388Y49658D01*
X58512D01*
X58666Y49452D01*
X59051Y48201D01*
X59051Y48201D01*
X54416Y43566D01*
X54070Y43497D01*
X53398Y43048D01*
X52949Y42376D01*
X52791Y41583D01*
X52949Y40790D01*
X53398Y40118D01*
X54070Y39669D01*
X54863Y39511D01*
X55363D01*
X55363Y39511D01*
X56156Y39669D01*
X56828Y40118D01*
X60960Y44250D01*
X65091Y40118D01*
X65091Y40118D01*
X65763Y39669D01*
X66556Y39511D01*
X67056D01*
X67849Y39669D01*
X68521Y40118D01*
X68970Y40790D01*
X69128Y41583D01*
X68970Y42376D01*
X68521Y43048D01*
X67849Y43497D01*
X67503Y43566D01*
X62868Y48201D01*
X62588Y48388D01*
X62973Y49658D01*
X74501D01*
X77598Y46561D01*
Y44345D01*
X75985D01*
Y40641D01*
X74715Y39819D01*
X73960Y40132D01*
X72344D01*
X70850Y39513D01*
X69707Y38370D01*
X69317Y37429D01*
X69165Y37399D01*
X68493Y36950D01*
X68493Y36950D01*
X67388Y35845D01*
X63794D01*
Y30321D01*
X70318D01*
Y31495D01*
X71588Y32317D01*
X72344Y32004D01*
X73960D01*
X74715Y32317D01*
X75985Y31495D01*
Y30321D01*
X82509D01*
Y35845D01*
X78915D01*
X77811Y36950D01*
X77716Y37580D01*
X78756Y38821D01*
X82509D01*
Y44345D01*
X80898D01*
Y47244D01*
X80414Y48410D01*
X76350Y52474D01*
X75184Y52958D01*
X57071D01*
X56566Y53463D01*
Y54865D01*
X56727Y54973D01*
X57282Y55804D01*
X57477Y56784D01*
Y66284D01*
X57282Y67264D01*
X56727Y68095D01*
X55896Y68650D01*
X54916Y68845D01*
D02*
G37*
G36*
X18287Y43655D02*
X6095D01*
X5302Y43497D01*
X4630Y43048D01*
X4181Y42376D01*
X4023Y41583D01*
X4181Y40790D01*
X4630Y40118D01*
X5302Y39669D01*
X6095Y39511D01*
X18287D01*
X19080Y39669D01*
X19752Y40118D01*
X20201Y40790D01*
X20359Y41583D01*
X20201Y42376D01*
X19752Y43048D01*
X19080Y43497D01*
X18287Y43655D01*
D02*
G37*
G36*
X-67056Y48808D02*
X-67849Y48650D01*
X-68521Y48201D01*
X-68522Y48200D01*
X-68971Y47528D01*
X-69129Y46735D01*
X-69129Y46735D01*
Y41583D01*
X-68971Y40790D01*
X-68522Y40118D01*
X-67850Y39669D01*
X-67057Y39511D01*
X-66264Y39669D01*
X-65592Y40118D01*
X-65143Y40790D01*
X-64985Y41583D01*
Y46732D01*
X-64984Y46736D01*
X-65142Y47529D01*
X-65591Y48201D01*
X-66263Y48650D01*
X-67056Y48808D01*
D02*
G37*
G36*
X-42672Y48808D02*
X-43465Y48650D01*
X-44137Y48201D01*
X-44137Y48201D01*
X-44587Y47529D01*
X-44744Y46736D01*
X-44744Y46736D01*
Y41585D01*
X-44745Y41583D01*
X-44587Y40790D01*
X-44138Y40118D01*
X-43466Y39669D01*
X-42673Y39511D01*
X-41880Y39669D01*
X-41208Y40118D01*
X-41207Y40118D01*
X-41207Y40119D01*
X-40758Y40791D01*
X-40601Y41584D01*
X-40601Y41584D01*
Y46734D01*
X-40600Y46736D01*
X-40758Y47529D01*
X-41207Y48201D01*
X-41879Y48650D01*
X-42672Y48808D01*
D02*
G37*
G36*
X-5287Y51307D02*
X-6904D01*
X-8397Y50689D01*
X-9541Y49545D01*
X-10159Y48052D01*
Y46435D01*
X-9771Y45498D01*
X-9357Y44345D01*
X-9357Y44345D01*
X-9357Y44345D01*
Y38821D01*
X-2833D01*
Y44345D01*
X-2833Y44345D01*
X-2438Y45452D01*
X-2031Y46435D01*
Y48052D01*
X-2650Y49545D01*
X-3793Y50689D01*
X-5287Y51307D01*
D02*
G37*
G36*
X-17324Y68845D02*
X-18304Y68650D01*
X-19135Y68095D01*
X-19690Y67264D01*
X-19885Y66284D01*
Y56784D01*
X-19690Y55804D01*
X-19135Y54973D01*
X-18974Y54865D01*
Y44345D01*
X-21551D01*
Y38821D01*
X-15027D01*
Y44345D01*
X-15674D01*
Y54865D01*
X-15513Y54973D01*
X-14958Y55804D01*
X-14763Y56784D01*
Y66284D01*
X-14958Y67264D01*
X-15513Y68095D01*
X-16344Y68650D01*
X-17324Y68845D01*
D02*
G37*
G36*
X-23824D02*
X-24804Y68650D01*
X-25635Y68095D01*
X-26190Y67264D01*
X-26385Y66284D01*
Y56784D01*
X-26190Y55804D01*
X-25635Y54973D01*
X-25474Y54865D01*
Y53567D01*
X-31647Y47394D01*
X-32130Y46227D01*
Y44345D01*
X-33743D01*
Y38821D01*
X-27219D01*
Y44345D01*
X-28659D01*
X-28760Y45615D01*
X-22658Y51718D01*
X-22174Y52884D01*
Y54865D01*
X-22013Y54973D01*
X-21458Y55804D01*
X-21263Y56784D01*
Y66284D01*
X-21458Y67264D01*
X-22013Y68095D01*
X-22844Y68650D01*
X-23824Y68845D01*
D02*
G37*
G36*
X-56694D02*
X-57674Y68650D01*
X-58505Y68095D01*
X-59060Y67264D01*
X-59255Y66284D01*
Y56784D01*
X-59060Y55804D01*
X-58505Y54973D01*
X-57965Y54612D01*
Y53268D01*
X-57482Y52101D01*
X-56514Y51133D01*
Y44345D01*
X-58127D01*
Y38821D01*
X-51603D01*
Y44345D01*
X-53214D01*
Y51816D01*
X-53698Y52982D01*
X-54666Y53951D01*
Y55297D01*
X-54328Y55804D01*
X-54133Y56784D01*
Y66284D01*
X-54328Y67264D01*
X-54883Y68095D01*
X-55714Y68650D01*
X-56694Y68845D01*
D02*
G37*
G36*
X-63194D02*
X-64174Y68650D01*
X-65005Y68095D01*
X-65560Y67264D01*
X-65755Y66284D01*
Y56784D01*
X-65560Y55804D01*
X-65005Y54973D01*
X-65389Y53784D01*
X-65707Y53466D01*
X-76708D01*
X-77874Y52982D01*
X-80415Y50442D01*
X-80898Y49275D01*
Y44345D01*
X-82511D01*
Y38821D01*
X-75987D01*
Y44345D01*
X-77599D01*
Y48592D01*
X-76025Y50166D01*
X-65024D01*
X-63858Y50650D01*
X-62042Y52465D01*
X-61559Y53631D01*
Y54855D01*
X-61383Y54973D01*
X-60828Y55804D01*
X-60633Y56784D01*
Y66284D01*
X-60828Y67264D01*
X-61383Y68095D01*
X-62214Y68650D01*
X-63194Y68845D01*
D02*
G37*
G36*
X-102564D02*
X-103544Y68650D01*
X-104375Y68095D01*
X-104930Y67264D01*
X-105125Y66284D01*
Y56784D01*
X-104930Y55804D01*
X-104375Y54973D01*
X-104214Y54865D01*
Y51764D01*
X-103730Y50598D01*
X-100226Y47094D01*
X-99060Y46610D01*
X-94663D01*
X-93668Y45615D01*
X-94194Y44345D01*
X-94703D01*
Y38821D01*
X-88179D01*
Y44345D01*
X-89790D01*
Y45720D01*
X-90274Y46886D01*
X-92814Y49426D01*
X-93980Y49910D01*
X-98377D01*
X-100914Y52447D01*
Y54865D01*
X-100753Y54973D01*
X-100198Y55804D01*
X-100003Y56784D01*
Y66284D01*
X-100198Y67264D01*
X-100753Y68095D01*
X-101584Y68650D01*
X-102564Y68845D01*
D02*
G37*
G36*
X-121197Y59213D02*
X-127721D01*
Y53689D01*
X-127721Y53689D01*
X-127940Y52510D01*
X-128524Y51100D01*
Y49484D01*
X-128648Y49298D01*
X-129374D01*
Y38774D01*
X-119850D01*
Y49298D01*
X-120272D01*
X-120396Y49484D01*
Y51100D01*
X-120980Y52509D01*
X-121197Y53689D01*
X-121197Y53689D01*
X-121197Y53689D01*
Y59213D01*
D02*
G37*
G36*
X94286Y68845D02*
X93306Y68650D01*
X92475Y68095D01*
X91920Y67264D01*
X91725Y66284D01*
Y56784D01*
X91920Y55804D01*
X92475Y54973D01*
X92636Y54865D01*
Y50773D01*
X90274Y48410D01*
X89790Y47244D01*
Y44345D01*
X88177D01*
Y38821D01*
X92882D01*
X93454Y37551D01*
X92964Y36368D01*
Y35885D01*
X92169D01*
X91969Y35845D01*
X88177D01*
Y30321D01*
X94701D01*
Y30786D01*
X95971Y31599D01*
X96220Y31496D01*
X97836D01*
X99330Y32115D01*
X100473Y33258D01*
X101092Y34752D01*
Y36368D01*
X100473Y37862D01*
X99330Y39005D01*
X97836Y39624D01*
X96220D01*
X95971Y39521D01*
X94701Y40370D01*
Y44345D01*
X93090D01*
Y46561D01*
X95452Y48924D01*
X95936Y50090D01*
Y54865D01*
X96097Y54973D01*
X96652Y55804D01*
X96847Y56784D01*
Y66284D01*
X96652Y67264D01*
X96097Y68095D01*
X95266Y68650D01*
X94286Y68845D01*
D02*
G37*
G36*
X-48000Y37147D02*
X-49617D01*
X-51111Y36528D01*
X-51794Y35845D01*
X-58127D01*
Y30321D01*
X-56937D01*
Y28797D01*
X-59786Y25948D01*
X-73675D01*
X-73771Y26178D01*
X-74914Y27321D01*
X-76408Y27940D01*
X-78024D01*
X-79518Y27321D01*
X-80661Y26178D01*
X-81280Y24684D01*
Y23068D01*
X-80661Y21574D01*
X-79518Y20431D01*
X-78024Y19812D01*
X-76408D01*
X-74914Y20431D01*
X-73771Y21574D01*
X-73675Y21804D01*
X-58928D01*
X-58928Y21804D01*
X-58135Y21962D01*
X-57463Y22411D01*
X-53400Y26474D01*
X-52951Y27146D01*
X-52793Y27939D01*
X-52793Y27939D01*
Y29667D01*
X-51523Y30050D01*
X-51111Y29638D01*
X-49617Y29019D01*
X-48000D01*
X-46507Y29638D01*
X-45823Y30321D01*
X-39411D01*
Y31011D01*
X-33743D01*
Y30321D01*
X-27219D01*
Y35845D01*
X-33743D01*
Y35155D01*
X-39411D01*
Y35845D01*
X-45823D01*
X-46507Y36528D01*
X-48000Y37147D01*
D02*
G37*
G36*
X-84028Y37084D02*
X-85644D01*
X-87138Y36465D01*
X-87164Y36440D01*
X-88179Y35845D01*
Y35845D01*
X-88179Y35845D01*
X-94703D01*
Y30321D01*
X-88179D01*
X-88179Y30321D01*
Y30321D01*
X-87214Y29650D01*
X-87138Y29575D01*
X-85644Y28956D01*
X-84028D01*
X-82534Y29575D01*
X-81787Y30321D01*
X-75987D01*
Y31011D01*
X-70319D01*
Y30321D01*
X-63795D01*
Y35845D01*
X-70319D01*
Y35155D01*
X-75987D01*
Y35845D01*
X-81914D01*
X-82534Y36465D01*
X-84028Y37084D01*
D02*
G37*
G36*
X134835Y2439D02*
X132373D01*
X131873Y2340D01*
X131362Y2340D01*
X128947Y1860D01*
X128476Y1664D01*
X127976Y1565D01*
X125701Y623D01*
X125277Y339D01*
X124805Y144D01*
X122758Y-1224D01*
X122397Y-1585D01*
X121973Y-1868D01*
X120232Y-3609D01*
X119949Y-4033D01*
X119588Y-4394D01*
X118220Y-6442D01*
X118025Y-6913D01*
X117741Y-7337D01*
X116799Y-9612D01*
X116700Y-10112D01*
X116504Y-10583D01*
X116024Y-12998D01*
Y-13508D01*
X115925Y-14009D01*
Y-16471D01*
X116024Y-16971D01*
Y-17482D01*
X116504Y-19897D01*
X116700Y-20368D01*
X116799Y-20868D01*
X117741Y-23143D01*
X118025Y-23567D01*
X118220Y-24039D01*
X119588Y-26086D01*
X119949Y-26447D01*
X120232Y-26871D01*
X121973Y-28612D01*
X122397Y-28895D01*
X122758Y-29256D01*
X124805Y-30624D01*
X125277Y-30819D01*
X125701Y-31103D01*
X127976Y-32045D01*
X128476Y-32144D01*
X128947Y-32340D01*
X131362Y-32820D01*
X131873D01*
X132373Y-32919D01*
X134835D01*
X135336Y-32820D01*
X135846D01*
X138261Y-32340D01*
X138732Y-32144D01*
X139232Y-32045D01*
X141507Y-31103D01*
X141931Y-30819D01*
X142403Y-30624D01*
X144450Y-29256D01*
X144811Y-28895D01*
X145235Y-28612D01*
X146976Y-26871D01*
X147259Y-26447D01*
X147620Y-26086D01*
X148988Y-24039D01*
X149183Y-23567D01*
X149467Y-23143D01*
X150409Y-20868D01*
X150508Y-20368D01*
X150704Y-19897D01*
X151184Y-17482D01*
Y-16972D01*
X151284Y-16471D01*
Y-14009D01*
X151184Y-13508D01*
X151184Y-12998D01*
X150704Y-10583D01*
X150508Y-10112D01*
X150409Y-9612D01*
X149467Y-7337D01*
X149183Y-6913D01*
X148988Y-6441D01*
X147620Y-4394D01*
X147259Y-4033D01*
X146976Y-3609D01*
X145235Y-1868D01*
X144811Y-1585D01*
X144450Y-1224D01*
X142402Y144D01*
X141931Y339D01*
X141507Y623D01*
X139232Y1565D01*
X138732Y1664D01*
X138261Y1860D01*
X135846Y2340D01*
X135336D01*
X134835Y2439D01*
D02*
G37*
G36*
X-131357D02*
X-133819D01*
X-134319Y2340D01*
X-134830Y2340D01*
X-137245Y1860D01*
X-137716Y1664D01*
X-138216Y1565D01*
X-140491Y623D01*
X-140915Y339D01*
X-141387Y144D01*
X-143434Y-1224D01*
X-143795Y-1585D01*
X-144219Y-1868D01*
X-145960Y-3609D01*
X-146243Y-4033D01*
X-146604Y-4394D01*
X-147972Y-6442D01*
X-148167Y-6913D01*
X-148451Y-7337D01*
X-149393Y-9612D01*
X-149492Y-10112D01*
X-149688Y-10583D01*
X-150168Y-12998D01*
Y-13508D01*
X-150267Y-14009D01*
Y-16471D01*
X-150168Y-16971D01*
Y-17482D01*
X-149688Y-19897D01*
X-149492Y-20368D01*
X-149393Y-20868D01*
X-148451Y-23143D01*
X-148167Y-23567D01*
X-147972Y-24039D01*
X-146604Y-26086D01*
X-146243Y-26447D01*
X-145960Y-26871D01*
X-144219Y-28612D01*
X-143795Y-28895D01*
X-143434Y-29256D01*
X-141387Y-30624D01*
X-140915Y-30819D01*
X-140491Y-31103D01*
X-138216Y-32045D01*
X-137716Y-32144D01*
X-137245Y-32340D01*
X-134830Y-32820D01*
X-134319D01*
X-133819Y-32919D01*
X-131357D01*
X-130857Y-32820D01*
X-130346D01*
X-127931Y-32340D01*
X-127460Y-32144D01*
X-126960Y-32045D01*
X-124685Y-31103D01*
X-124261Y-30819D01*
X-123789Y-30624D01*
X-121742Y-29256D01*
X-121381Y-28895D01*
X-120957Y-28612D01*
X-119216Y-26871D01*
X-118933Y-26447D01*
X-118572Y-26086D01*
X-117204Y-24039D01*
X-117009Y-23567D01*
X-116725Y-23143D01*
X-115783Y-20868D01*
X-115684Y-20368D01*
X-115488Y-19897D01*
X-115008Y-17482D01*
Y-16972D01*
X-114909Y-16471D01*
Y-14009D01*
X-115008Y-13508D01*
X-115008Y-12998D01*
X-115488Y-10583D01*
X-115684Y-10112D01*
X-115783Y-9612D01*
X-116725Y-7337D01*
X-117009Y-6913D01*
X-117204Y-6441D01*
X-118572Y-4394D01*
X-118933Y-4033D01*
X-119216Y-3609D01*
X-120957Y-1868D01*
X-121381Y-1585D01*
X-121742Y-1224D01*
X-123790Y144D01*
X-124261Y339D01*
X-124685Y623D01*
X-126960Y1565D01*
X-127460Y1664D01*
X-127931Y1860D01*
X-130346Y2340D01*
X-130857D01*
X-131357Y2439D01*
D02*
G37*
%LPD*%
G36*
X-83272Y260708D02*
X-81660D01*
X-81660Y227076D01*
Y222986D01*
X-81620Y222891D01*
X-81356Y220884D01*
X-82580Y220451D01*
X-83794Y222432D01*
X-85032Y225421D01*
X-85497Y226544D01*
X-85573Y226714D01*
X-85573Y226714D01*
X-85781Y227068D01*
X-85837Y227190D01*
X-86142Y227682D01*
X-86142Y227682D01*
X-86163Y227731D01*
X-86210Y227750D01*
X-86399Y227944D01*
X-88913Y229872D01*
X-91839Y231084D01*
X-94914Y231489D01*
X-94987Y231520D01*
X-95000Y231520D01*
X-95001Y231519D01*
X-95003Y231520D01*
X-113498D01*
Y233132D01*
X-114610D01*
Y238431D01*
X-97576D01*
Y235204D01*
X-97418Y234411D01*
X-96969Y233739D01*
X-96297Y233290D01*
X-95504Y233132D01*
X-94711Y233290D01*
X-94039Y233739D01*
X-93590Y234411D01*
X-93432Y235204D01*
Y238431D01*
X-90424D01*
X-88937Y238727D01*
X-87677Y239569D01*
X-86835Y240829D01*
X-86539Y242316D01*
Y261820D01*
X-83272D01*
Y260708D01*
D02*
G37*
G36*
X-140261Y269931D02*
X-142970D01*
X-140261Y268985D01*
Y268599D01*
X-143016Y267667D01*
X-140261D01*
Y267253D01*
X-143496D01*
Y267895D01*
X-141203Y268662D01*
X-141200D01*
X-141189Y268666D01*
X-141172Y268673D01*
X-141151Y268680D01*
X-141126Y268687D01*
X-141095Y268697D01*
X-141025Y268722D01*
X-140948Y268747D01*
X-140867Y268771D01*
X-140793Y268796D01*
X-140758Y268806D01*
X-140727Y268817D01*
X-140730D01*
X-140734Y268820D01*
X-140744Y268824D01*
X-140758Y268827D01*
X-140779Y268834D01*
X-140800Y268841D01*
X-140828Y268848D01*
X-140857Y268859D01*
X-140892Y268869D01*
X-140930Y268883D01*
X-140972Y268897D01*
X-141021Y268911D01*
X-141070Y268929D01*
X-141126Y268946D01*
X-141182Y268967D01*
X-141246Y268988D01*
X-143496Y269767D01*
Y270345D01*
X-140261D01*
Y269931D01*
D02*
G37*
G36*
X-141789Y266714D02*
X-141747Y266710D01*
X-141698Y266707D01*
X-141642Y266700D01*
X-141579Y266693D01*
X-141512Y266682D01*
X-141442Y266668D01*
X-141368Y266654D01*
X-141295Y266633D01*
X-141217Y266608D01*
X-141144Y266584D01*
X-141067Y266552D01*
X-140993Y266517D01*
X-140990Y266514D01*
X-140976Y266507D01*
X-140955Y266496D01*
X-140930Y266482D01*
X-140899Y266461D01*
X-140860Y266437D01*
X-140818Y266405D01*
X-140772Y266374D01*
X-140727Y266335D01*
X-140678Y266293D01*
X-140629Y266244D01*
X-140580Y266195D01*
X-140534Y266142D01*
X-140488Y266083D01*
X-140443Y266019D01*
X-140404Y265953D01*
X-140401Y265949D01*
X-140397Y265935D01*
X-140387Y265918D01*
X-140373Y265890D01*
X-140359Y265855D01*
X-140341Y265816D01*
X-140324Y265771D01*
X-140306Y265718D01*
X-140289Y265662D01*
X-140271Y265602D01*
X-140254Y265536D01*
X-140240Y265469D01*
X-140215Y265322D01*
X-140211Y265245D01*
X-140208Y265168D01*
Y265122D01*
X-140211Y265091D01*
X-140215Y265052D01*
X-140218Y265003D01*
X-140226Y264954D01*
X-140236Y264894D01*
X-140247Y264835D01*
X-140261Y264768D01*
X-140278Y264702D01*
X-140299Y264631D01*
X-140324Y264561D01*
X-140355Y264491D01*
X-140387Y264421D01*
X-140425Y264351D01*
X-140429Y264347D01*
X-140436Y264337D01*
X-140450Y264316D01*
X-140467Y264291D01*
X-140488Y264263D01*
X-140517Y264228D01*
X-140548Y264190D01*
X-140583Y264148D01*
X-140625Y264102D01*
X-140671Y264060D01*
X-140720Y264014D01*
X-140772Y263969D01*
X-140832Y263923D01*
X-140892Y263881D01*
X-140958Y263843D01*
X-141028Y263804D01*
X-141032Y263801D01*
X-141046Y263797D01*
X-141067Y263787D01*
X-141095Y263776D01*
X-141130Y263762D01*
X-141172Y263748D01*
X-141217Y263731D01*
X-141274Y263713D01*
X-141330Y263696D01*
X-141393Y263678D01*
X-141459Y263664D01*
X-141530Y263650D01*
X-141677Y263629D01*
X-141757Y263626D01*
X-141834Y263622D01*
X-141838D01*
X-141845D01*
X-141855D01*
X-141869D01*
X-141890Y263626D01*
X-141912D01*
X-141968Y263629D01*
X-142034Y263636D01*
X-142115Y263647D01*
X-142199Y263657D01*
X-142294Y263675D01*
X-142395Y263699D01*
X-142497Y263727D01*
X-142602Y263762D01*
X-142707Y263804D01*
X-142812Y263853D01*
X-142910Y263909D01*
X-143009Y263976D01*
X-143096Y264053D01*
X-143100Y264057D01*
X-143117Y264074D01*
X-143138Y264099D01*
X-143166Y264130D01*
X-143202Y264176D01*
X-143240Y264225D01*
X-143282Y264284D01*
X-143324Y264354D01*
X-143366Y264432D01*
X-143408Y264516D01*
X-143447Y264607D01*
X-143482Y264709D01*
X-143510Y264814D01*
X-143531Y264926D01*
X-143548Y265045D01*
X-143552Y265171D01*
Y265213D01*
X-143548Y265245D01*
X-143545Y265287D01*
X-143541Y265333D01*
X-143534Y265382D01*
X-143524Y265438D01*
X-143513Y265501D01*
X-143499Y265564D01*
X-143482Y265630D01*
X-143461Y265700D01*
X-143436Y265771D01*
X-143408Y265841D01*
X-143377Y265907D01*
X-143338Y265977D01*
X-143335Y265981D01*
X-143328Y265995D01*
X-143317Y266012D01*
X-143300Y266037D01*
X-143279Y266069D01*
X-143251Y266100D01*
X-143219Y266139D01*
X-143184Y266181D01*
X-143142Y266226D01*
X-143096Y266272D01*
X-143047Y266318D01*
X-142995Y266363D01*
X-142939Y266405D01*
X-142875Y266451D01*
X-142809Y266489D01*
X-142739Y266528D01*
X-142735Y266531D01*
X-142721Y266535D01*
X-142700Y266545D01*
X-142672Y266556D01*
X-142637Y266573D01*
X-142592Y266587D01*
X-142542Y266605D01*
X-142486Y266622D01*
X-142427Y266640D01*
X-142360Y266658D01*
X-142287Y266675D01*
X-142213Y266689D01*
X-142132Y266700D01*
X-142048Y266710D01*
X-141964Y266714D01*
X-141873Y266717D01*
X-141866D01*
X-141852D01*
X-141824D01*
X-141789Y266714D01*
D02*
G37*
G36*
X-141263Y263219D02*
X-141239Y263212D01*
X-141200Y263198D01*
X-141158Y263184D01*
X-141105Y263163D01*
X-141049Y263142D01*
X-140990Y263114D01*
X-140923Y263082D01*
X-140860Y263047D01*
X-140790Y263008D01*
X-140723Y262963D01*
X-140660Y262914D01*
X-140597Y262861D01*
X-140538Y262802D01*
X-140481Y262739D01*
X-140478Y262735D01*
X-140471Y262721D01*
X-140457Y262704D01*
X-140439Y262675D01*
X-140418Y262644D01*
X-140394Y262602D01*
X-140369Y262556D01*
X-140345Y262500D01*
X-140320Y262441D01*
X-140296Y262378D01*
X-140271Y262307D01*
X-140250Y262230D01*
X-140233Y262150D01*
X-140218Y262066D01*
X-140211Y261978D01*
X-140208Y261883D01*
Y261834D01*
X-140211Y261796D01*
X-140215Y261754D01*
X-140218Y261701D01*
X-140226Y261645D01*
X-140236Y261582D01*
X-140247Y261515D01*
X-140261Y261445D01*
X-140278Y261375D01*
X-140296Y261305D01*
X-140320Y261231D01*
X-140348Y261161D01*
X-140380Y261095D01*
X-140418Y261032D01*
X-140422Y261028D01*
X-140429Y261018D01*
X-140439Y261000D01*
X-140457Y260979D01*
X-140481Y260951D01*
X-140506Y260919D01*
X-140538Y260884D01*
X-140576Y260846D01*
X-140618Y260807D01*
X-140664Y260765D01*
X-140713Y260727D01*
X-140769Y260685D01*
X-140828Y260643D01*
X-140892Y260604D01*
X-140962Y260569D01*
X-141035Y260534D01*
X-141039Y260530D01*
X-141053Y260527D01*
X-141077Y260520D01*
X-141105Y260509D01*
X-141144Y260495D01*
X-141186Y260481D01*
X-141239Y260467D01*
X-141295Y260450D01*
X-141358Y260436D01*
X-141424Y260418D01*
X-141494Y260404D01*
X-141572Y260394D01*
X-141733Y260373D01*
X-141817Y260369D01*
X-141901Y260366D01*
X-141908D01*
X-141922D01*
X-141950D01*
X-141985Y260369D01*
X-142031Y260373D01*
X-142083Y260376D01*
X-142139Y260383D01*
X-142203Y260390D01*
X-142269Y260401D01*
X-142339Y260411D01*
X-142490Y260446D01*
X-142563Y260471D01*
X-142637Y260495D01*
X-142714Y260523D01*
X-142784Y260558D01*
X-142788Y260562D01*
X-142802Y260569D01*
X-142819Y260579D01*
X-142847Y260593D01*
X-142879Y260614D01*
X-142914Y260639D01*
X-142953Y260667D01*
X-142998Y260699D01*
X-143040Y260737D01*
X-143089Y260776D01*
X-143135Y260821D01*
X-143184Y260870D01*
X-143230Y260923D01*
X-143275Y260979D01*
X-143317Y261042D01*
X-143356Y261105D01*
X-143359Y261109D01*
X-143363Y261123D01*
X-143373Y261140D01*
X-143387Y261168D01*
X-143401Y261200D01*
X-143419Y261242D01*
X-143436Y261287D01*
X-143454Y261337D01*
X-143471Y261393D01*
X-143489Y261456D01*
X-143506Y261519D01*
X-143520Y261589D01*
X-143545Y261733D01*
X-143548Y261810D01*
X-143552Y261890D01*
Y261936D01*
X-143548Y261971D01*
X-143545Y262013D01*
X-143538Y262062D01*
X-143531Y262115D01*
X-143520Y262174D01*
X-143506Y262237D01*
X-143492Y262304D01*
X-143471Y262371D01*
X-143447Y262441D01*
X-143419Y262511D01*
X-143384Y262577D01*
X-143349Y262644D01*
X-143303Y262707D01*
X-143300Y262711D01*
X-143293Y262721D01*
X-143279Y262739D01*
X-143258Y262760D01*
X-143233Y262788D01*
X-143202Y262819D01*
X-143166Y262851D01*
X-143124Y262889D01*
X-143079Y262928D01*
X-143026Y262966D01*
X-142970Y263005D01*
X-142907Y263040D01*
X-142840Y263079D01*
X-142767Y263110D01*
X-142690Y263142D01*
X-142609Y263170D01*
X-142511Y262749D01*
X-142514D01*
X-142525Y262742D01*
X-142546Y262739D01*
X-142570Y262728D01*
X-142599Y262718D01*
X-142630Y262700D01*
X-142707Y262665D01*
X-142791Y262619D01*
X-142879Y262560D01*
X-142960Y262497D01*
X-142995Y262458D01*
X-143026Y262420D01*
X-143030Y262416D01*
X-143033Y262409D01*
X-143040Y262399D01*
X-143051Y262381D01*
X-143065Y262360D01*
X-143079Y262335D01*
X-143093Y262307D01*
X-143107Y262272D01*
X-143121Y262234D01*
X-143135Y262195D01*
X-143163Y262104D01*
X-143180Y261999D01*
X-143187Y261943D01*
Y261848D01*
X-143184Y261820D01*
X-143180Y261789D01*
X-143177Y261750D01*
X-143173Y261708D01*
X-143166Y261666D01*
X-143142Y261564D01*
X-143110Y261459D01*
X-143089Y261407D01*
X-143065Y261354D01*
X-143037Y261305D01*
X-143005Y261256D01*
X-143002Y261252D01*
X-142998Y261245D01*
X-142988Y261231D01*
X-142974Y261214D01*
X-142956Y261196D01*
X-142932Y261172D01*
X-142907Y261147D01*
X-142879Y261119D01*
X-142844Y261091D01*
X-142809Y261060D01*
X-142728Y261004D01*
X-142634Y260951D01*
X-142525Y260905D01*
X-142521D01*
X-142511Y260902D01*
X-142493Y260895D01*
X-142472Y260891D01*
X-142444Y260884D01*
X-142413Y260874D01*
X-142374Y260867D01*
X-142336Y260856D01*
X-142290Y260846D01*
X-142241Y260839D01*
X-142136Y260821D01*
X-142024Y260811D01*
X-141904Y260807D01*
X-141901D01*
X-141887D01*
X-141866D01*
X-141834Y260811D01*
X-141799D01*
X-141757Y260814D01*
X-141712Y260818D01*
X-141659Y260821D01*
X-141603Y260828D01*
X-141547Y260835D01*
X-141424Y260856D01*
X-141302Y260888D01*
X-141182Y260926D01*
X-141179D01*
X-141168Y260933D01*
X-141154Y260940D01*
X-141133Y260947D01*
X-141105Y260961D01*
X-141077Y260979D01*
X-141011Y261018D01*
X-140934Y261070D01*
X-140860Y261133D01*
X-140786Y261210D01*
X-140755Y261252D01*
X-140723Y261298D01*
Y261301D01*
X-140716Y261308D01*
X-140709Y261322D01*
X-140699Y261344D01*
X-140688Y261368D01*
X-140674Y261396D01*
X-140664Y261428D01*
X-140650Y261463D01*
X-140622Y261543D01*
X-140597Y261638D01*
X-140580Y261740D01*
X-140576Y261792D01*
X-140573Y261848D01*
Y261883D01*
X-140576Y261908D01*
X-140580Y261940D01*
X-140583Y261975D01*
X-140590Y262017D01*
X-140597Y262059D01*
X-140622Y262157D01*
X-140639Y262206D01*
X-140660Y262258D01*
X-140685Y262311D01*
X-140713Y262360D01*
X-140744Y262409D01*
X-140779Y262458D01*
X-140783Y262462D01*
X-140790Y262469D01*
X-140800Y262483D01*
X-140818Y262500D01*
X-140839Y262518D01*
X-140867Y262542D01*
X-140899Y262567D01*
X-140934Y262595D01*
X-140976Y262623D01*
X-141021Y262651D01*
X-141070Y262679D01*
X-141126Y262707D01*
X-141186Y262732D01*
X-141253Y262756D01*
X-141323Y262781D01*
X-141396Y262798D01*
X-141288Y263226D01*
X-141281D01*
X-141263Y263219D01*
D02*
G37*
G36*
X-140261Y259296D02*
X-140713D01*
Y259749D01*
X-140261D01*
Y259296D01*
D02*
G37*
G36*
Y258287D02*
X-140934Y257859D01*
X-140937Y257856D01*
X-140948Y257852D01*
X-140962Y257842D01*
X-140983Y257828D01*
X-141007Y257814D01*
X-141035Y257793D01*
X-141098Y257751D01*
X-141172Y257702D01*
X-141246Y257653D01*
X-141316Y257600D01*
X-141379Y257551D01*
X-141382D01*
X-141386Y257544D01*
X-141403Y257530D01*
X-141431Y257509D01*
X-141463Y257477D01*
X-141498Y257446D01*
X-141533Y257407D01*
X-141568Y257369D01*
X-141593Y257334D01*
X-141596Y257330D01*
X-141603Y257316D01*
X-141614Y257299D01*
X-141628Y257274D01*
X-141642Y257243D01*
X-141656Y257211D01*
X-141670Y257176D01*
X-141680Y257137D01*
Y257134D01*
X-141684Y257123D01*
X-141687Y257106D01*
X-141691Y257081D01*
Y257046D01*
X-141694Y257004D01*
X-141698Y256955D01*
Y256405D01*
X-140261D01*
Y255977D01*
X-143496D01*
Y257481D01*
X-143492Y257519D01*
Y257558D01*
X-143489Y257603D01*
X-143485Y257656D01*
X-143475Y257761D01*
X-143457Y257870D01*
X-143436Y257975D01*
X-143422Y258021D01*
X-143408Y258066D01*
Y258070D01*
X-143405Y258077D01*
X-143398Y258087D01*
X-143391Y258105D01*
X-143370Y258147D01*
X-143338Y258196D01*
X-143296Y258256D01*
X-143240Y258315D01*
X-143177Y258375D01*
X-143100Y258427D01*
X-143096D01*
X-143089Y258434D01*
X-143079Y258441D01*
X-143061Y258448D01*
X-143040Y258459D01*
X-143016Y258469D01*
X-142988Y258483D01*
X-142956Y258497D01*
X-142882Y258522D01*
X-142802Y258543D01*
X-142711Y258557D01*
X-142613Y258564D01*
X-142609D01*
X-142599D01*
X-142577D01*
X-142556Y258560D01*
X-142525Y258557D01*
X-142490Y258553D01*
X-142451Y258546D01*
X-142409Y258536D01*
X-142318Y258508D01*
X-142269Y258490D01*
X-142220Y258469D01*
X-142171Y258445D01*
X-142122Y258413D01*
X-142076Y258378D01*
X-142031Y258340D01*
X-142027Y258336D01*
X-142020Y258329D01*
X-142010Y258315D01*
X-141992Y258298D01*
X-141975Y258273D01*
X-141954Y258245D01*
X-141929Y258210D01*
X-141904Y258168D01*
X-141880Y258122D01*
X-141855Y258073D01*
X-141831Y258017D01*
X-141806Y257954D01*
X-141785Y257887D01*
X-141764Y257814D01*
X-141747Y257733D01*
X-141733Y257649D01*
Y257653D01*
X-141729Y257656D01*
X-141719Y257677D01*
X-141701Y257709D01*
X-141680Y257747D01*
X-141656Y257789D01*
X-141631Y257831D01*
X-141600Y257873D01*
X-141572Y257908D01*
X-141568Y257912D01*
X-141565Y257915D01*
X-141554Y257926D01*
X-141540Y257940D01*
X-141523Y257957D01*
X-141501Y257979D01*
X-141452Y258024D01*
X-141389Y258077D01*
X-141316Y258136D01*
X-141231Y258199D01*
X-141140Y258263D01*
X-140261Y258823D01*
Y258287D01*
D02*
G37*
G36*
Y252966D02*
X-143496D01*
Y255308D01*
X-143114D01*
Y253394D01*
X-142125D01*
Y255185D01*
X-141743D01*
Y253394D01*
X-140643D01*
Y255381D01*
X-140261D01*
Y252966D01*
D02*
G37*
G36*
X-140706Y252321D02*
X-140699Y252311D01*
X-140685Y252293D01*
X-140667Y252269D01*
X-140646Y252241D01*
X-140625Y252206D01*
X-140597Y252167D01*
X-140569Y252125D01*
X-140541Y252079D01*
X-140510Y252027D01*
X-140446Y251918D01*
X-140387Y251799D01*
X-140334Y251673D01*
Y251669D01*
X-140327Y251659D01*
X-140324Y251641D01*
X-140313Y251613D01*
X-140306Y251585D01*
X-140296Y251546D01*
X-140282Y251508D01*
X-140271Y251462D01*
X-140261Y251410D01*
X-140247Y251357D01*
X-140229Y251242D01*
X-140215Y251115D01*
X-140208Y250986D01*
Y250940D01*
X-140211Y250905D01*
X-140215Y250863D01*
X-140218Y250814D01*
X-140226Y250758D01*
X-140233Y250698D01*
X-140243Y250635D01*
X-140257Y250565D01*
X-140275Y250495D01*
X-140296Y250418D01*
X-140317Y250344D01*
X-140345Y250271D01*
X-140376Y250194D01*
X-140411Y250120D01*
X-140415Y250116D01*
X-140422Y250102D01*
X-140432Y250081D01*
X-140450Y250057D01*
X-140471Y250025D01*
X-140496Y249987D01*
X-140527Y249945D01*
X-140562Y249899D01*
X-140601Y249853D01*
X-140646Y249804D01*
X-140692Y249755D01*
X-140744Y249706D01*
X-140804Y249661D01*
X-140864Y249615D01*
X-140930Y249570D01*
X-141000Y249531D01*
X-141004Y249527D01*
X-141018Y249524D01*
X-141039Y249513D01*
X-141067Y249499D01*
X-141105Y249485D01*
X-141147Y249468D01*
X-141196Y249450D01*
X-141253Y249433D01*
X-141312Y249415D01*
X-141379Y249398D01*
X-141452Y249380D01*
X-141526Y249366D01*
X-141607Y249352D01*
X-141687Y249342D01*
X-141775Y249338D01*
X-141862Y249335D01*
X-141869D01*
X-141883D01*
X-141908D01*
X-141943Y249338D01*
X-141985Y249342D01*
X-142034Y249345D01*
X-142090Y249352D01*
X-142150Y249359D01*
X-142217Y249370D01*
X-142287Y249384D01*
X-142434Y249419D01*
X-142511Y249440D01*
X-142588Y249468D01*
X-142665Y249496D01*
X-142742Y249531D01*
X-142746Y249535D01*
X-142760Y249542D01*
X-142781Y249552D01*
X-142809Y249566D01*
X-142844Y249587D01*
X-142882Y249612D01*
X-142925Y249643D01*
X-142974Y249675D01*
X-143023Y249713D01*
X-143072Y249755D01*
X-143121Y249801D01*
X-143173Y249853D01*
X-143223Y249906D01*
X-143268Y249966D01*
X-143314Y250029D01*
X-143352Y250095D01*
X-143356Y250099D01*
X-143359Y250113D01*
X-143370Y250134D01*
X-143384Y250162D01*
X-143398Y250197D01*
X-143415Y250239D01*
X-143433Y250288D01*
X-143454Y250341D01*
X-143471Y250400D01*
X-143489Y250467D01*
X-143506Y250537D01*
X-143520Y250614D01*
X-143534Y250691D01*
X-143545Y250775D01*
X-143548Y250863D01*
X-143552Y250951D01*
Y251010D01*
X-143548Y251042D01*
X-143545Y251077D01*
X-143541Y251115D01*
X-143538Y251161D01*
X-143524Y251259D01*
X-143503Y251368D01*
X-143475Y251476D01*
X-143436Y251585D01*
Y251589D01*
X-143433Y251599D01*
X-143426Y251613D01*
X-143415Y251631D01*
X-143405Y251655D01*
X-143391Y251683D01*
X-143356Y251746D01*
X-143310Y251820D01*
X-143258Y251894D01*
X-143195Y251964D01*
X-143121Y252030D01*
X-143117Y252034D01*
X-143110Y252037D01*
X-143100Y252044D01*
X-143086Y252058D01*
X-143065Y252069D01*
X-143040Y252086D01*
X-143012Y252104D01*
X-142977Y252121D01*
X-142942Y252142D01*
X-142903Y252160D01*
X-142858Y252181D01*
X-142812Y252202D01*
X-142707Y252241D01*
X-142592Y252276D01*
X-142486Y251887D01*
X-142490D01*
X-142497Y251883D01*
X-142511Y251880D01*
X-142528Y251873D01*
X-142546Y251866D01*
X-142570Y251859D01*
X-142627Y251838D01*
X-142690Y251809D01*
X-142753Y251778D01*
X-142816Y251743D01*
X-142872Y251704D01*
X-142879Y251701D01*
X-142896Y251683D01*
X-142921Y251659D01*
X-142956Y251627D01*
X-142991Y251582D01*
X-143030Y251529D01*
X-143065Y251466D01*
X-143100Y251396D01*
Y251392D01*
X-143103Y251385D01*
X-143107Y251375D01*
X-143114Y251361D01*
X-143121Y251343D01*
X-143128Y251319D01*
X-143145Y251266D01*
X-143159Y251199D01*
X-143173Y251126D01*
X-143184Y251042D01*
X-143187Y250954D01*
Y250905D01*
X-143184Y250881D01*
Y250849D01*
X-143180Y250818D01*
X-143177Y250779D01*
X-143166Y250702D01*
X-143149Y250614D01*
X-143128Y250530D01*
X-143096Y250446D01*
Y250442D01*
X-143093Y250435D01*
X-143086Y250425D01*
X-143079Y250411D01*
X-143061Y250372D01*
X-143033Y250323D01*
X-142998Y250267D01*
X-142956Y250211D01*
X-142910Y250152D01*
X-142858Y250099D01*
X-142851Y250092D01*
X-142833Y250078D01*
X-142802Y250053D01*
X-142763Y250025D01*
X-142718Y249994D01*
X-142662Y249959D01*
X-142602Y249927D01*
X-142539Y249899D01*
X-142535D01*
X-142525Y249896D01*
X-142511Y249889D01*
X-142486Y249882D01*
X-142458Y249871D01*
X-142427Y249860D01*
X-142388Y249850D01*
X-142346Y249839D01*
X-142301Y249825D01*
X-142248Y249815D01*
X-142139Y249797D01*
X-142017Y249783D01*
X-141887Y249776D01*
X-141883D01*
X-141869D01*
X-141845D01*
X-141817Y249780D01*
X-141778D01*
X-141736Y249783D01*
X-141687Y249790D01*
X-141635Y249794D01*
X-141519Y249811D01*
X-141400Y249839D01*
X-141277Y249875D01*
X-141161Y249924D01*
X-141158Y249927D01*
X-141147Y249931D01*
X-141133Y249938D01*
X-141112Y249952D01*
X-141091Y249966D01*
X-141063Y249987D01*
X-141000Y250032D01*
X-140930Y250095D01*
X-140857Y250169D01*
X-140790Y250253D01*
X-140758Y250302D01*
X-140730Y250355D01*
Y250358D01*
X-140723Y250369D01*
X-140716Y250383D01*
X-140709Y250404D01*
X-140699Y250432D01*
X-140685Y250463D01*
X-140674Y250499D01*
X-140660Y250537D01*
X-140646Y250579D01*
X-140636Y250628D01*
X-140611Y250730D01*
X-140597Y250842D01*
X-140590Y250961D01*
Y250989D01*
X-140594Y251010D01*
Y251035D01*
X-140597Y251063D01*
X-140601Y251094D01*
X-140604Y251133D01*
X-140615Y251213D01*
X-140636Y251305D01*
X-140660Y251403D01*
X-140695Y251501D01*
Y251504D01*
X-140699Y251511D01*
X-140706Y251525D01*
X-140713Y251546D01*
X-140723Y251568D01*
X-140737Y251592D01*
X-140765Y251652D01*
X-140800Y251718D01*
X-140839Y251785D01*
X-140878Y251848D01*
X-140923Y251904D01*
X-141530D01*
Y250954D01*
X-141912D01*
Y252325D01*
X-140709D01*
X-140706Y252321D01*
D02*
G37*
G36*
Y248806D02*
X-140699Y248795D01*
X-140685Y248777D01*
X-140667Y248753D01*
X-140646Y248725D01*
X-140625Y248690D01*
X-140597Y248651D01*
X-140569Y248609D01*
X-140541Y248564D01*
X-140510Y248511D01*
X-140446Y248402D01*
X-140387Y248283D01*
X-140334Y248157D01*
Y248153D01*
X-140327Y248143D01*
X-140324Y248125D01*
X-140313Y248097D01*
X-140306Y248069D01*
X-140296Y248031D01*
X-140282Y247992D01*
X-140271Y247947D01*
X-140261Y247894D01*
X-140247Y247841D01*
X-140229Y247726D01*
X-140215Y247600D01*
X-140208Y247470D01*
Y247424D01*
X-140211Y247389D01*
X-140215Y247347D01*
X-140218Y247298D01*
X-140226Y247242D01*
X-140233Y247183D01*
X-140243Y247120D01*
X-140257Y247049D01*
X-140275Y246979D01*
X-140296Y246902D01*
X-140317Y246828D01*
X-140345Y246755D01*
X-140376Y246678D01*
X-140411Y246604D01*
X-140415Y246601D01*
X-140422Y246587D01*
X-140432Y246566D01*
X-140450Y246541D01*
X-140471Y246510D01*
X-140496Y246471D01*
X-140527Y246429D01*
X-140562Y246383D01*
X-140601Y246338D01*
X-140646Y246289D01*
X-140692Y246240D01*
X-140744Y246191D01*
X-140804Y246145D01*
X-140864Y246099D01*
X-140930Y246054D01*
X-141000Y246015D01*
X-141004Y246012D01*
X-141018Y246008D01*
X-141039Y245998D01*
X-141067Y245984D01*
X-141105Y245970D01*
X-141147Y245952D01*
X-141196Y245935D01*
X-141253Y245917D01*
X-141312Y245900D01*
X-141379Y245882D01*
X-141452Y245865D01*
X-141526Y245851D01*
X-141607Y245837D01*
X-141687Y245826D01*
X-141775Y245823D01*
X-141862Y245819D01*
X-141869D01*
X-141883D01*
X-141908D01*
X-141943Y245823D01*
X-141985Y245826D01*
X-142034Y245830D01*
X-142090Y245837D01*
X-142150Y245844D01*
X-142217Y245854D01*
X-142287Y245868D01*
X-142434Y245903D01*
X-142511Y245924D01*
X-142588Y245952D01*
X-142665Y245980D01*
X-142742Y246015D01*
X-142746Y246019D01*
X-142760Y246026D01*
X-142781Y246036D01*
X-142809Y246050D01*
X-142844Y246071D01*
X-142882Y246096D01*
X-142925Y246127D01*
X-142974Y246159D01*
X-143023Y246198D01*
X-143072Y246240D01*
X-143121Y246285D01*
X-143173Y246338D01*
X-143223Y246390D01*
X-143268Y246450D01*
X-143314Y246513D01*
X-143352Y246580D01*
X-143356Y246583D01*
X-143359Y246597D01*
X-143370Y246618D01*
X-143384Y246646D01*
X-143398Y246681D01*
X-143415Y246723D01*
X-143433Y246772D01*
X-143454Y246825D01*
X-143471Y246885D01*
X-143489Y246951D01*
X-143506Y247021D01*
X-143520Y247098D01*
X-143534Y247176D01*
X-143545Y247260D01*
X-143548Y247347D01*
X-143552Y247435D01*
Y247495D01*
X-143548Y247526D01*
X-143545Y247561D01*
X-143541Y247600D01*
X-143538Y247645D01*
X-143524Y247743D01*
X-143503Y247852D01*
X-143475Y247961D01*
X-143436Y248069D01*
Y248073D01*
X-143433Y248083D01*
X-143426Y248097D01*
X-143415Y248115D01*
X-143405Y248139D01*
X-143391Y248167D01*
X-143356Y248231D01*
X-143310Y248304D01*
X-143258Y248378D01*
X-143195Y248448D01*
X-143121Y248514D01*
X-143117Y248518D01*
X-143110Y248522D01*
X-143100Y248529D01*
X-143086Y248543D01*
X-143065Y248553D01*
X-143040Y248571D01*
X-143012Y248588D01*
X-142977Y248606D01*
X-142942Y248627D01*
X-142903Y248644D01*
X-142858Y248665D01*
X-142812Y248686D01*
X-142707Y248725D01*
X-142592Y248760D01*
X-142486Y248371D01*
X-142490D01*
X-142497Y248367D01*
X-142511Y248364D01*
X-142528Y248357D01*
X-142546Y248350D01*
X-142570Y248343D01*
X-142627Y248322D01*
X-142690Y248294D01*
X-142753Y248262D01*
X-142816Y248227D01*
X-142872Y248189D01*
X-142879Y248185D01*
X-142896Y248167D01*
X-142921Y248143D01*
X-142956Y248111D01*
X-142991Y248066D01*
X-143030Y248013D01*
X-143065Y247950D01*
X-143100Y247880D01*
Y247877D01*
X-143103Y247870D01*
X-143107Y247859D01*
X-143114Y247845D01*
X-143121Y247827D01*
X-143128Y247803D01*
X-143145Y247750D01*
X-143159Y247684D01*
X-143173Y247610D01*
X-143184Y247526D01*
X-143187Y247438D01*
Y247389D01*
X-143184Y247365D01*
Y247333D01*
X-143180Y247302D01*
X-143177Y247263D01*
X-143166Y247186D01*
X-143149Y247098D01*
X-143128Y247014D01*
X-143096Y246930D01*
Y246927D01*
X-143093Y246920D01*
X-143086Y246909D01*
X-143079Y246895D01*
X-143061Y246857D01*
X-143033Y246807D01*
X-142998Y246751D01*
X-142956Y246695D01*
X-142910Y246636D01*
X-142858Y246583D01*
X-142851Y246576D01*
X-142833Y246562D01*
X-142802Y246538D01*
X-142763Y246510D01*
X-142718Y246478D01*
X-142662Y246443D01*
X-142602Y246411D01*
X-142539Y246383D01*
X-142535D01*
X-142525Y246380D01*
X-142511Y246373D01*
X-142486Y246366D01*
X-142458Y246355D01*
X-142427Y246345D01*
X-142388Y246334D01*
X-142346Y246324D01*
X-142301Y246310D01*
X-142248Y246299D01*
X-142139Y246282D01*
X-142017Y246268D01*
X-141887Y246261D01*
X-141883D01*
X-141869D01*
X-141845D01*
X-141817Y246264D01*
X-141778D01*
X-141736Y246268D01*
X-141687Y246275D01*
X-141635Y246278D01*
X-141519Y246296D01*
X-141400Y246324D01*
X-141277Y246359D01*
X-141161Y246408D01*
X-141158Y246411D01*
X-141147Y246415D01*
X-141133Y246422D01*
X-141112Y246436D01*
X-141091Y246450D01*
X-141063Y246471D01*
X-141000Y246517D01*
X-140930Y246580D01*
X-140857Y246653D01*
X-140790Y246737D01*
X-140758Y246786D01*
X-140730Y246839D01*
Y246843D01*
X-140723Y246853D01*
X-140716Y246867D01*
X-140709Y246888D01*
X-140699Y246916D01*
X-140685Y246948D01*
X-140674Y246983D01*
X-140660Y247021D01*
X-140646Y247063D01*
X-140636Y247113D01*
X-140611Y247214D01*
X-140597Y247326D01*
X-140590Y247446D01*
Y247474D01*
X-140594Y247495D01*
Y247519D01*
X-140597Y247547D01*
X-140601Y247579D01*
X-140604Y247617D01*
X-140615Y247698D01*
X-140636Y247789D01*
X-140660Y247887D01*
X-140695Y247985D01*
Y247989D01*
X-140699Y247996D01*
X-140706Y248010D01*
X-140713Y248031D01*
X-140723Y248052D01*
X-140737Y248076D01*
X-140765Y248136D01*
X-140800Y248203D01*
X-140839Y248269D01*
X-140878Y248332D01*
X-140923Y248388D01*
X-141530D01*
Y247438D01*
X-141912D01*
Y248809D01*
X-140709D01*
X-140706Y248806D01*
D02*
G37*
G36*
X-140261Y242920D02*
X-143496D01*
Y245262D01*
X-143114D01*
Y243348D01*
X-142125D01*
Y245139D01*
X-141743D01*
Y243348D01*
X-140643D01*
Y245335D01*
X-140261D01*
Y242920D01*
D02*
G37*
G36*
X-141130Y242324D02*
X-141105D01*
X-141081Y242321D01*
X-141014Y242310D01*
X-140941Y242293D01*
X-140860Y242265D01*
X-140776Y242226D01*
X-140730Y242205D01*
X-140688Y242177D01*
X-140685D01*
X-140678Y242170D01*
X-140667Y242163D01*
X-140650Y242149D01*
X-140611Y242118D01*
X-140559Y242069D01*
X-140503Y242009D01*
X-140443Y241935D01*
X-140387Y241851D01*
X-140334Y241753D01*
Y241749D01*
X-140327Y241739D01*
X-140324Y241725D01*
X-140313Y241704D01*
X-140306Y241679D01*
X-140296Y241648D01*
X-140282Y241613D01*
X-140271Y241571D01*
X-140261Y241529D01*
X-140247Y241480D01*
X-140229Y241374D01*
X-140215Y241259D01*
X-140208Y241133D01*
Y241091D01*
X-140211Y241059D01*
Y241020D01*
X-140215Y240978D01*
X-140218Y240929D01*
X-140226Y240873D01*
X-140240Y240758D01*
X-140261Y240635D01*
X-140292Y240512D01*
X-140334Y240393D01*
Y240389D01*
X-140341Y240379D01*
X-140348Y240365D01*
X-140359Y240344D01*
X-140373Y240319D01*
X-140387Y240291D01*
X-140429Y240225D01*
X-140481Y240151D01*
X-140548Y240074D01*
X-140625Y239997D01*
X-140716Y239930D01*
X-140720Y239927D01*
X-140727Y239923D01*
X-140741Y239916D01*
X-140762Y239906D01*
X-140786Y239892D01*
X-140814Y239878D01*
X-140850Y239860D01*
X-140888Y239846D01*
X-140927Y239829D01*
X-140972Y239815D01*
X-141074Y239787D01*
X-141182Y239766D01*
X-141242Y239759D01*
X-141302Y239755D01*
X-141337Y240158D01*
X-141333D01*
X-141326D01*
X-141312Y240162D01*
X-141295Y240165D01*
X-141274Y240169D01*
X-141253Y240172D01*
X-141193Y240186D01*
X-141130Y240204D01*
X-141063Y240225D01*
X-140997Y240253D01*
X-140934Y240288D01*
X-140927Y240291D01*
X-140909Y240309D01*
X-140881Y240333D01*
X-140846Y240368D01*
X-140804Y240414D01*
X-140765Y240470D01*
X-140723Y240537D01*
X-140685Y240614D01*
Y240617D01*
X-140681Y240624D01*
X-140678Y240635D01*
X-140671Y240652D01*
X-140664Y240673D01*
X-140653Y240698D01*
X-140646Y240726D01*
X-140639Y240758D01*
X-140622Y240831D01*
X-140604Y240919D01*
X-140594Y241010D01*
X-140590Y241112D01*
Y241154D01*
X-140594Y241175D01*
Y241199D01*
X-140601Y241255D01*
X-140608Y241322D01*
X-140618Y241395D01*
X-140636Y241469D01*
X-140660Y241539D01*
Y241543D01*
X-140664Y241546D01*
X-140667Y241557D01*
X-140674Y241571D01*
X-140692Y241602D01*
X-140713Y241644D01*
X-140741Y241690D01*
X-140776Y241739D01*
X-140814Y241781D01*
X-140860Y241820D01*
X-140867Y241823D01*
X-140881Y241834D01*
X-140909Y241851D01*
X-140944Y241869D01*
X-140986Y241883D01*
X-141032Y241900D01*
X-141084Y241911D01*
X-141137Y241914D01*
X-141140D01*
X-141144D01*
X-141161D01*
X-141193Y241911D01*
X-141228Y241904D01*
X-141270Y241893D01*
X-141316Y241876D01*
X-141361Y241855D01*
X-141403Y241823D01*
X-141407Y241820D01*
X-141421Y241806D01*
X-141442Y241785D01*
X-141470Y241753D01*
X-141498Y241714D01*
X-141530Y241662D01*
X-141561Y241602D01*
X-141593Y241532D01*
X-141596Y241525D01*
X-141600Y241518D01*
X-141603Y241504D01*
X-141607Y241490D01*
X-141614Y241469D01*
X-141624Y241441D01*
X-141631Y241413D01*
X-141642Y241374D01*
X-141656Y241336D01*
X-141666Y241287D01*
X-141680Y241234D01*
X-141698Y241175D01*
X-141712Y241112D01*
X-141733Y241038D01*
X-141750Y240957D01*
Y240954D01*
X-141754Y240940D01*
X-141761Y240915D01*
X-141768Y240887D01*
X-141778Y240849D01*
X-141789Y240807D01*
X-141803Y240765D01*
X-141817Y240716D01*
X-141848Y240610D01*
X-141883Y240509D01*
X-141901Y240460D01*
X-141919Y240414D01*
X-141936Y240372D01*
X-141954Y240337D01*
Y240333D01*
X-141961Y240326D01*
X-141968Y240316D01*
X-141975Y240298D01*
X-141999Y240256D01*
X-142034Y240207D01*
X-142080Y240148D01*
X-142129Y240091D01*
X-142189Y240035D01*
X-142252Y239990D01*
X-142255D01*
X-142259Y239986D01*
X-142269Y239979D01*
X-142283Y239972D01*
X-142322Y239955D01*
X-142371Y239934D01*
X-142430Y239913D01*
X-142500Y239895D01*
X-142577Y239881D01*
X-142658Y239878D01*
X-142662D01*
X-142669D01*
X-142683D01*
X-142700Y239881D01*
X-142721D01*
X-142746Y239885D01*
X-142809Y239895D01*
X-142879Y239913D01*
X-142953Y239934D01*
X-143033Y239969D01*
X-143114Y240014D01*
X-143117D01*
X-143124Y240021D01*
X-143135Y240028D01*
X-143149Y240039D01*
X-143187Y240074D01*
X-143237Y240120D01*
X-143289Y240176D01*
X-143342Y240246D01*
X-143394Y240326D01*
X-143440Y240421D01*
Y240424D01*
X-143443Y240431D01*
X-143450Y240449D01*
X-143457Y240467D01*
X-143464Y240491D01*
X-143475Y240523D01*
X-143485Y240558D01*
X-143496Y240596D01*
X-143506Y240638D01*
X-143517Y240684D01*
X-143534Y240782D01*
X-143548Y240894D01*
X-143552Y241013D01*
Y241073D01*
X-143548Y241105D01*
X-143545Y241143D01*
X-143541Y241182D01*
X-143538Y241227D01*
X-143524Y241325D01*
X-143503Y241434D01*
X-143471Y241543D01*
X-143433Y241648D01*
Y241651D01*
X-143426Y241658D01*
X-143422Y241676D01*
X-143412Y241693D01*
X-143398Y241714D01*
X-143384Y241742D01*
X-143349Y241802D01*
X-143300Y241872D01*
X-143240Y241942D01*
X-143173Y242009D01*
X-143093Y242069D01*
X-143089Y242072D01*
X-143082Y242076D01*
X-143072Y242083D01*
X-143054Y242093D01*
X-143033Y242104D01*
X-143009Y242118D01*
X-142977Y242128D01*
X-142946Y242146D01*
X-142872Y242174D01*
X-142784Y242198D01*
X-142690Y242219D01*
X-142585Y242230D01*
X-142553Y241820D01*
X-142556D01*
X-142567Y241816D01*
X-142581D01*
X-142602Y241813D01*
X-142630Y241806D01*
X-142658Y241799D01*
X-142725Y241777D01*
X-142798Y241749D01*
X-142875Y241707D01*
X-142949Y241658D01*
X-142981Y241627D01*
X-143012Y241592D01*
X-143016Y241588D01*
X-143019Y241585D01*
X-143026Y241571D01*
X-143037Y241557D01*
X-143047Y241536D01*
X-143061Y241511D01*
X-143075Y241483D01*
X-143093Y241452D01*
X-143107Y241413D01*
X-143121Y241371D01*
X-143135Y241325D01*
X-143145Y241276D01*
X-143156Y241220D01*
X-143163Y241161D01*
X-143170Y241098D01*
Y240996D01*
X-143166Y240968D01*
Y240936D01*
X-143163Y240901D01*
X-143159Y240859D01*
X-143152Y240817D01*
X-143135Y240723D01*
X-143110Y240631D01*
X-143075Y240544D01*
X-143051Y240502D01*
X-143026Y240467D01*
Y240463D01*
X-143019Y240460D01*
X-143002Y240439D01*
X-142970Y240410D01*
X-142928Y240379D01*
X-142879Y240347D01*
X-142819Y240319D01*
X-142756Y240298D01*
X-142721Y240295D01*
X-142683Y240291D01*
X-142679D01*
X-142676D01*
X-142655Y240295D01*
X-142623Y240298D01*
X-142585Y240305D01*
X-142539Y240323D01*
X-142490Y240344D01*
X-142444Y240372D01*
X-142399Y240414D01*
X-142395Y240421D01*
X-142388Y240428D01*
X-142378Y240442D01*
X-142367Y240460D01*
X-142357Y240481D01*
X-142343Y240509D01*
X-142325Y240540D01*
X-142308Y240579D01*
X-142290Y240624D01*
X-142273Y240677D01*
X-142252Y240737D01*
X-142231Y240807D01*
X-142210Y240880D01*
X-142185Y240964D01*
X-142164Y241059D01*
Y241066D01*
X-142160Y241084D01*
X-142153Y241108D01*
X-142143Y241143D01*
X-142136Y241185D01*
X-142122Y241234D01*
X-142111Y241287D01*
X-142094Y241343D01*
X-142062Y241462D01*
X-142031Y241581D01*
X-142013Y241637D01*
X-141996Y241686D01*
X-141978Y241735D01*
X-141961Y241774D01*
Y241777D01*
X-141954Y241788D01*
X-141947Y241802D01*
X-141936Y241820D01*
X-141926Y241844D01*
X-141908Y241872D01*
X-141869Y241932D01*
X-141824Y242002D01*
X-141768Y242069D01*
X-141701Y242135D01*
X-141666Y242163D01*
X-141631Y242191D01*
X-141628D01*
X-141621Y242198D01*
X-141610Y242205D01*
X-141596Y242212D01*
X-141579Y242223D01*
X-141554Y242233D01*
X-141498Y242261D01*
X-141431Y242286D01*
X-141354Y242307D01*
X-141267Y242321D01*
X-141172Y242328D01*
X-141168D01*
X-141161D01*
X-141147D01*
X-141130Y242324D01*
D02*
G37*
G36*
X-140261Y238703D02*
X-140713D01*
Y239156D01*
X-140261D01*
Y238703D01*
D02*
G37*
G36*
Y237358D02*
Y236940D01*
X-142725Y236264D01*
X-142728D01*
X-142739Y236260D01*
X-142753Y236257D01*
X-142774Y236250D01*
X-142798Y236243D01*
X-142826Y236236D01*
X-142889Y236218D01*
X-142953Y236201D01*
X-143016Y236183D01*
X-143044Y236176D01*
X-143068Y236169D01*
X-143089Y236162D01*
X-143103Y236159D01*
X-143100D01*
X-143093Y236155D01*
X-143082D01*
X-143065Y236148D01*
X-143047Y236145D01*
X-143023Y236141D01*
X-142974Y236127D01*
X-142914Y236113D01*
X-142847Y236096D01*
X-142784Y236078D01*
X-142725Y236061D01*
X-140261Y235381D01*
Y234935D01*
X-143496Y234084D01*
Y234525D01*
X-141372Y235012D01*
X-141368D01*
X-141358Y235016D01*
X-141340Y235019D01*
X-141316Y235026D01*
X-141284Y235033D01*
X-141249Y235041D01*
X-141210Y235051D01*
X-141165Y235062D01*
X-141116Y235072D01*
X-141063Y235083D01*
X-140955Y235104D01*
X-140836Y235128D01*
X-140713Y235149D01*
X-140720D01*
X-140734Y235156D01*
X-140762Y235160D01*
X-140793Y235170D01*
X-140836Y235177D01*
X-140881Y235188D01*
X-140930Y235202D01*
X-140979Y235212D01*
X-141084Y235240D01*
X-141133Y235251D01*
X-141182Y235265D01*
X-141224Y235275D01*
X-141260Y235282D01*
X-141288Y235289D01*
X-141309Y235296D01*
X-143496Y235913D01*
Y236429D01*
X-141855Y236888D01*
X-141848Y236891D01*
X-141827Y236895D01*
X-141796Y236905D01*
X-141750Y236916D01*
X-141698Y236930D01*
X-141635Y236947D01*
X-141565Y236965D01*
X-141484Y236986D01*
X-141400Y237007D01*
X-141309Y237028D01*
X-141214Y237049D01*
X-141116Y237070D01*
X-140916Y237109D01*
X-140713Y237144D01*
X-140716D01*
X-140727Y237147D01*
X-140744Y237151D01*
X-140765Y237154D01*
X-140797Y237161D01*
X-140832Y237168D01*
X-140871Y237179D01*
X-140916Y237189D01*
X-140965Y237200D01*
X-141018Y237210D01*
X-141077Y237224D01*
X-141137Y237238D01*
X-141270Y237270D01*
X-141414Y237305D01*
X-143496Y237813D01*
Y238244D01*
X-140261Y237358D01*
D02*
G37*
G36*
Y233092D02*
Y232675D01*
X-142725Y231998D01*
X-142728D01*
X-142739Y231994D01*
X-142753Y231991D01*
X-142774Y231984D01*
X-142798Y231977D01*
X-142826Y231970D01*
X-142889Y231952D01*
X-142953Y231935D01*
X-143016Y231917D01*
X-143044Y231910D01*
X-143068Y231903D01*
X-143089Y231896D01*
X-143103Y231893D01*
X-143100D01*
X-143093Y231889D01*
X-143082D01*
X-143065Y231882D01*
X-143047Y231879D01*
X-143023Y231875D01*
X-142974Y231861D01*
X-142914Y231847D01*
X-142847Y231830D01*
X-142784Y231812D01*
X-142725Y231795D01*
X-140261Y231115D01*
Y230670D01*
X-143496Y229818D01*
Y230259D01*
X-141372Y230747D01*
X-141368D01*
X-141358Y230750D01*
X-141340Y230754D01*
X-141316Y230761D01*
X-141284Y230768D01*
X-141249Y230775D01*
X-141210Y230785D01*
X-141165Y230796D01*
X-141116Y230806D01*
X-141063Y230817D01*
X-140955Y230838D01*
X-140836Y230862D01*
X-140713Y230883D01*
X-140720D01*
X-140734Y230890D01*
X-140762Y230894D01*
X-140793Y230904D01*
X-140836Y230911D01*
X-140881Y230922D01*
X-140930Y230936D01*
X-140979Y230947D01*
X-141084Y230975D01*
X-141133Y230985D01*
X-141182Y230999D01*
X-141224Y231010D01*
X-141260Y231017D01*
X-141288Y231024D01*
X-141309Y231031D01*
X-143496Y231647D01*
Y232163D01*
X-141855Y232622D01*
X-141848Y232626D01*
X-141827Y232629D01*
X-141796Y232640D01*
X-141750Y232650D01*
X-141698Y232664D01*
X-141635Y232682D01*
X-141565Y232699D01*
X-141484Y232720D01*
X-141400Y232741D01*
X-141309Y232762D01*
X-141214Y232783D01*
X-141116Y232804D01*
X-140916Y232843D01*
X-140713Y232878D01*
X-140716D01*
X-140727Y232881D01*
X-140744Y232885D01*
X-140765Y232888D01*
X-140797Y232895D01*
X-140832Y232902D01*
X-140871Y232913D01*
X-140916Y232923D01*
X-140965Y232934D01*
X-141018Y232944D01*
X-141077Y232959D01*
X-141137Y232973D01*
X-141270Y233004D01*
X-141414Y233039D01*
X-143496Y233547D01*
Y233979D01*
X-140261Y233092D01*
D02*
G37*
G36*
Y228826D02*
Y228409D01*
X-142725Y227732D01*
X-142728D01*
X-142739Y227729D01*
X-142753Y227725D01*
X-142774Y227718D01*
X-142798Y227711D01*
X-142826Y227704D01*
X-142889Y227687D01*
X-142953Y227669D01*
X-143016Y227652D01*
X-143044Y227645D01*
X-143068Y227638D01*
X-143089Y227631D01*
X-143103Y227627D01*
X-143100D01*
X-143093Y227624D01*
X-143082D01*
X-143065Y227617D01*
X-143047Y227613D01*
X-143023Y227610D01*
X-142974Y227596D01*
X-142914Y227582D01*
X-142847Y227564D01*
X-142784Y227546D01*
X-142725Y227529D01*
X-140261Y226849D01*
Y226404D01*
X-143496Y225552D01*
Y225994D01*
X-141372Y226481D01*
X-141368D01*
X-141358Y226484D01*
X-141340Y226488D01*
X-141316Y226495D01*
X-141284Y226502D01*
X-141249Y226509D01*
X-141210Y226519D01*
X-141165Y226530D01*
X-141116Y226540D01*
X-141063Y226551D01*
X-140955Y226572D01*
X-140836Y226597D01*
X-140713Y226618D01*
X-140720D01*
X-140734Y226625D01*
X-140762Y226628D01*
X-140793Y226639D01*
X-140836Y226646D01*
X-140881Y226656D01*
X-140930Y226670D01*
X-140979Y226681D01*
X-141084Y226709D01*
X-141133Y226719D01*
X-141182Y226733D01*
X-141224Y226744D01*
X-141260Y226751D01*
X-141288Y226758D01*
X-141309Y226765D01*
X-143496Y227382D01*
Y227897D01*
X-141855Y228356D01*
X-141848Y228360D01*
X-141827Y228363D01*
X-141796Y228374D01*
X-141750Y228384D01*
X-141698Y228398D01*
X-141635Y228416D01*
X-141565Y228433D01*
X-141484Y228454D01*
X-141400Y228475D01*
X-141309Y228496D01*
X-141214Y228517D01*
X-141116Y228538D01*
X-140916Y228577D01*
X-140713Y228612D01*
X-140716D01*
X-140727Y228615D01*
X-140744Y228619D01*
X-140765Y228622D01*
X-140797Y228629D01*
X-140832Y228637D01*
X-140871Y228647D01*
X-140916Y228658D01*
X-140965Y228668D01*
X-141018Y228679D01*
X-141077Y228693D01*
X-141137Y228707D01*
X-141270Y228738D01*
X-141414Y228773D01*
X-143496Y229282D01*
Y229713D01*
X-140261Y228826D01*
D02*
G37*
%LPC*%
G36*
X-141873Y266275D02*
X-141876D01*
X-141890D01*
X-141912D01*
X-141940Y266272D01*
X-141975D01*
X-142013Y266268D01*
X-142059Y266265D01*
X-142108Y266258D01*
X-142217Y266244D01*
X-142332Y266219D01*
X-142448Y266184D01*
X-142563Y266139D01*
X-142567D01*
X-142577Y266132D01*
X-142592Y266125D01*
X-142613Y266114D01*
X-142637Y266100D01*
X-142665Y266083D01*
X-142732Y266040D01*
X-142805Y265984D01*
X-142879Y265918D01*
X-142953Y265841D01*
X-143019Y265750D01*
X-143023Y265746D01*
X-143026Y265739D01*
X-143033Y265725D01*
X-143044Y265704D01*
X-143058Y265679D01*
X-143072Y265651D01*
X-143086Y265620D01*
X-143103Y265581D01*
X-143117Y265539D01*
X-143131Y265497D01*
X-143159Y265399D01*
X-143177Y265290D01*
X-143184Y265231D01*
Y265150D01*
X-143180Y265129D01*
Y265094D01*
X-143173Y265056D01*
X-143166Y265010D01*
X-143156Y264961D01*
X-143145Y264905D01*
X-143128Y264845D01*
X-143107Y264782D01*
X-143082Y264716D01*
X-143051Y264653D01*
X-143016Y264586D01*
X-142974Y264519D01*
X-142925Y264453D01*
X-142868Y264390D01*
X-142865Y264386D01*
X-142854Y264376D01*
X-142833Y264358D01*
X-142809Y264340D01*
X-142774Y264312D01*
X-142732Y264288D01*
X-142679Y264256D01*
X-142623Y264228D01*
X-142553Y264197D01*
X-142476Y264165D01*
X-142392Y264141D01*
X-142297Y264116D01*
X-142196Y264095D01*
X-142083Y264078D01*
X-141961Y264067D01*
X-141827Y264064D01*
X-141820D01*
X-141803D01*
X-141771Y264067D01*
X-141729D01*
X-141680Y264074D01*
X-141624Y264081D01*
X-141561Y264088D01*
X-141494Y264102D01*
X-141421Y264120D01*
X-141344Y264141D01*
X-141270Y264165D01*
X-141193Y264197D01*
X-141116Y264232D01*
X-141042Y264274D01*
X-140972Y264319D01*
X-140906Y264376D01*
X-140902Y264379D01*
X-140892Y264390D01*
X-140874Y264407D01*
X-140853Y264432D01*
X-140828Y264463D01*
X-140800Y264502D01*
X-140769Y264544D01*
X-140741Y264593D01*
X-140709Y264646D01*
X-140678Y264709D01*
X-140650Y264772D01*
X-140625Y264842D01*
X-140604Y264915D01*
X-140587Y264996D01*
X-140576Y265077D01*
X-140573Y265164D01*
Y265185D01*
X-140576Y265210D01*
X-140580Y265245D01*
X-140583Y265287D01*
X-140590Y265333D01*
X-140601Y265389D01*
X-140615Y265445D01*
X-140632Y265508D01*
X-140653Y265571D01*
X-140681Y265637D01*
X-140716Y265704D01*
X-140755Y265771D01*
X-140797Y265837D01*
X-140850Y265900D01*
X-140909Y265960D01*
X-140913Y265963D01*
X-140927Y265974D01*
X-140944Y265988D01*
X-140972Y266009D01*
X-141007Y266033D01*
X-141049Y266062D01*
X-141098Y266090D01*
X-141158Y266118D01*
X-141221Y266146D01*
X-141295Y266177D01*
X-141372Y266202D01*
X-141459Y266226D01*
X-141554Y266247D01*
X-141652Y266261D01*
X-141761Y266272D01*
X-141873Y266275D01*
D02*
G37*
G36*
X-142613Y258122D02*
X-142616D01*
X-142623D01*
X-142634D01*
X-142651Y258119D01*
X-142669D01*
X-142693Y258115D01*
X-142746Y258101D01*
X-142805Y258080D01*
X-142868Y258052D01*
X-142928Y258010D01*
X-142960Y257982D01*
X-142988Y257954D01*
X-142991Y257950D01*
X-142995Y257947D01*
X-143002Y257936D01*
X-143012Y257922D01*
X-143023Y257905D01*
X-143037Y257880D01*
X-143051Y257856D01*
X-143065Y257824D01*
X-143079Y257789D01*
X-143089Y257751D01*
X-143103Y257709D01*
X-143114Y257663D01*
X-143124Y257610D01*
X-143131Y257554D01*
X-143138Y257495D01*
Y256405D01*
X-142069D01*
Y257372D01*
X-142073Y257397D01*
Y257425D01*
X-142076Y257491D01*
X-142083Y257565D01*
X-142094Y257642D01*
X-142108Y257716D01*
X-142129Y257782D01*
Y257786D01*
X-142132Y257789D01*
X-142139Y257810D01*
X-142153Y257838D01*
X-142174Y257877D01*
X-142203Y257915D01*
X-142234Y257957D01*
X-142276Y258000D01*
X-142322Y258035D01*
X-142329Y258038D01*
X-142346Y258049D01*
X-142371Y258063D01*
X-142409Y258080D01*
X-142451Y258094D01*
X-142500Y258108D01*
X-142556Y258119D01*
X-142613Y258122D01*
D02*
G37*
%LPD*%
D11*
X24384Y298196D02*
Y313436D01*
X-24384Y300108D02*
Y312420D01*
X-24892Y312928D02*
X-24384Y312420D01*
X-134112Y24036D02*
X-110213D01*
X-109728Y24384D02*
X-81280Y-4064D01*
X-110213Y24036D02*
X-109866Y24384D01*
X-81280Y-4064D02*
X-50546D01*
X-109866Y24384D02*
X-109728D01*
X74270Y284480D02*
X85463D01*
X96655D01*
X-50546Y-4064D02*
X-49530Y-3048D01*
X-1016Y292608D02*
X18796D01*
X-16884D02*
X-1016D01*
X-24384Y300108D02*
X-16884Y292608D01*
X18796D02*
X24384Y298196D01*
X18796Y292608D02*
X47642D01*
X55270Y284980D01*
Y284480D02*
Y284980D01*
X96520Y315095D02*
Y326390D01*
D13*
X-96180Y246770D02*
X-95504Y246094D01*
Y235204D02*
Y246094D01*
X-117180Y273663D02*
X-115824Y275019D01*
X-117180Y263770D02*
Y273663D01*
X-115824Y275019D02*
Y275844D01*
X91305Y-14731D02*
X91305Y-14732D01*
X108712D01*
X108712Y-14732D01*
X91804Y-3048D02*
X108712D01*
X91803Y-3049D02*
X91804Y-3048D01*
X108712D02*
X108712Y-3048D01*
X-10595Y208207D02*
X6604D01*
X-59944Y257556D02*
X-10595Y208207D01*
X6604D02*
X12699Y202111D01*
X-69694Y61534D02*
X-69645Y61583D01*
X-69694Y101534D02*
X-69645Y101485D01*
Y77773D02*
X-69596Y77724D01*
X-69645Y77675D02*
X-69596Y77724D01*
X-69645Y61583D02*
Y77675D01*
Y77773D02*
Y101485D01*
X94234Y89408D02*
X94488Y89662D01*
X89916Y89408D02*
X94234D01*
X-32893Y270637D02*
X-25782D01*
X-40640Y270328D02*
X-40422Y270546D01*
X-33238D01*
X-33020Y270764D02*
X-32893Y270637D01*
X-33238Y270546D02*
X-33020Y270764D01*
X-25782Y270637D02*
X-25691Y270546D01*
X-40640Y265684D02*
Y270328D01*
X71100Y233080D02*
X75601Y237581D01*
Y245273D02*
X75692Y245364D01*
X75601Y237581D02*
Y245273D01*
X-96038Y61560D02*
Y73634D01*
X-96064Y61534D02*
X-96038Y61560D01*
Y73634D02*
X-96012Y73660D01*
X61416Y61534D02*
X61442Y61560D01*
Y73634D01*
X61468Y73660D01*
X-92420Y178272D02*
X-92383Y178309D01*
X-92456Y170688D02*
X-92420Y170724D01*
Y178272D01*
X-82654Y178080D02*
X-55754D01*
X-83348Y170724D02*
X-83312Y170688D01*
X-83348Y170724D02*
Y178272D01*
X-83384Y178308D02*
X-82882D01*
X-82654Y178080D01*
X82804Y2540D02*
Y8382D01*
X82804Y-3047D02*
Y2540D01*
X82804Y8382D02*
X82805Y8383D01*
X82804Y2540D02*
X82804Y2540D01*
X82805Y-14731D02*
Y-3174D01*
X82679Y-3048D02*
X82805Y-3174D01*
X52070Y-3048D02*
X82679D01*
X-102844Y88621D02*
X-102616Y88392D01*
X-136942Y56424D02*
X-136906Y56388D01*
Y64516D02*
X-136688Y64734D01*
X-143728Y56424D02*
X-136942D01*
X-136688Y64734D02*
X-124677D01*
X-143764Y56460D02*
X-143728Y56424D01*
X-124677Y64734D02*
X-124459Y64951D01*
X74168Y275336D02*
Y284378D01*
X74270Y284480D01*
X74168Y275336D02*
X74259Y275245D01*
Y269331D02*
X74350Y269240D01*
X74259Y269331D02*
Y275245D01*
X100685Y61635D02*
Y74067D01*
X60960Y46736D02*
X61403D01*
X60516D02*
X60960D01*
X12191Y41583D02*
X18287D01*
X6095D02*
X12191D01*
X21336Y23876D02*
X26670Y18542D01*
Y-3048D02*
Y18542D01*
X659Y-2437D02*
X1270Y-3048D01*
X659Y-2437D02*
Y18274D01*
X-5265Y24199D02*
X659Y18274D01*
X105664Y164592D02*
X147112D01*
X69958Y35485D02*
X72569D01*
X45573D02*
X48185D01*
X72569D02*
X73152Y36068D01*
X48185Y35485D02*
X48768Y36068D01*
X49351Y35485D01*
X73152Y36068D02*
X73735Y35485D01*
X-6095Y41583D02*
Y47243D01*
X-6096Y47244D02*
X-6095Y47243D01*
X-143764Y65460D02*
Y71120D01*
Y65460D02*
X-143763Y65459D01*
X-42673Y33083D02*
X-30481D01*
X-48809D02*
X-42673D01*
X-67057Y46735D02*
X-67056Y46736D01*
X-67057Y41583D02*
Y46735D01*
X147112Y164592D02*
X154456Y171936D01*
X155956D01*
X115824Y231880D02*
X123168Y224536D01*
X147856D02*
X154456Y217936D01*
X123168Y224536D02*
X147856D01*
X115824Y231880D02*
Y232705D01*
X154456Y217936D02*
X155956D01*
X126937Y145797D02*
X126937Y145796D01*
X84328Y206756D02*
X84419Y206847D01*
Y214539D02*
X84509Y214629D01*
X84419Y206847D02*
Y214539D01*
X84328Y232156D02*
X84419Y232065D01*
Y226150D02*
Y232065D01*
Y237399D02*
X84509Y237489D01*
X84419Y232247D02*
Y237399D01*
X84328Y232156D02*
X84419Y232247D01*
Y226150D02*
X84509Y226059D01*
X84419Y237580D02*
Y245273D01*
Y237580D02*
X84509Y237489D01*
X84328Y245364D02*
X84419Y245273D01*
X-27500Y140080D02*
Y152468D01*
X-29464Y154432D02*
X-27500Y152468D01*
X-58928Y23876D02*
X-54865Y27939D01*
X-77216Y23876D02*
X-58928D01*
X-54865Y27939D02*
Y33083D01*
X-42673Y41583D02*
X-42672Y41584D01*
Y46736D02*
X-42672Y46736D01*
X-42672Y41584D02*
Y46736D01*
X-91409Y33052D02*
X-84868D01*
X-79249Y33083D02*
X-67057D01*
X37084Y220472D02*
X37704D01*
X37408Y210312D02*
X40096Y213000D01*
Y218080D02*
X55500D01*
X37084Y210312D02*
X37408D01*
X40096Y213000D02*
X55420D01*
X37704Y220472D02*
X40096Y218080D01*
X-30480Y81788D02*
X-30402Y81710D01*
Y61612D02*
X-30324Y61534D01*
X-30402Y61612D02*
Y81710D01*
X-30480Y81788D02*
X-30402Y81866D01*
Y101456D01*
X-30324Y101534D01*
X9095Y61583D02*
Y81739D01*
X9046Y101534D02*
X9095Y101485D01*
Y81837D02*
X9144Y81788D01*
X9095Y81739D02*
X9144Y81788D01*
X9046Y61534D02*
X9095Y61583D01*
Y81837D02*
Y101485D01*
X-24130Y23114D02*
X-18288Y28956D01*
X-24130Y-3048D02*
Y23114D01*
X54863Y41583D02*
X55363D01*
X61403Y46736D02*
X66556Y41583D01*
X55363D02*
X60516Y46736D01*
X66556Y41583D02*
X67056D01*
X100685Y61635D02*
X100786Y61534D01*
X100584Y74168D02*
X100685Y74067D01*
X94456Y33813D02*
X96203Y35560D01*
X91439Y33083D02*
X92169Y33813D01*
X96203Y35560D02*
X97028D01*
X92169Y33813D02*
X94456D01*
X67786D02*
X68286D01*
X67056Y33083D02*
X67786Y33813D01*
X73735Y35485D02*
X76346D01*
X78747Y33083D01*
X68286Y33813D02*
X69958Y35485D01*
X78747Y33083D02*
X79247D01*
X43401Y33813D02*
X43901D01*
X42671Y33083D02*
X43401Y33813D01*
X49351Y35485D02*
X51962D01*
X54363Y33083D01*
X43901Y33813D02*
X45573Y35485D01*
X54363Y33083D02*
X54863D01*
X19517Y33813D02*
X21189Y35485D01*
X19017Y33813D02*
X19517D01*
X18287Y33083D02*
X19017Y33813D01*
X24892Y36068D02*
X25475Y35485D01*
X27578D02*
X29979Y33083D01*
X24309Y35485D02*
X24892Y36068D01*
X25475Y35485D02*
X27578D01*
X29979Y33083D02*
X30479D01*
X21189Y35485D02*
X24309D01*
X-6095Y33083D02*
X6095D01*
X-18289D02*
X-6095D01*
X-18289D02*
X-18288Y33082D01*
Y28956D02*
Y33082D01*
X94524Y89444D02*
X98588D01*
X100786Y91642D01*
Y101534D01*
X-40640Y265684D02*
X-37500Y262544D01*
Y251080D02*
Y262544D01*
X-26348Y282008D02*
Y289492D01*
X-96064Y101534D02*
X-96064Y101534D01*
X-102616Y88392D02*
X-102527Y88481D01*
X-98569D02*
X-96064Y90986D01*
Y101534D01*
X-102527Y88481D02*
X-98569D01*
X87786Y91538D02*
Y101534D01*
Y91538D02*
X89916Y89408D01*
X-109064Y91161D02*
Y101534D01*
Y91161D02*
X-106524Y88621D01*
X-102844D01*
X61468Y89916D02*
Y101482D01*
X61416Y101534D02*
X61468Y101482D01*
X60452Y88900D02*
X61468Y89916D01*
X55372Y88900D02*
X60452D01*
X48416Y90776D02*
Y101534D01*
Y90776D02*
X50292Y88900D01*
X55372D01*
X120650Y250190D02*
Y251460D01*
X117919Y247459D02*
X120650Y250190D01*
X117919Y238759D02*
Y247459D01*
X29211Y277549D02*
X29501Y277840D01*
X36540D02*
X36830Y278130D01*
X29501Y277840D02*
X36540D01*
X147760Y238760D02*
X154940D01*
X110490Y238760D02*
X117919D01*
X117919Y238759D01*
X110490Y238760D02*
X110490Y238760D01*
X57150Y269240D02*
X57151Y269241D01*
X65351D01*
X55500Y233080D02*
X71100D01*
X-99060Y195580D02*
X-99059Y195581D01*
X-92129D01*
D15*
X-125730Y275844D02*
G03*
X-129540Y272034I0J-3810D01*
G01*
X-74676Y262636D02*
G03*
X-87884Y275844I-13208J0D01*
G01*
X-129540Y239776D02*
G03*
X-126497Y230662I15169J0D01*
G01*
X-126134Y229995D02*
G03*
X-113792Y224028I12342J9781D01*
G01*
X-87329Y226565D02*
G03*
X-94990Y229870I-7650J-7201D01*
G01*
X-80010Y222986D02*
G03*
X-70104Y213080I9906J0D01*
G01*
X-87005Y226029D02*
G03*
X-87329Y226565I-1438J-504D01*
G01*
X-87003Y226023D02*
G03*
X-80959Y215355I31903J11030D01*
G01*
X-80959Y215355D02*
G03*
X-77096Y211724I17227J14455D01*
G01*
X-77096Y211724D02*
G03*
X-66333Y208080I10796J14171D01*
G01*
X-11176Y122936D02*
X-7500Y126612D01*
Y140080D01*
X-57912Y122936D02*
X-11176D01*
X6604Y127000D02*
X15240D01*
X17500Y129260D02*
Y140080D01*
X15240Y127000D02*
X17500Y129260D01*
X-3302Y117094D02*
X6604Y127000D01*
X-16431Y117094D02*
X-3302D01*
X2540Y129540D02*
Y140040D01*
X-7112Y119888D02*
X2540Y129540D01*
X-20320Y119888D02*
X-7112D01*
X2500Y140080D02*
X2540Y140040D01*
X17781Y283465D02*
X19304Y284988D01*
X17781Y277549D02*
Y283465D01*
X-50194Y87898D02*
Y101534D01*
X-129540Y265176D02*
Y272034D01*
X-125730Y275844D02*
X-115824D01*
X-74676Y249428D02*
Y262636D01*
Y237236D02*
Y249428D01*
X-115824Y275844D02*
X-106680D01*
X-115824D02*
X-97536D01*
X-87884D01*
X-32500Y239794D02*
X-28956Y236250D01*
X-32500Y239794D02*
Y251080D01*
X-28956Y236220D02*
Y236250D01*
X107286Y88490D02*
Y101534D01*
X102616Y83820D02*
X107286Y88490D01*
X118427Y119887D02*
Y133603D01*
X118396Y119856D02*
X118427Y119887D01*
X-84138Y72834D02*
X-83820Y73152D01*
X-87639Y72834D02*
X-84138D01*
X-89486Y70987D02*
X-87639Y72834D01*
X-89486Y61612D02*
Y70987D01*
X-89564Y61534D02*
X-89486Y61612D01*
X-71628Y182906D02*
X-71541Y182993D01*
X-55841D01*
X-55754Y183080D01*
X-71654Y191542D02*
X-71394D01*
X-67932Y188080D02*
X-55754D01*
X-71394Y191542D02*
X-67932Y188080D01*
X-71628Y197668D02*
X-67040Y193080D01*
X-71628Y197668D02*
Y198628D01*
X-67040Y193080D02*
X-55754D01*
X-70528Y171196D02*
X-68644Y173080D01*
X-71628Y171196D02*
X-70528D01*
X-68644Y173080D02*
X-55754D01*
X-111216Y74132D02*
X-109142Y72058D01*
Y61612D02*
Y72058D01*
X-115316Y74168D02*
X-115280Y74132D01*
X-111216D01*
X-109142Y61612D02*
X-109064Y61534D01*
X91305Y8383D02*
X91372Y8450D01*
Y15172D02*
X91440Y15240D01*
X91372Y8450D02*
Y15172D01*
X-129540Y255270D02*
Y265176D01*
Y245872D02*
Y255270D01*
Y239776D02*
Y245872D01*
X-107188Y224028D02*
X-97028D01*
X-113792D02*
X-107188D01*
X-126497Y230662D02*
X-126259Y230354D01*
X84763Y170687D02*
X84800Y170724D01*
Y176787D01*
X84836Y176823D01*
X96520Y149860D02*
Y189992D01*
Y149860D02*
X100583Y145797D01*
X118437D01*
X84510Y147320D02*
X89408D01*
X84509Y147319D02*
X84510Y147320D01*
X89408Y182879D02*
X92964Y179323D01*
X90677Y158749D02*
X92964Y161036D01*
Y179323D01*
X-60452Y125984D02*
X-16256D01*
X-72136Y114300D02*
X-60452Y125984D01*
X-99568Y114300D02*
X-72136D01*
X126938Y145796D02*
X139260D01*
X84509Y158749D02*
X90677D01*
X51816Y113030D02*
X52070D01*
X54916Y110184D01*
X-22500Y239268D02*
X-20071Y236839D01*
Y235971D02*
Y236839D01*
X-26924Y204724D02*
Y212344D01*
X-99060Y207010D02*
X-92379D01*
X-33568Y198080D02*
X-26924Y204724D01*
X-55754Y198080D02*
X-33568D01*
X-22500Y239268D02*
Y251080D01*
X-12500Y239540D02*
Y251080D01*
X-9144Y235712D02*
Y236184D01*
X-12500Y239540D02*
X-9144Y236184D01*
X-91441Y41583D02*
X-91440Y41584D01*
Y45720D01*
X-93980Y48260D02*
X-91440Y45720D01*
X-99060Y48260D02*
X-93980D01*
X-102564Y51764D02*
X-99060Y48260D01*
X-102564Y51764D02*
Y61534D01*
X-47752Y150876D02*
X-38608D01*
X-37559Y140139D02*
Y149827D01*
X-38608Y150876D02*
X-37559Y149827D01*
X-32500Y140080D02*
Y151361D01*
X-36576Y155437D02*
Y155956D01*
Y155437D02*
X-32500Y151361D01*
X-37559Y140139D02*
X-37500Y140080D01*
X-70912Y152669D02*
Y155656D01*
X-68488Y158080D01*
X-55754D01*
X-70912Y152669D02*
X-68611Y150368D01*
X-63500D01*
X-74048Y203080D02*
X-55754D01*
X-77216Y206248D02*
X-74048Y203080D01*
X87628Y62322D02*
X87835Y62529D01*
Y73611D01*
X87884Y73660D01*
X48512Y62322D02*
X48592Y62402D01*
Y73484D01*
X48768Y73660D01*
X88392Y114300D02*
X89170Y113522D01*
X92016D02*
X94286Y111252D01*
X89170Y113522D02*
X92016D01*
X84509Y182879D02*
X89408D01*
X33020Y171196D02*
X41656Y179832D01*
X54916Y101534D02*
Y110184D01*
X11176Y120904D02*
X15546Y116534D01*
Y101534D02*
Y116534D01*
X19812Y121836D02*
X22046Y119602D01*
Y101534D02*
Y119602D01*
X19812Y121836D02*
Y122936D01*
X4572Y171196D02*
X33020D01*
X22500Y157882D02*
X27686Y163068D01*
X32519Y140099D02*
Y150883D01*
X35052Y153416D02*
X59436D01*
X32519Y150883D02*
X35052Y153416D01*
X27500Y152976D02*
X32004Y157480D01*
X27500Y140080D02*
Y152976D01*
X30988Y168148D02*
X41056Y158080D01*
X15240Y168148D02*
X30988D01*
X41056Y158080D02*
X55500D01*
X22500Y140080D02*
Y157882D01*
X12500Y165408D02*
X15240Y168148D01*
X32500Y140080D02*
X32519Y140099D01*
X136145Y119887D02*
X139514Y116518D01*
X126927Y119887D02*
X136145D01*
X139514Y106172D02*
Y116518D01*
X126927Y133603D02*
X136653D01*
X139514Y125476D02*
Y130742D01*
X136653Y133603D02*
X139514Y130742D01*
X59436Y153416D02*
X65024Y147828D01*
X147760Y145796D02*
X157480D01*
X148999Y106172D02*
X158242D01*
X150300Y125476D02*
X158242D01*
X-17395Y168080D02*
X-12192Y173283D01*
X-55754Y168080D02*
X-17395D01*
X-19304Y153332D02*
X-17500Y151528D01*
X-19304Y153332D02*
Y154432D01*
X-17500Y140080D02*
Y151528D01*
X12500Y140080D02*
Y165408D01*
X-3557Y163067D02*
X4572Y171196D01*
X42942Y169449D02*
Y170926D01*
X42164Y171704D02*
X42942Y170926D01*
X44277Y168114D02*
X55466D01*
X42942Y169449D02*
X44277Y168114D01*
X55466D02*
X55500Y168080D01*
X68580Y135636D02*
X75764D01*
X65024Y139192D02*
Y147828D01*
Y139192D02*
X68580Y135636D01*
X-54864Y41584D02*
Y51816D01*
X-54865Y41583D02*
X-54864Y41584D01*
X-56316Y53268D02*
X-54864Y51816D01*
X-56694Y61534D02*
X-56316Y61156D01*
Y53268D02*
Y61156D01*
X-79249Y49275D02*
X-76708Y51816D01*
X-79249Y41583D02*
Y49275D01*
X-76708Y51816D02*
X-65024D01*
X-63209Y53631D01*
Y61519D01*
X-63194Y61534D01*
X-91441Y33083D02*
X-91409Y33052D01*
X-84868D02*
X-84836Y33020D01*
X-84804Y33052D01*
X-79280D02*
X-79249Y33083D01*
X-84804Y33052D02*
X-79280D01*
X-56694Y101534D02*
Y115114D01*
X-63194Y101534D02*
Y117654D01*
X-57912Y122936D01*
X-12192Y173283D02*
Y173736D01*
X-83380Y207009D02*
X-82619Y206248D01*
X-77216D01*
X-83629Y195581D02*
X-83505Y195705D01*
Y206885D01*
X-83380Y207009D01*
X55480Y193060D02*
X55500Y193080D01*
X33548Y193060D02*
X55480D01*
X33528Y193040D02*
X33548Y193060D01*
X38882Y198354D02*
X55226D01*
X38608Y198628D02*
X38882Y198354D01*
X55226D02*
X55500Y198080D01*
X75184Y51308D02*
X79248Y47244D01*
X56388Y51308D02*
X75184D01*
X54916Y52780D02*
X56388Y51308D01*
X113756Y74132D02*
X113792Y74168D01*
X109692Y74132D02*
X113756D01*
X35016D02*
X35052Y74168D01*
X70068Y74132D02*
X74132D01*
X30952D02*
X35016D01*
X74132D02*
X74168Y74168D01*
X-50040Y71880D02*
X-47788Y74132D01*
X-43724D02*
X-43688Y74168D01*
X-47788Y74132D02*
X-43724D01*
X91440Y47244D02*
X94286Y50090D01*
X91439Y41583D02*
X91440Y41584D01*
Y47244D01*
X-18289Y41583D02*
X-17324Y42548D01*
Y61534D01*
X94286Y50090D02*
Y61534D01*
X79248Y41584D02*
Y47244D01*
X79247Y41583D02*
X79248Y41584D01*
X54916Y52780D02*
Y61534D01*
X24892Y50800D02*
X39624D01*
X42671Y41583D02*
Y47753D01*
X39624Y50800D02*
X42671Y47753D01*
X22352Y53340D02*
X24892Y50800D01*
X20320Y48260D02*
X27940D01*
X30479Y45721D01*
X15546Y53034D02*
X20320Y48260D01*
X22352Y53340D02*
Y61228D01*
X22046Y61534D02*
X22352Y61228D01*
X30479Y41583D02*
Y45721D01*
X15546Y53034D02*
Y61534D01*
X-23824Y52884D02*
Y61534D01*
X-30481Y46227D02*
X-23824Y52884D01*
X-30481Y41583D02*
Y46227D01*
X107440Y71880D02*
X109692Y74132D01*
X107440Y62830D02*
Y71880D01*
X67816D02*
X70068Y74132D01*
X67816Y62830D02*
Y71880D01*
X28700D02*
X30952Y74132D01*
X28700Y62830D02*
Y71880D01*
X-10824Y71980D02*
X-8672Y74132D01*
X-10824Y61534D02*
Y71980D01*
X-8672Y74132D02*
X-4608D01*
X-4572Y74168D01*
X-50040Y62830D02*
Y71880D01*
X-95003Y229870D02*
X-94990Y229870D01*
X-80010Y222986D02*
Y227076D01*
X-70104Y213080D02*
X-55754Y213080D01*
X-70104Y213080D02*
X-70104D01*
X-16256Y125984D02*
X-12500Y129740D01*
X-23824Y116384D02*
X-20320Y119888D01*
X-17324Y101534D02*
Y116201D01*
X-16431Y117094D01*
X76263Y170687D02*
Y175197D01*
X73380Y178080D02*
X76263Y175197D01*
X94286Y101534D02*
Y111252D01*
X-26348Y282008D02*
X-26280Y281940D01*
X-26416Y289560D02*
X-26348Y289492D01*
X-116260Y229870D02*
X-95003D01*
X-66333Y208080D02*
X-63254Y208080D01*
X-55754D01*
X-80010Y227076D02*
X-80010Y262232D01*
Y263470D01*
X-126259Y230354D02*
X-125259Y229871D01*
X-95880Y263470D02*
X-80010D01*
X-96180Y263770D02*
X-95880Y263470D01*
X-117180Y246770D02*
X-116260Y245850D01*
Y229870D02*
Y245850D01*
X-5832Y324599D02*
X-5166Y325265D01*
Y328590D02*
X-3048Y330708D01*
X7620D01*
X-5166Y325265D02*
Y328590D01*
X7620Y330708D02*
X10160Y328168D01*
X2500Y321440D02*
X5080Y324020D01*
Y325120D01*
X10160Y322856D02*
Y328168D01*
X2500Y310660D02*
Y321440D01*
X-5832Y324599D02*
X-2500Y321267D01*
X7500Y310660D02*
Y320196D01*
X10160Y322856D01*
X-2500Y310660D02*
Y321267D01*
X12600Y310760D02*
Y327730D01*
X15240Y330370D01*
Y331470D01*
X-17500Y310660D02*
Y328142D01*
X-20828Y331470D02*
X-17500Y328142D01*
X-23824Y101534D02*
Y116384D01*
X-12500Y129740D02*
Y140080D01*
X-102564Y111304D02*
X-99568Y114300D01*
X-102564Y101534D02*
Y111304D01*
X-94648Y83820D02*
X-89564Y88904D01*
Y101534D01*
X-94996Y83820D02*
X-94648D01*
X-54272D02*
X-50194Y87898D01*
X-55372Y83820D02*
X-54272D01*
X12500Y310660D02*
X12600Y310760D01*
X2500Y310660D02*
X2540Y310620D01*
X66762Y222798D02*
X68908Y220652D01*
Y216842D02*
X71121Y214629D01*
X68908Y216842D02*
Y220652D01*
X67310Y149860D02*
X69851Y147319D01*
X67310Y149860D02*
Y161290D01*
X69851Y147319D02*
X76009D01*
X69850Y161290D02*
Y171450D01*
X68220Y173080D02*
X69850Y171450D01*
Y161290D02*
X72391Y158749D01*
X76009D01*
X65520Y163080D02*
X67310Y161290D01*
X55500Y188080D02*
X69662D01*
X75609Y194028D01*
X70240Y208080D02*
X75701Y202619D01*
X76201D01*
X55500Y208080D02*
X70240D01*
X2540Y300990D02*
Y310620D01*
X1270Y299720D02*
X2540Y300990D01*
X-6350Y299720D02*
X1270D01*
X-7500Y300870D02*
Y310660D01*
Y300870D02*
X-6350Y299720D01*
X25146Y85344D02*
X28546Y88744D01*
Y101534D01*
X-10824Y88744D02*
Y101534D01*
X-14224Y85344D02*
X-10824Y88744D01*
X17500Y251080D02*
Y268768D01*
X17781Y269049D01*
X37500Y251080D02*
Y262220D01*
X35560Y264160D02*
X37500Y262220D01*
X30480Y264160D02*
X35560D01*
X29211Y265429D02*
X30480Y264160D01*
X29211Y265429D02*
Y269049D01*
X71121Y214629D02*
X76009D01*
X55500Y223080D02*
X55782Y222798D01*
X66762D01*
X75510Y226060D02*
Y226560D01*
X55500Y228080D02*
X73379D01*
X73661Y227798D02*
X74272D01*
X75510Y226560D01*
X73379Y228080D02*
X73661Y227798D01*
X-17780Y270510D02*
Y281940D01*
Y270510D02*
X-17640Y270370D01*
Y251220D02*
X-17500Y251080D01*
X-17640Y251220D02*
Y270370D01*
X75808Y183080D02*
X76009Y182879D01*
X55500Y183080D02*
X75808D01*
X55500Y173080D02*
X68220D01*
X55500Y178080D02*
X73380D01*
X55500Y163080D02*
X65520D01*
X63246Y84074D02*
X67916Y88744D01*
Y101534D01*
D19*
X124325Y299720D02*
D03*
D20*
X103005D02*
D03*
D21*
X96655Y284480D02*
D03*
Y314960D02*
D03*
D22*
X26670Y-3048D02*
D03*
X-49530D02*
D03*
X1270D02*
D03*
X-24130D02*
D03*
X52070D02*
D03*
D23*
X-55754Y233080D02*
D03*
Y228080D02*
D03*
Y223080D02*
D03*
Y218080D02*
D03*
Y213080D02*
D03*
Y208080D02*
D03*
Y203080D02*
D03*
Y198080D02*
D03*
Y193080D02*
D03*
Y188080D02*
D03*
Y183080D02*
D03*
Y178080D02*
D03*
Y173080D02*
D03*
Y168080D02*
D03*
Y163080D02*
D03*
Y158080D02*
D03*
X55500D02*
D03*
Y163080D02*
D03*
Y168080D02*
D03*
Y173080D02*
D03*
Y178080D02*
D03*
X55500Y183080D02*
D03*
Y188080D02*
D03*
Y193080D02*
D03*
X55500Y198080D02*
D03*
Y203080D02*
D03*
Y208080D02*
D03*
Y213080D02*
D03*
Y218080D02*
D03*
X55500Y223080D02*
D03*
Y228080D02*
D03*
X55500Y233080D02*
D03*
D24*
X-37500Y140080D02*
D03*
X-32500D02*
D03*
X-27500D02*
D03*
X-22500Y140080D02*
D03*
X-17500D02*
D03*
X-12500Y140080D02*
D03*
X-7500D02*
D03*
X-2500D02*
D03*
X2500D02*
D03*
X7500D02*
D03*
X12500D02*
D03*
X17500D02*
D03*
X22500D02*
D03*
X27500D02*
D03*
X32500D02*
D03*
X37500D02*
D03*
X37500Y251080D02*
D03*
X32500Y251080D02*
D03*
X27500D02*
D03*
X22500Y251080D02*
D03*
X17500D02*
D03*
X12500D02*
D03*
X7500D02*
D03*
X2500D02*
D03*
X-2500Y251080D02*
D03*
X-7500D02*
D03*
X-12500Y251080D02*
D03*
X-17500D02*
D03*
X-22500D02*
D03*
X-27500D02*
D03*
X-32500D02*
D03*
X-37500D02*
D03*
D25*
X-92383Y178309D02*
D03*
X-83384Y178308D02*
D03*
X-83629Y195581D02*
D03*
X-92129D02*
D03*
X-83380Y207009D02*
D03*
X-92379Y207010D02*
D03*
X-125259Y229871D02*
D03*
X-116260Y229870D02*
D03*
X84509Y237489D02*
D03*
X75510Y237490D02*
D03*
Y226060D02*
D03*
X84509Y226059D02*
D03*
X76009Y214629D02*
D03*
X84509D02*
D03*
X-26280Y270510D02*
D03*
X-17780D02*
D03*
X-26280Y281940D02*
D03*
X-17780D02*
D03*
X74350Y269240D02*
D03*
X65351Y269241D02*
D03*
X120070Y267970D02*
D03*
X111071Y267971D02*
D03*
X126419Y238759D02*
D03*
X117919D02*
D03*
X84509Y182879D02*
D03*
X76009D02*
D03*
X84763Y170687D02*
D03*
X76263D02*
D03*
X76009Y158749D02*
D03*
X84509D02*
D03*
X76009Y147319D02*
D03*
X84509D02*
D03*
X84763Y135635D02*
D03*
X75764Y135636D02*
D03*
X126937Y145797D02*
D03*
X118437D02*
D03*
X126927Y133603D02*
D03*
X118427D02*
D03*
X126927Y119887D02*
D03*
X118427D02*
D03*
X82805Y-14731D02*
D03*
X91305D02*
D03*
X82804Y-3048D02*
D03*
X91803Y-3049D02*
D03*
X91305Y8383D02*
D03*
X82805D02*
D03*
D26*
X76201Y194119D02*
D03*
Y202619D02*
D03*
X29211Y269049D02*
D03*
Y277549D02*
D03*
X17781Y269049D02*
D03*
Y277549D02*
D03*
X-40639Y279327D02*
D03*
X-40640Y270328D02*
D03*
X-30481Y33083D02*
D03*
Y41583D02*
D03*
X-18289Y33083D02*
D03*
Y41583D02*
D03*
X54863Y33083D02*
D03*
Y41583D02*
D03*
X67056D02*
D03*
Y33083D02*
D03*
X79247D02*
D03*
Y41583D02*
D03*
X91439Y33083D02*
D03*
Y41583D02*
D03*
X42671D02*
D03*
Y33083D02*
D03*
X30479D02*
D03*
Y41583D02*
D03*
X18287Y33083D02*
D03*
Y41583D02*
D03*
X6095Y33083D02*
D03*
Y41583D02*
D03*
X-6095D02*
D03*
Y33083D02*
D03*
X-42673D02*
D03*
Y41583D02*
D03*
X-54865D02*
D03*
Y33083D02*
D03*
X-67057D02*
D03*
Y41583D02*
D03*
X-79249D02*
D03*
Y33083D02*
D03*
X-91441Y41583D02*
D03*
Y33083D02*
D03*
X-143764Y56460D02*
D03*
X-143763Y65459D02*
D03*
X-124459Y64951D02*
D03*
Y56451D02*
D03*
X-80010Y263470D02*
D03*
X-80009Y272469D02*
D03*
D27*
X147760Y238760D02*
D03*
X139260D02*
D03*
X148014Y106172D02*
D03*
X139514D02*
D03*
Y125476D02*
D03*
X148014D02*
D03*
X139260Y145796D02*
D03*
X147760D02*
D03*
D28*
X140456Y178186D02*
D03*
Y211686D02*
D03*
D29*
X155956Y171936D02*
D03*
Y217936D02*
D03*
D30*
X-124612Y44036D02*
D03*
X-143612D02*
D03*
X-134112Y24036D02*
D03*
D31*
X107286Y101534D02*
D03*
X67916D02*
D03*
X28546D02*
D03*
X-10824D02*
D03*
X-50194D02*
D03*
X-89564D02*
D03*
D32*
X100786D02*
D03*
X94286D02*
D03*
X87786D02*
D03*
Y61534D02*
D03*
X94286D02*
D03*
X100786D02*
D03*
X107286D02*
D03*
X67916D02*
D03*
X61416D02*
D03*
X54916D02*
D03*
X48416D02*
D03*
Y101534D02*
D03*
X54916D02*
D03*
X61416D02*
D03*
X22046D02*
D03*
X15546D02*
D03*
X9046D02*
D03*
Y61534D02*
D03*
X15546D02*
D03*
X22046D02*
D03*
X28546D02*
D03*
X-10824D02*
D03*
X-17324D02*
D03*
X-23824D02*
D03*
X-30324D02*
D03*
Y101534D02*
D03*
X-23824D02*
D03*
X-17324D02*
D03*
X-56694D02*
D03*
X-63194D02*
D03*
X-69694D02*
D03*
Y61534D02*
D03*
X-63194D02*
D03*
X-56694D02*
D03*
X-50194D02*
D03*
X-96064Y101534D02*
D03*
X-102564D02*
D03*
X-109064D02*
D03*
Y61534D02*
D03*
X-102564D02*
D03*
X-96064D02*
D03*
X-89564D02*
D03*
D33*
X-117180Y246770D02*
D03*
X-96180D02*
D03*
Y263770D02*
D03*
X-117180D02*
D03*
D34*
X-50700Y361620D02*
D03*
X50700D02*
D03*
X-50700Y319820D02*
D03*
X50700D02*
D03*
D35*
X31000Y310670D02*
D03*
X23000Y310660D02*
D03*
X17500D02*
D03*
X7500D02*
D03*
X-7500D02*
D03*
X-17500D02*
D03*
X-23000D02*
D03*
X-30750D02*
D03*
X-33750D02*
D03*
X-26000Y310670D02*
D03*
X-12500Y310660D02*
D03*
X-2500D02*
D03*
X2500D02*
D03*
X12500D02*
D03*
X26000D02*
D03*
X34000D02*
D03*
D57*
X55270Y284480D02*
D03*
X74270D02*
D03*
D58*
X-143764Y56460D02*
X-143688Y56384D01*
Y44112D02*
X-143612Y44036D01*
X-143688Y44112D02*
Y56384D01*
X-124612Y44036D02*
X-124536Y44112D01*
Y56375D02*
X-124459Y56451D01*
X-124536Y44112D02*
Y56375D01*
X105410Y267970D02*
X105410Y267970D01*
X111070D02*
X111071Y267971D01*
X105410Y267970D02*
X111070D01*
D59*
X126420Y238760D02*
X139260D01*
X126419Y238759D02*
X126420Y238760D01*
X139260D02*
X139260Y238760D01*
D60*
X52300Y320040D02*
X71120D01*
X52300Y361950D02*
X71120D01*
X-69850Y320040D02*
X-51030D01*
X-69520Y361620D02*
X-50700D01*
D61*
X155956Y186436D02*
D03*
Y203436D02*
D03*
D62*
X-28900Y325120D02*
D03*
X28900D02*
D03*
D63*
X-56694Y115114D02*
D03*
X-1016Y279908D02*
D03*
X19304Y284988D02*
D03*
X-95504Y235204D02*
D03*
X-115824Y275844D02*
D03*
X-106680D02*
D03*
X-97536D02*
D03*
X-87884D02*
D03*
X-74676Y249428D02*
D03*
Y237236D02*
D03*
X-125730Y275844D02*
D03*
X108712Y-14732D02*
D03*
Y-3048D02*
D03*
X-59944Y257556D02*
D03*
X-28956Y236220D02*
D03*
X12699Y202111D02*
D03*
X-11938Y201857D02*
D03*
X12010Y220907D02*
D03*
X-69596Y77724D02*
D03*
X102616Y83820D02*
D03*
X94488Y89662D02*
D03*
X118337Y126836D02*
D03*
X55372Y88900D02*
D03*
X-33020Y270764D02*
D03*
X75692Y245364D02*
D03*
X-83820Y73152D02*
D03*
X-96012Y73660D02*
D03*
X61468D02*
D03*
X-92456Y170688D02*
D03*
X-71628Y182906D02*
D03*
X-90932Y186436D02*
D03*
X-71654Y191542D02*
D03*
X-71628Y198628D02*
D03*
Y171196D02*
D03*
X-83312Y170688D02*
D03*
X-109728Y24384D02*
D03*
X-115316Y74168D02*
D03*
X82804Y2540D02*
D03*
X118797Y154794D02*
D03*
X-102616Y88392D02*
D03*
X-136906Y56388D02*
D03*
Y64516D02*
D03*
X-128016Y122428D02*
D03*
X91440Y15240D02*
D03*
X-137668Y84836D02*
D03*
X-124460Y50292D02*
D03*
X-12954Y220980D02*
D03*
X74168Y275336D02*
D03*
X85463Y284480D02*
D03*
X-86360Y235204D02*
D03*
X-107188Y224028D02*
D03*
X-129540Y245872D02*
D03*
Y236728D02*
D03*
Y265176D02*
D03*
X21336Y23876D02*
D03*
X-5265Y24199D02*
D03*
X96520Y189992D02*
D03*
X103632Y150182D02*
D03*
X106172Y187960D02*
D03*
X89408Y147320D02*
D03*
X84836Y176823D02*
D03*
X-99060Y195580D02*
D03*
X48768Y36068D02*
D03*
X73152D02*
D03*
X-6095Y47243D02*
D03*
X-143764Y71120D02*
D03*
X51816Y113030D02*
D03*
X-20071Y235971D02*
D03*
X-26924Y212344D02*
D03*
X-99060Y207010D02*
D03*
X-9144Y235712D02*
D03*
X-36576Y155956D02*
D03*
X-47752Y150876D02*
D03*
X-63500Y150368D02*
D03*
X87884Y73660D02*
D03*
X48768D02*
D03*
X-71628Y163576D02*
D03*
X-67161Y136039D02*
D03*
X-38608Y174244D02*
D03*
X88392Y114300D02*
D03*
X-67057Y46735D02*
D03*
X-48809Y33083D02*
D03*
X115824Y232705D02*
D03*
X128016Y232156D02*
D03*
X105664Y164592D02*
D03*
X89408Y182880D02*
D03*
X41656Y179832D02*
D03*
X11176Y120904D02*
D03*
X19812Y122936D02*
D03*
X27686Y163068D02*
D03*
X32004Y157480D02*
D03*
X157480Y145796D02*
D03*
X158242Y106172D02*
D03*
Y125476D02*
D03*
X130048Y188468D02*
D03*
X139700Y192024D02*
D03*
X96505Y227287D02*
D03*
X96592Y215900D02*
D03*
X96419Y203873D02*
D03*
X-87609Y129031D02*
D03*
X-118872Y153924D02*
D03*
X-128524D02*
D03*
X-74455Y142889D02*
D03*
X-145820Y139796D02*
D03*
X-127508Y192532D02*
D03*
X84328Y206756D02*
D03*
Y232156D02*
D03*
Y245364D02*
D03*
X-29464Y154432D02*
D03*
Y174244D02*
D03*
X-19304Y154432D02*
D03*
X42164Y171704D02*
D03*
X-77216Y23876D02*
D03*
X-42672Y46736D02*
D03*
X-84836Y33020D02*
D03*
X-3557Y163067D02*
D03*
X-12192Y173736D02*
D03*
X37084Y210312D02*
D03*
Y220472D02*
D03*
X12772Y182299D02*
D03*
X-11684Y182372D02*
D03*
X33528Y193040D02*
D03*
X38608Y198628D02*
D03*
X-30480Y77724D02*
D03*
X9144D02*
D03*
X12191Y41583D02*
D03*
X60960Y46736D02*
D03*
X100584Y73660D02*
D03*
X113792D02*
D03*
X74168D02*
D03*
X35052D02*
D03*
X-43688Y74168D02*
D03*
X97028Y35560D02*
D03*
X24892Y36068D02*
D03*
X-4572Y74168D02*
D03*
X-26416Y289560D02*
D03*
X-97028Y224028D02*
D03*
X5080Y325120D02*
D03*
X-5832Y325120D02*
D03*
X15240Y331470D02*
D03*
X-20828D02*
D03*
X-1016Y292608D02*
D03*
X-94996Y83820D02*
D03*
X-55372D02*
D03*
X36830Y278130D02*
D03*
X137160Y262890D02*
D03*
Y250190D02*
D03*
X128270D02*
D03*
Y262890D02*
D03*
X140970Y256540D02*
D03*
X132080D02*
D03*
X123190D02*
D03*
X105410Y267970D02*
D03*
X110490Y238760D02*
D03*
X154940D02*
D03*
X96520Y326390D02*
D03*
X57150Y269240D02*
D03*
X25146Y83820D02*
D03*
X-14224D02*
D03*
X71120Y320040D02*
D03*
Y361950D02*
D03*
X-69850Y320040D02*
D03*
X-69520Y361620D02*
D03*
X-129540Y255270D02*
D03*
X63246Y83820D02*
D03*
X5080Y350520D02*
D03*
X-8128Y350774D02*
D03*
M02*
