G04*
G04 #@! TF.GenerationSoftware,Altium Limited,Altium Designer,24.4.1 (13)*
G04*
G04 Layer_Color=8421504*
%FSLAX44Y44*%
%MOMM*%
G71*
G04*
G04 #@! TF.SameCoordinates,5B9D864D-5E35-406A-883C-83798F26ABC7*
G04*
G04*
G04 #@! TF.FilePolarity,Positive*
G04*
G01*
G75*
%ADD16C,0.0762*%
%ADD18R,0.5842X1.0534*%
%ADD19O,3.8100X2.0320*%
%ADD20R,2.5400X0.8636*%
%ADD21R,1.2700X0.8640*%
%ADD22R,1.5240X3.8000*%
%ADD23O,1.8000X0.3000*%
%ADD24O,0.3000X1.8000*%
%ADD25R,0.4000X0.5000*%
%ADD26R,0.5000X0.4000*%
%ADD27R,0.5500X0.6000*%
%ADD28R,1.3000X1.1500*%
%ADD29R,1.2000X0.9000*%
%ADD30R,0.8000X0.9000*%
%ADD31R,0.3500X1.3000*%
%ADD32O,0.3500X1.3000*%
%ADD33R,1.3000X1.2000*%
%ADD34R,1.8000X1.2000*%
%ADD35R,0.3000X1.4500*%
D16*
X58170Y286340D02*
G03*
X58170Y282620I0J-1860D01*
G01*
X71370D02*
G03*
X71370Y286340I0J1860D01*
G01*
X56010D02*
X59566D01*
X56010Y282620D02*
X59566D01*
X52738Y286766D02*
X59566D01*
X52708Y282194D02*
X59566D01*
X52708Y281432D02*
X59566D01*
X52708Y280670D02*
X59566D01*
X52708Y279908D02*
X59566D01*
X52728Y287528D02*
X59566D01*
X52718Y288290D02*
X59566D01*
X52708Y289052D02*
X59566D01*
Y279280D02*
Y282620D01*
X50546Y279280D02*
X59566D01*
X50546D02*
Y289680D01*
X59566D01*
Y286340D02*
Y289680D01*
X58170Y286340D02*
X59566D01*
X58170Y282620D02*
X59566D01*
X69974Y286340D02*
X71370D01*
X69974Y282620D02*
X71370D01*
X69974Y279280D02*
Y282620D01*
Y279280D02*
X78994D01*
Y289680D01*
X69974D02*
X78994D01*
X69974Y286340D02*
Y289680D01*
Y279908D02*
X76832D01*
X69974Y280670D02*
X76822D01*
X69974Y281432D02*
X76812D01*
X69974Y289052D02*
X76832D01*
X69974Y288290D02*
X76832D01*
X69974Y287528D02*
X76832D01*
X69974Y286766D02*
X76832D01*
X69974Y282194D02*
X76802D01*
X69974Y286340D02*
X73530D01*
X69974Y282620D02*
X73530D01*
D18*
X53719Y284559D02*
D03*
X75817Y284425D02*
D03*
D19*
X124325Y299720D02*
D03*
D20*
X103005D02*
D03*
D21*
X96655Y284480D02*
D03*
Y314960D02*
D03*
D22*
X26670Y-3048D02*
D03*
X-49530D02*
D03*
X1270D02*
D03*
X-24130D02*
D03*
X52070D02*
D03*
D23*
X-55754Y233080D02*
D03*
Y228080D02*
D03*
Y223080D02*
D03*
Y218080D02*
D03*
Y213080D02*
D03*
Y208080D02*
D03*
Y203080D02*
D03*
Y198080D02*
D03*
Y193080D02*
D03*
Y188080D02*
D03*
Y183080D02*
D03*
Y178080D02*
D03*
Y173080D02*
D03*
Y168080D02*
D03*
Y163080D02*
D03*
Y158080D02*
D03*
X55500D02*
D03*
Y163080D02*
D03*
Y168080D02*
D03*
Y173080D02*
D03*
Y178080D02*
D03*
X55500Y183080D02*
D03*
Y188080D02*
D03*
Y193080D02*
D03*
X55500Y198080D02*
D03*
Y203080D02*
D03*
Y208080D02*
D03*
Y213080D02*
D03*
Y218080D02*
D03*
X55500Y223080D02*
D03*
Y228080D02*
D03*
X55500Y233080D02*
D03*
D24*
X-37500Y140080D02*
D03*
X-32500D02*
D03*
X-27500D02*
D03*
X-22500Y140080D02*
D03*
X-17500D02*
D03*
X-12500Y140080D02*
D03*
X-7500D02*
D03*
X-2500D02*
D03*
X2500D02*
D03*
X7500D02*
D03*
X12500D02*
D03*
X17500D02*
D03*
X22500D02*
D03*
X27500D02*
D03*
X32500D02*
D03*
X37500D02*
D03*
X37500Y251080D02*
D03*
X32500Y251080D02*
D03*
X27500D02*
D03*
X22500Y251080D02*
D03*
X17500D02*
D03*
X12500D02*
D03*
X7500D02*
D03*
X2500D02*
D03*
X-2500Y251080D02*
D03*
X-7500D02*
D03*
X-12500Y251080D02*
D03*
X-17500D02*
D03*
X-22500D02*
D03*
X-27500D02*
D03*
X-32500D02*
D03*
X-37500D02*
D03*
D25*
X-92383Y178309D02*
D03*
X-83384Y178308D02*
D03*
X-83629Y195581D02*
D03*
X-92129D02*
D03*
X-83380Y207009D02*
D03*
X-92379Y207010D02*
D03*
X-125259Y229871D02*
D03*
X-116260Y229870D02*
D03*
X84509Y237489D02*
D03*
X75510Y237490D02*
D03*
Y226060D02*
D03*
X84509Y226059D02*
D03*
X76009Y214629D02*
D03*
X84509D02*
D03*
X-26280Y270510D02*
D03*
X-17780D02*
D03*
X-26280Y281940D02*
D03*
X-17780D02*
D03*
X74350Y269240D02*
D03*
X65351Y269241D02*
D03*
X120070Y267970D02*
D03*
X111071Y267971D02*
D03*
X126419Y238759D02*
D03*
X117919D02*
D03*
X84509Y182879D02*
D03*
X76009D02*
D03*
X84763Y170687D02*
D03*
X76263D02*
D03*
X76009Y158749D02*
D03*
X84509D02*
D03*
X76009Y147319D02*
D03*
X84509D02*
D03*
X84763Y135635D02*
D03*
X75764Y135636D02*
D03*
X126937Y145797D02*
D03*
X118437D02*
D03*
X126927Y133603D02*
D03*
X118427D02*
D03*
X126927Y119887D02*
D03*
X118427D02*
D03*
X82805Y-14731D02*
D03*
X91305D02*
D03*
X82804Y-3048D02*
D03*
X91803Y-3049D02*
D03*
X91305Y8383D02*
D03*
X82805D02*
D03*
D26*
X76201Y194119D02*
D03*
Y202619D02*
D03*
X29211Y269049D02*
D03*
Y277549D02*
D03*
X17781Y269049D02*
D03*
Y277549D02*
D03*
X-40639Y279327D02*
D03*
X-40640Y270328D02*
D03*
X-30481Y33083D02*
D03*
Y41583D02*
D03*
X-18289Y33083D02*
D03*
Y41583D02*
D03*
X54863Y33083D02*
D03*
Y41583D02*
D03*
X67056D02*
D03*
Y33083D02*
D03*
X79247D02*
D03*
Y41583D02*
D03*
X91439Y33083D02*
D03*
Y41583D02*
D03*
X42671D02*
D03*
Y33083D02*
D03*
X30479D02*
D03*
Y41583D02*
D03*
X18287Y33083D02*
D03*
Y41583D02*
D03*
X6095Y33083D02*
D03*
Y41583D02*
D03*
X-6095D02*
D03*
Y33083D02*
D03*
X-42673D02*
D03*
Y41583D02*
D03*
X-54865D02*
D03*
Y33083D02*
D03*
X-67057D02*
D03*
Y41583D02*
D03*
X-79249D02*
D03*
Y33083D02*
D03*
X-91441Y41583D02*
D03*
Y33083D02*
D03*
X-143764Y56460D02*
D03*
X-143763Y65459D02*
D03*
X-124459Y64951D02*
D03*
Y56451D02*
D03*
X-80010Y263470D02*
D03*
X-80009Y272469D02*
D03*
D27*
X147760Y238760D02*
D03*
X139260D02*
D03*
X148014Y106172D02*
D03*
X139514D02*
D03*
Y125476D02*
D03*
X148014D02*
D03*
X139260Y145796D02*
D03*
X147760D02*
D03*
D28*
X140456Y178186D02*
D03*
Y211686D02*
D03*
D29*
X155956Y171936D02*
D03*
Y217936D02*
D03*
D30*
X-124612Y44036D02*
D03*
X-143612D02*
D03*
X-134112Y24036D02*
D03*
D31*
X107286Y101534D02*
D03*
X67916D02*
D03*
X28546D02*
D03*
X-10824D02*
D03*
X-50194D02*
D03*
X-89564D02*
D03*
D32*
X100786D02*
D03*
X94286D02*
D03*
X87786D02*
D03*
Y61534D02*
D03*
X94286D02*
D03*
X100786D02*
D03*
X107286D02*
D03*
X67916D02*
D03*
X61416D02*
D03*
X54916D02*
D03*
X48416D02*
D03*
Y101534D02*
D03*
X54916D02*
D03*
X61416D02*
D03*
X22046D02*
D03*
X15546D02*
D03*
X9046D02*
D03*
Y61534D02*
D03*
X15546D02*
D03*
X22046D02*
D03*
X28546D02*
D03*
X-10824D02*
D03*
X-17324D02*
D03*
X-23824D02*
D03*
X-30324D02*
D03*
Y101534D02*
D03*
X-23824D02*
D03*
X-17324D02*
D03*
X-56694D02*
D03*
X-63194D02*
D03*
X-69694D02*
D03*
Y61534D02*
D03*
X-63194D02*
D03*
X-56694D02*
D03*
X-50194D02*
D03*
X-96064Y101534D02*
D03*
X-102564D02*
D03*
X-109064D02*
D03*
Y61534D02*
D03*
X-102564D02*
D03*
X-96064D02*
D03*
X-89564D02*
D03*
D33*
X-117180Y246770D02*
D03*
X-96180D02*
D03*
Y263770D02*
D03*
X-117180D02*
D03*
D34*
X-50700Y361620D02*
D03*
X50700D02*
D03*
X-50700Y319820D02*
D03*
X50700D02*
D03*
D35*
X31000Y310670D02*
D03*
X23000Y310660D02*
D03*
X17500D02*
D03*
X7500D02*
D03*
X-7500D02*
D03*
X-17500D02*
D03*
X-23000D02*
D03*
X-30750D02*
D03*
X-33750D02*
D03*
X-26000Y310670D02*
D03*
X-12500Y310660D02*
D03*
X-2500D02*
D03*
X2500D02*
D03*
X12500D02*
D03*
X26000D02*
D03*
X34000D02*
D03*
M02*
