G04*
G04 #@! TF.GenerationSoftware,Altium Limited,Altium Designer,24.4.1 (13)*
G04*
G04 Layer_Color=16711935*
%FSLAX44Y44*%
%MOMM*%
G71*
G04*
G04 #@! TF.SameCoordinates,5AD5FF80-1175-482D-978A-231780835DF3*
G04*
G04*
G04 #@! TF.FilePolarity,Negative*
G04*
G01*
G75*
%ADD40R,1.7272X4.0032*%
%ADD43R,0.6032X0.7032*%
%ADD44R,0.7032X0.6032*%
%ADD55C,0.5032*%
%ADD56C,0.5282*%
%ADD70R,0.8032X1.1032*%
%ADD71R,1.2032X0.8032*%
%ADD72R,0.8032X1.2532*%
%ADD73R,0.5032X0.6782*%
%ADD74R,1.1032X1.0032*%
%ADD75R,0.9652X0.9652*%
D40*
X26670Y-3048D02*
D03*
X-49530D02*
D03*
X-24130D02*
D03*
X1270D02*
D03*
X52070D02*
D03*
D43*
X-130483Y85343D02*
D03*
X-121983D02*
D03*
X-121993Y97029D02*
D03*
X-130493D02*
D03*
X-104585Y186437D02*
D03*
X-96085D02*
D03*
X125549Y152399D02*
D03*
X134049D02*
D03*
X125549Y164083D02*
D03*
X134548Y164084D02*
D03*
X105601Y209803D02*
D03*
X97101D02*
D03*
X105591Y221489D02*
D03*
X96592Y221488D02*
D03*
X105591Y233173D02*
D03*
X96592Y233172D02*
D03*
X-29536Y163068D02*
D03*
X-38535Y163067D02*
D03*
X-19231D02*
D03*
X-10731D02*
D03*
X-38535Y186943D02*
D03*
X-30035D02*
D03*
X-38535Y198627D02*
D03*
X-30035D02*
D03*
X96977Y171319D02*
D03*
X105477D02*
D03*
X-94551Y129031D02*
D03*
X-103051D02*
D03*
D44*
X-8127Y340805D02*
D03*
Y332305D02*
D03*
X5081Y340551D02*
D03*
Y332051D02*
D03*
X-71629Y156391D02*
D03*
X-71628Y147392D02*
D03*
X-153417Y156391D02*
D03*
X-153416Y147392D02*
D03*
X-18288Y173808D02*
D03*
X-18289Y182807D02*
D03*
X-6095Y173809D02*
D03*
Y182309D02*
D03*
X6095Y182299D02*
D03*
Y173799D02*
D03*
X-18289Y202111D02*
D03*
X-18288Y193112D02*
D03*
X-6349Y202302D02*
D03*
Y193802D02*
D03*
X5841Y193792D02*
D03*
Y202292D02*
D03*
X97536Y158932D02*
D03*
X97537Y149933D02*
D03*
X109727Y158931D02*
D03*
Y150431D02*
D03*
X116841Y225489D02*
D03*
Y216989D02*
D03*
X128016Y225988D02*
D03*
X128017Y216989D02*
D03*
X-18543Y221415D02*
D03*
X-18542Y212416D02*
D03*
X-6603Y220917D02*
D03*
Y212417D02*
D03*
X5333Y212407D02*
D03*
Y220907D02*
D03*
D55*
X155956Y186436D02*
D03*
Y203436D02*
D03*
D56*
X-28900Y325120D02*
D03*
X28900D02*
D03*
D70*
X8484Y268924D02*
D03*
X-1016D02*
D03*
X-10516D02*
D03*
Y292924D02*
D03*
X-1016D02*
D03*
X8484D02*
D03*
D71*
X-118872Y108966D02*
D03*
Y122682D02*
D03*
X-138176Y115824D02*
D03*
X-117856Y186436D02*
D03*
X-137160Y179578D02*
D03*
Y193294D02*
D03*
D72*
X-137872Y139700D02*
D03*
X-118872D02*
D03*
Y163700D02*
D03*
X-128372D02*
D03*
X-137872D02*
D03*
X139548Y178500D02*
D03*
X130048D02*
D03*
X120548D02*
D03*
Y202500D02*
D03*
X139548D02*
D03*
D73*
X96419Y181865D02*
D03*
X101419D02*
D03*
X106419D02*
D03*
Y198625D02*
D03*
X101419D02*
D03*
X96419D02*
D03*
D74*
X-83980Y161392D02*
D03*
Y142392D02*
D03*
X-103980Y151892D02*
D03*
D75*
X-67161Y128525D02*
D03*
X-80161D02*
D03*
M02*
