G04*
G04 #@! TF.GenerationSoftware,Altium Limited,Altium Designer,24.4.1 (13)*
G04*
G04 Layer_Physical_Order=3*
G04 Layer_Color=16440176*
%FSLAX44Y44*%
%MOMM*%
G71*
G04*
G04 #@! TF.SameCoordinates,5B9D864D-5E35-406A-883C-83798F26ABC7*
G04*
G04*
G04 #@! TF.FilePolarity,Positive*
G04*
G01*
G75*
%ADD15C,0.1524*%
%ADD63C,1.0000*%
%ADD64R,1.0000X1.0000*%
%ADD65C,0.3000*%
%ADD66C,0.3250*%
%ADD67C,0.5588*%
G36*
X133336Y374133D02*
X137505Y373016D01*
X141492Y371365D01*
X145229Y369207D01*
X148653Y366580D01*
X151704Y363529D01*
X154331Y360105D01*
X156489Y356368D01*
X158140Y352381D01*
X159257Y348212D01*
X159821Y343934D01*
Y325455D01*
X158551Y324971D01*
X157750Y325771D01*
X156256Y326390D01*
X154640D01*
X153146Y325771D01*
X152003Y324628D01*
X151384Y323134D01*
Y321518D01*
X152003Y320024D01*
X153146Y318881D01*
X153747Y318632D01*
Y317257D01*
X153146Y317008D01*
X152003Y315865D01*
X151384Y314371D01*
Y312755D01*
X152003Y311261D01*
X153146Y310118D01*
X153747Y309869D01*
Y308494D01*
X153146Y308245D01*
X152003Y307102D01*
X151384Y305608D01*
Y303992D01*
X152003Y302498D01*
X153146Y301355D01*
X154640Y300736D01*
X156256D01*
X157750Y301355D01*
X158551Y302155D01*
X159821Y301671D01*
Y292181D01*
X158551Y291697D01*
X157750Y292497D01*
X156256Y293116D01*
X154640D01*
X153146Y292497D01*
X152003Y291354D01*
X151384Y289860D01*
Y288244D01*
X152003Y286750D01*
X153146Y285607D01*
X153747Y285358D01*
Y283983D01*
X153146Y283734D01*
X152003Y282591D01*
X151384Y281097D01*
Y279481D01*
X152003Y277987D01*
X153146Y276844D01*
X153747Y276595D01*
Y275220D01*
X153146Y274971D01*
X152003Y273828D01*
X151384Y272334D01*
Y270718D01*
X152003Y269224D01*
X153146Y268081D01*
X154640Y267462D01*
X156256D01*
X157750Y268081D01*
X158551Y268881D01*
X159821Y268397D01*
Y240916D01*
X158551Y240663D01*
X158385Y241062D01*
X157242Y242205D01*
X155748Y242824D01*
X154132D01*
X152638Y242205D01*
X151495Y241062D01*
X150876Y239568D01*
Y237952D01*
X151495Y236458D01*
X152638Y235315D01*
X154132Y234696D01*
X155748D01*
X157242Y235315D01*
X158385Y236458D01*
X158551Y236857D01*
X159821Y236604D01*
Y209065D01*
X158551Y208358D01*
X157058Y208976D01*
X154854D01*
X152818Y208133D01*
X151259Y206574D01*
X150416Y204538D01*
Y202334D01*
X151259Y200298D01*
X152818Y198739D01*
X154854Y197896D01*
X157058D01*
X158551Y198514D01*
X159821Y197806D01*
Y192066D01*
X158551Y191358D01*
X157058Y191976D01*
X154854D01*
X152818Y191133D01*
X151259Y189574D01*
X150416Y187538D01*
Y185334D01*
X151259Y183298D01*
X152818Y181739D01*
X154854Y180896D01*
X157058D01*
X158551Y181514D01*
X159821Y180807D01*
Y150600D01*
X158551Y149751D01*
X158288Y149860D01*
X156672D01*
X155178Y149241D01*
X154035Y148098D01*
X153416Y146604D01*
Y144988D01*
X154035Y143494D01*
X155178Y142351D01*
X156672Y141732D01*
X158288D01*
X158551Y141841D01*
X159821Y140992D01*
Y130055D01*
X159050Y129540D01*
X157434D01*
X155940Y128921D01*
X154797Y127778D01*
X154178Y126284D01*
Y124668D01*
X154797Y123174D01*
X155940Y122031D01*
X157434Y121412D01*
X159050D01*
X159821Y120897D01*
Y110751D01*
X159050Y110236D01*
X157434D01*
X155940Y109617D01*
X154797Y108474D01*
X154178Y106980D01*
Y105364D01*
X154797Y103870D01*
X155940Y102727D01*
X157434Y102108D01*
X159050D01*
X159821Y101593D01*
Y-7112D01*
Y-9270D01*
X159257Y-13548D01*
X158140Y-17717D01*
X156489Y-21704D01*
X154331Y-25441D01*
X151704Y-28865D01*
X148653Y-31916D01*
X145229Y-34543D01*
X141492Y-36701D01*
X137505Y-38352D01*
X133336Y-39469D01*
X129058Y-40033D01*
X107009D01*
Y-19394D01*
X107904Y-18796D01*
X109520D01*
X111014Y-18177D01*
X112157Y-17034D01*
X112776Y-15540D01*
Y-13924D01*
X112157Y-12430D01*
X111014Y-11287D01*
X109520Y-10668D01*
X107904D01*
X107009Y-10070D01*
Y-7710D01*
X107904Y-7112D01*
X109520D01*
X111014Y-6493D01*
X112157Y-5350D01*
X112776Y-3856D01*
Y-2240D01*
X112157Y-746D01*
X111014Y397D01*
X109520Y1016D01*
X107904D01*
X107009Y1614D01*
Y9652D01*
X106713Y11139D01*
X105871Y12399D01*
X104611Y13241D01*
X103124Y13537D01*
X96102D01*
X95504Y14432D01*
Y16048D01*
X94885Y17542D01*
X93742Y18685D01*
X92248Y19304D01*
X90632D01*
X89138Y18685D01*
X87995Y17542D01*
X87376Y16048D01*
Y14432D01*
X86778Y13537D01*
X-100584D01*
X-102071Y13241D01*
X-103331Y12399D01*
X-104173Y11139D01*
X-104469Y9652D01*
Y-40033D01*
X-129058D01*
X-133336Y-39469D01*
X-137505Y-38352D01*
X-141492Y-36701D01*
X-145229Y-34543D01*
X-148653Y-31916D01*
X-151704Y-28865D01*
X-154331Y-25441D01*
X-156489Y-21704D01*
X-158140Y-17717D01*
X-159257Y-13548D01*
X-159821Y-9270D01*
Y-7112D01*
Y40399D01*
X-158647Y40886D01*
X-150067Y32305D01*
X-148807Y31463D01*
X-147320Y31167D01*
X-137160D01*
X-135673Y31463D01*
X-134413Y32305D01*
X-128825Y37893D01*
X-127983Y39153D01*
X-127687Y40640D01*
Y46113D01*
X-126417Y46704D01*
X-125268Y46228D01*
X-123652D01*
X-122158Y46847D01*
X-121015Y47990D01*
X-120396Y49484D01*
Y51100D01*
X-121015Y52594D01*
X-122158Y53737D01*
X-123652Y54356D01*
X-125268D01*
X-126417Y53880D01*
X-127687Y54471D01*
Y64516D01*
X-127983Y66003D01*
X-128825Y67263D01*
X-134228Y72666D01*
X-133742Y73839D01*
X-119380D01*
Y73360D01*
X-118761Y71866D01*
X-117618Y70723D01*
X-116124Y70104D01*
X-114508D01*
X-113576Y70490D01*
X-110188Y67102D01*
X-110005Y57785D01*
X-109851Y57081D01*
X-109710Y56375D01*
X-109689Y56342D01*
X-109680Y56304D01*
X-109268Y55713D01*
X-108868Y55114D01*
X-93915Y40161D01*
X-88514Y34760D01*
X-88900Y33828D01*
Y32212D01*
X-88281Y30718D01*
X-87138Y29575D01*
X-85644Y28956D01*
X-84028D01*
X-82534Y29575D01*
X-81391Y30718D01*
X-80784Y32183D01*
X-52835D01*
X-52254Y30781D01*
X-51111Y29638D01*
X-49617Y29019D01*
X-48000D01*
X-46507Y29638D01*
X-45363Y30781D01*
X-44783Y32183D01*
X20748D01*
X21124Y32258D01*
X21506D01*
X21860Y32404D01*
X22235Y32479D01*
X22534Y32679D01*
X22590Y32623D01*
X24084Y32004D01*
X25700D01*
X27194Y32623D01*
X27250Y32679D01*
X27549Y32479D01*
X27924Y32404D01*
X28278Y32258D01*
X28660D01*
X29036Y32183D01*
X44624D01*
X45000Y32258D01*
X45382D01*
X45736Y32404D01*
X46111Y32479D01*
X46410Y32679D01*
X46466Y32623D01*
X47960Y32004D01*
X49576D01*
X51070Y32623D01*
X51126Y32679D01*
X51425Y32479D01*
X51800Y32404D01*
X52154Y32258D01*
X52536D01*
X52912Y32183D01*
X69008D01*
X69384Y32258D01*
X69766D01*
X70120Y32404D01*
X70495Y32479D01*
X70794Y32679D01*
X70850Y32623D01*
X72344Y32004D01*
X73960D01*
X75454Y32623D01*
X75510Y32679D01*
X75809Y32479D01*
X76184Y32404D01*
X76538Y32258D01*
X76920D01*
X77296Y32183D01*
X92985D01*
X93361Y32258D01*
X93743D01*
X94097Y32404D01*
X94380Y32461D01*
X94726Y32115D01*
X96220Y31496D01*
X97836D01*
X99330Y32115D01*
X99676Y32461D01*
X99959Y32404D01*
X100313Y32258D01*
X100695D01*
X101071Y32183D01*
X104140D01*
X105627Y32479D01*
X106887Y33321D01*
X122127Y48561D01*
X122969Y49821D01*
X123265Y51308D01*
Y96592D01*
X122969Y98078D01*
X122127Y99339D01*
X120867Y100181D01*
X120599Y100292D01*
Y116966D01*
X120303Y118452D01*
X119461Y119712D01*
X117485Y121689D01*
X104216Y134958D01*
X93235Y145939D01*
X93472Y146512D01*
Y148128D01*
X92853Y149622D01*
X91710Y150765D01*
X90216Y151384D01*
X88600D01*
X88027Y151147D01*
X74375Y164799D01*
X73115Y165641D01*
X71628Y165937D01*
X43011D01*
X42705Y166370D01*
X42792Y166783D01*
X43274Y167765D01*
X44466Y168259D01*
X45609Y169402D01*
X46228Y170896D01*
Y172512D01*
X45609Y174006D01*
X44466Y175149D01*
X44378Y175186D01*
X44240Y175581D01*
X44204Y176632D01*
X45101Y177530D01*
X45720Y179024D01*
Y180640D01*
X45101Y182134D01*
X43958Y183277D01*
X42464Y183896D01*
X40848D01*
X40501Y183752D01*
X39445Y184458D01*
Y188099D01*
X39390Y188374D01*
X39405Y188655D01*
X39243Y189111D01*
X39149Y189585D01*
X38993Y189819D01*
X38899Y190084D01*
X38576Y190443D01*
X38307Y190846D01*
X38073Y191002D01*
X37885Y191211D01*
X37338Y191619D01*
X37592Y192232D01*
Y193391D01*
X37684Y193909D01*
X38670Y194564D01*
X39416D01*
X40910Y195183D01*
X42053Y196326D01*
X42672Y197820D01*
Y199436D01*
X42053Y200930D01*
X40910Y202073D01*
X39445Y202680D01*
Y206472D01*
X39370Y206847D01*
Y206860D01*
X39386Y206867D01*
X40529Y208010D01*
X41148Y209504D01*
Y211120D01*
X40529Y212614D01*
X39386Y213757D01*
X39370Y213764D01*
Y213777D01*
X39445Y214153D01*
Y216632D01*
X39370Y217007D01*
Y217020D01*
X39386Y217027D01*
X40529Y218170D01*
X41148Y219664D01*
Y221280D01*
X40529Y222774D01*
X39386Y223917D01*
X39370Y223924D01*
Y223937D01*
X39445Y224312D01*
Y226060D01*
X39149Y227547D01*
X38307Y228807D01*
X35259Y231855D01*
X33999Y232697D01*
X32512Y232993D01*
X10668D01*
X9181Y232697D01*
X7921Y231855D01*
X4873Y228807D01*
X4031Y227547D01*
X3735Y226060D01*
Y218948D01*
X4031Y217461D01*
X4873Y216201D01*
X7413Y213661D01*
X8673Y212819D01*
X10160Y212523D01*
X15663D01*
X16943Y211243D01*
Y204914D01*
X16865Y204865D01*
X15673Y204525D01*
X14857Y205341D01*
X13457Y205921D01*
X11941D01*
X10541Y205341D01*
X9469Y204269D01*
X8889Y202869D01*
Y201353D01*
X9469Y199953D01*
X10541Y198881D01*
X11941Y198301D01*
X13457D01*
X14857Y198881D01*
X15673Y199697D01*
X16865Y199358D01*
X16943Y199308D01*
Y185251D01*
X15673Y184786D01*
X14930Y185529D01*
X13530Y186109D01*
X12014D01*
X10614Y185529D01*
X9542Y184457D01*
X8962Y183057D01*
Y181541D01*
X9542Y180141D01*
X10614Y179069D01*
X10920Y178943D01*
X11167Y177697D01*
X-636Y165894D01*
X-1255Y166513D01*
X-2748Y167131D01*
X-4365D01*
X-5859Y166513D01*
X-7002Y165369D01*
X-7621Y163876D01*
Y162259D01*
X-7002Y160765D01*
X-6383Y160146D01*
X-14544Y151986D01*
X-15620Y152705D01*
X-15240Y153624D01*
Y155240D01*
X-15859Y156734D01*
X-17002Y157877D01*
X-18496Y158496D01*
X-20112D01*
X-21606Y157877D01*
X-22749Y156734D01*
X-23368Y155240D01*
Y153624D01*
X-22749Y152130D01*
X-21606Y150987D01*
X-20112Y150368D01*
X-18496D01*
X-17578Y150748D01*
X-16858Y149672D01*
X-28533Y137997D01*
X-63561D01*
X-63572Y137994D01*
X-63716Y138341D01*
X-64859Y139485D01*
X-64922Y139511D01*
X-64991Y139737D01*
X-64695Y141224D01*
X-64695Y146045D01*
X-64308Y146304D01*
X-62692D01*
X-61198Y146923D01*
X-60055Y148066D01*
X-59436Y149560D01*
Y151176D01*
X-60055Y152670D01*
X-61198Y153813D01*
X-62692Y154432D01*
X-64308D01*
X-65802Y153813D01*
X-66285Y153331D01*
X-67983Y153232D01*
X-68881Y154131D01*
X-70141Y154973D01*
X-71628Y155269D01*
X-99483D01*
X-102795Y158581D01*
X-102795Y176191D01*
X-101515Y177471D01*
X-88392D01*
X-86905Y177767D01*
X-85645Y178609D01*
X-83613Y180641D01*
X-82771Y181901D01*
X-82475Y183388D01*
Y188468D01*
X-82771Y189955D01*
X-83613Y191215D01*
X-85645Y193247D01*
X-86905Y194089D01*
X-88392Y194385D01*
X-101515D01*
X-102795Y195665D01*
Y203202D01*
X-101525Y203728D01*
X-101362Y203565D01*
X-99868Y202946D01*
X-98252D01*
X-96758Y203565D01*
X-95615Y204708D01*
X-94996Y206202D01*
Y207443D01*
X-63500D01*
X-62013Y207739D01*
X-60753Y208581D01*
X-48053Y221281D01*
X-47211Y222541D01*
X-46915Y224028D01*
X-46915Y263059D01*
X-26289Y283685D01*
X-25447Y284946D01*
X-25313Y285618D01*
X-24114Y286115D01*
X-22971Y287258D01*
X-22474Y288457D01*
X-21802Y288591D01*
X-21223Y288977D01*
X-4826D01*
X-3339Y289273D01*
X-3177Y289381D01*
X-3174Y289378D01*
X-1774Y288798D01*
X-258D01*
X1142Y289378D01*
X1145Y289381D01*
X1307Y289273D01*
X2794Y288977D01*
X15750D01*
X16276Y287707D01*
X15859Y287290D01*
X15240Y285796D01*
Y284180D01*
X15859Y282686D01*
X17002Y281543D01*
X18496Y280924D01*
X20112D01*
X21606Y281543D01*
X22749Y282686D01*
X23368Y284180D01*
Y285796D01*
X22749Y287290D01*
X22332Y287707D01*
X22858Y288977D01*
X31411D01*
X51276Y269113D01*
X52536Y268271D01*
X53208Y268137D01*
X53705Y266938D01*
X54848Y265795D01*
X56342Y265176D01*
X57958D01*
X59452Y265795D01*
X60026Y266369D01*
X61214Y266133D01*
X95774D01*
X97260Y266429D01*
X98520Y267271D01*
X100110Y268860D01*
X101346Y268300D01*
Y267162D01*
X101965Y265668D01*
X103108Y264525D01*
X104602Y263906D01*
X106218D01*
X107712Y264525D01*
X108855Y265668D01*
X109474Y267162D01*
Y268778D01*
X108855Y270272D01*
X107712Y271415D01*
X106218Y272034D01*
X105080D01*
X104520Y273270D01*
X111967Y280717D01*
X112809Y281977D01*
X113105Y283464D01*
Y298704D01*
X112809Y300191D01*
X111967Y301451D01*
X100283Y313135D01*
X99023Y313977D01*
X97536Y314273D01*
X-69676D01*
X-70023Y314204D01*
X-70480Y314762D01*
X-69835Y315976D01*
X-69042D01*
X-67548Y316595D01*
X-66405Y317738D01*
X-65786Y319232D01*
Y320848D01*
X-66405Y322342D01*
X-67548Y323485D01*
X-69042Y324104D01*
X-70658D01*
X-72152Y323485D01*
X-73295Y322342D01*
X-73914Y320848D01*
Y319232D01*
X-73600Y318473D01*
X-73928Y317981D01*
X-74565Y317484D01*
X-76223Y317928D01*
X-78209D01*
X-80126Y317414D01*
X-81846Y316422D01*
X-82721Y315546D01*
X-83566Y315162D01*
X-84411Y315546D01*
X-85286Y316422D01*
X-87006Y317414D01*
X-88923Y317928D01*
X-90909D01*
X-92826Y317414D01*
X-94546Y316422D01*
X-95421Y315546D01*
X-96266Y315162D01*
X-97111Y315546D01*
X-97986Y316422D01*
X-99706Y317414D01*
X-101623Y317928D01*
X-103609D01*
X-105526Y317414D01*
X-107246Y316422D01*
X-108121Y315546D01*
X-108966Y315162D01*
X-109811Y315546D01*
X-110686Y316422D01*
X-112406Y317414D01*
X-114323Y317928D01*
X-116309D01*
X-118226Y317414D01*
X-119946Y316422D01*
X-121349Y315018D01*
X-122342Y313298D01*
X-122856Y311381D01*
Y309395D01*
X-122342Y307478D01*
X-121349Y305758D01*
X-119946Y304354D01*
X-118226Y303362D01*
X-116309Y302848D01*
X-115668D01*
X-115142Y301578D01*
X-158647Y258072D01*
X-159821Y258559D01*
Y341776D01*
Y343934D01*
X-159257Y348212D01*
X-158140Y352381D01*
X-156489Y356368D01*
X-154331Y360105D01*
X-151704Y363529D01*
X-148653Y366580D01*
X-145229Y369207D01*
X-141492Y371365D01*
X-137505Y373016D01*
X-133336Y374133D01*
X-129058Y374697D01*
X129058D01*
X133336Y374133D01*
D02*
G37*
G36*
X109220Y298704D02*
Y283464D01*
X95774Y270018D01*
X61214D01*
Y270048D01*
X60595Y271542D01*
X59452Y272685D01*
X57958Y273304D01*
X56342D01*
X54848Y272685D01*
X54022Y271860D01*
X33020Y292862D01*
X2794D01*
Y293366D01*
X2214Y294766D01*
X1142Y295838D01*
X-258Y296418D01*
X-1774D01*
X-3174Y295838D01*
X-4246Y294766D01*
X-4826Y293366D01*
Y292862D01*
X-22606D01*
X-23288Y292180D01*
X-24114Y293005D01*
X-25608Y293624D01*
X-27224D01*
X-28718Y293005D01*
X-29861Y291862D01*
X-30480Y290368D01*
Y288752D01*
X-29861Y287258D01*
X-29036Y286432D01*
X-50800Y264668D01*
X-50800Y224028D01*
X-63500Y211328D01*
X-103124D01*
X-106680Y207772D01*
Y194056D01*
X-103124Y190500D01*
X-88392D01*
X-86360Y188468D01*
Y183388D01*
X-88392Y181356D01*
X-103124D01*
X-106680Y177800D01*
X-106680Y156972D01*
X-101092Y151384D01*
X-71628D01*
X-68580Y148336D01*
X-68580Y141224D01*
X-71628Y138176D01*
X-93980Y138176D01*
X-103726Y128430D01*
X-112776Y119380D01*
Y106172D01*
X-119380Y99568D01*
X-140716D01*
X-146304Y93980D01*
Y79248D01*
X-143510Y76454D01*
X-144036Y75184D01*
X-144572D01*
X-146066Y74565D01*
X-147209Y73422D01*
X-147828Y71928D01*
Y70312D01*
X-147209Y68818D01*
X-146066Y67675D01*
X-144572Y67056D01*
X-142956D01*
X-141462Y67675D01*
X-140319Y68818D01*
X-139700Y70312D01*
Y70848D01*
X-138430Y71374D01*
X-131572Y64516D01*
Y40640D01*
X-137160Y35052D01*
X-147320D01*
X-157988Y45720D01*
X-157988Y253238D01*
X-107008Y304217D01*
X-105526Y303362D01*
X-103609Y302848D01*
X-101623D01*
X-99706Y303362D01*
X-97986Y304354D01*
X-97111Y305230D01*
X-96266Y305614D01*
X-95421Y305230D01*
X-94546Y304354D01*
X-92826Y303362D01*
X-90909Y302848D01*
X-88923D01*
X-87006Y303362D01*
X-85286Y304354D01*
X-84411Y305230D01*
X-83566Y305614D01*
X-82721Y305230D01*
X-81846Y304354D01*
X-80126Y303362D01*
X-78209Y302848D01*
X-76223D01*
X-74306Y303362D01*
X-72586Y304354D01*
X-71182Y305758D01*
X-70190Y307478D01*
X-69676Y309395D01*
Y310388D01*
X97536D01*
X109220Y298704D01*
D02*
G37*
G36*
X35560Y226060D02*
Y224312D01*
X35498Y224300D01*
X34154Y223402D01*
X33256Y222058D01*
X32940Y220472D01*
X33256Y218886D01*
X34154Y217542D01*
X35498Y216644D01*
X35560Y216632D01*
Y214153D01*
X35498Y214140D01*
X34154Y213242D01*
X33256Y211898D01*
X32940Y210312D01*
X33256Y208726D01*
X34154Y207382D01*
X35498Y206484D01*
X35560Y206472D01*
Y201381D01*
X34780Y200214D01*
X34464Y198628D01*
X34534Y198278D01*
X33528Y197184D01*
X31942Y196868D01*
X30598Y195970D01*
X29700Y194626D01*
X29384Y193040D01*
X29700Y191454D01*
X30598Y190110D01*
X31942Y189212D01*
X33528Y188896D01*
X34290Y189048D01*
X35560Y188099D01*
Y167132D01*
X40640Y162052D01*
X71628D01*
X85446Y148234D01*
X85264Y147320D01*
X85580Y145734D01*
X86478Y144390D01*
X87822Y143492D01*
X89408Y143176D01*
X90322Y143358D01*
X101469Y132211D01*
X114738Y118942D01*
X116714Y116966D01*
Y100251D01*
X104126Y87663D01*
X102616Y87964D01*
X101030Y87648D01*
X99686Y86750D01*
X99152Y85951D01*
X98292Y85979D01*
X97752Y87232D01*
X98316Y88076D01*
X98632Y89662D01*
X98316Y91248D01*
X97418Y92592D01*
X96074Y93490D01*
X94488Y93806D01*
X92902Y93490D01*
X91558Y92592D01*
X90660Y91248D01*
X90344Y89662D01*
X90660Y88076D01*
X91468Y86867D01*
X91314Y86259D01*
X90971Y85597D01*
X66947D01*
X66176Y86750D01*
X64832Y87648D01*
X63246Y87964D01*
X61660Y87648D01*
X60316Y86750D01*
X60271Y86682D01*
X59200Y87314D01*
X59516Y88900D01*
X59200Y90486D01*
X58302Y91830D01*
X56958Y92728D01*
X55372Y93044D01*
X53786Y92728D01*
X52442Y91830D01*
X51544Y90486D01*
X51228Y88900D01*
X51544Y87314D01*
X51843Y86867D01*
X51164Y85597D01*
X28847D01*
X28076Y86750D01*
X26732Y87648D01*
X25146Y87964D01*
X23560Y87648D01*
X22216Y86750D01*
X21360Y85470D01*
X-10438D01*
X-11294Y86750D01*
X-12638Y87648D01*
X-14224Y87964D01*
X-15810Y87648D01*
X-17154Y86750D01*
X-18010Y85470D01*
X-51586D01*
X-52442Y86750D01*
X-53786Y87648D01*
X-55372Y87964D01*
X-56958Y87648D01*
X-58302Y86750D01*
X-59158Y85470D01*
X-91210D01*
X-92066Y86750D01*
X-93410Y87648D01*
X-94996Y87964D01*
X-96582Y87648D01*
X-97439Y87075D01*
X-98582Y87839D01*
X-98472Y88392D01*
X-98788Y89978D01*
X-99686Y91322D01*
X-101030Y92220D01*
X-102616Y92536D01*
X-104202Y92220D01*
X-105546Y91322D01*
X-106444Y89978D01*
X-106760Y88392D01*
X-106444Y86806D01*
X-105546Y85462D01*
X-104202Y84564D01*
X-102616Y84248D01*
X-101030Y84564D01*
X-100173Y85137D01*
X-99030Y84373D01*
X-99140Y83820D01*
X-98824Y82234D01*
X-97926Y80890D01*
X-96582Y79992D01*
X-94996Y79676D01*
X-93410Y79992D01*
X-92066Y80890D01*
X-91210Y82170D01*
X-72543D01*
X-72157Y80900D01*
X-72526Y80654D01*
X-73424Y79310D01*
X-73740Y77724D01*
X-73424Y76138D01*
X-72526Y74794D01*
X-71182Y73896D01*
X-69596Y73580D01*
X-68010Y73896D01*
X-66666Y74794D01*
X-65768Y76138D01*
X-65452Y77724D01*
X-65768Y79310D01*
X-66666Y80654D01*
X-67035Y80900D01*
X-66649Y82170D01*
X-59158D01*
X-58302Y80890D01*
X-56958Y79992D01*
X-55372Y79676D01*
X-53786Y79992D01*
X-52442Y80890D01*
X-51586Y82170D01*
X-33426D01*
X-33041Y80900D01*
X-33410Y80654D01*
X-34308Y79310D01*
X-34624Y77724D01*
X-34308Y76138D01*
X-33410Y74794D01*
X-32066Y73896D01*
X-30480Y73580D01*
X-28894Y73896D01*
X-27550Y74794D01*
X-26652Y76138D01*
X-26336Y77724D01*
X-26652Y79310D01*
X-27550Y80654D01*
X-27919Y80900D01*
X-27534Y82170D01*
X-18010D01*
X-17154Y80890D01*
X-15810Y79992D01*
X-14224Y79676D01*
X-12638Y79992D01*
X-11294Y80890D01*
X-10438Y82170D01*
X6198D01*
X6583Y80900D01*
X6214Y80654D01*
X5316Y79310D01*
X5000Y77724D01*
X5316Y76138D01*
X6214Y74794D01*
X7558Y73896D01*
X9144Y73580D01*
X10730Y73896D01*
X12074Y74794D01*
X12972Y76138D01*
X13288Y77724D01*
X12972Y79310D01*
X12074Y80654D01*
X11705Y80900D01*
X12091Y82170D01*
X21360D01*
X22216Y80890D01*
X23560Y79992D01*
X25146Y79676D01*
X26732Y79992D01*
X28076Y80890D01*
X28974Y82234D01*
X28987Y82297D01*
X59405D01*
X59418Y82234D01*
X60316Y80890D01*
X61660Y79992D01*
X63246Y79676D01*
X64832Y79992D01*
X66176Y80890D01*
X67074Y82234D01*
X67087Y82297D01*
X98775D01*
X98788Y82234D01*
X99686Y80890D01*
X101030Y79992D01*
X102616Y79676D01*
X104202Y79992D01*
X105546Y80890D01*
X106444Y82234D01*
X106760Y83820D01*
X106459Y85330D01*
X118207Y97078D01*
X119380Y96592D01*
Y51308D01*
X104140Y36068D01*
X101071D01*
X100856Y37146D01*
X99958Y38490D01*
X98614Y39388D01*
X97028Y39704D01*
X95442Y39388D01*
X94098Y38490D01*
X93200Y37146D01*
X92985Y36068D01*
X77296D01*
X76980Y37654D01*
X76082Y38998D01*
X74738Y39896D01*
X73152Y40212D01*
X71566Y39896D01*
X70222Y38998D01*
X69324Y37654D01*
X69008Y36068D01*
X52912D01*
X52596Y37654D01*
X51698Y38998D01*
X50354Y39896D01*
X48768Y40212D01*
X47182Y39896D01*
X45838Y38998D01*
X44940Y37654D01*
X44624Y36068D01*
X29036D01*
X28720Y37654D01*
X27822Y38998D01*
X26478Y39896D01*
X24892Y40212D01*
X23306Y39896D01*
X21962Y38998D01*
X21064Y37654D01*
X20748Y36068D01*
X-45961D01*
X-47223Y36911D01*
X-48809Y37227D01*
X-50395Y36911D01*
X-51657Y36068D01*
X-82083D01*
X-83250Y36848D01*
X-84836Y37164D01*
X-85326Y37066D01*
X-91168Y42908D01*
X-106121Y57861D01*
X-106335Y68743D01*
X-111270Y73678D01*
X-111172Y74168D01*
X-111488Y75754D01*
X-112386Y77098D01*
X-113730Y77996D01*
X-115316Y78312D01*
X-116902Y77996D01*
X-117309Y77724D01*
X-137160D01*
X-142240Y82804D01*
Y87884D01*
X-136652Y93472D01*
X-115824D01*
X-106993Y102303D01*
X-107286Y117250D01*
X-90424Y134112D01*
X-70761D01*
X-70091Y133109D01*
X-68747Y132211D01*
X-67161Y131896D01*
X-65575Y132211D01*
X-64231Y133109D01*
X-63561Y134112D01*
X-26924D01*
X-1446Y159590D01*
X-627Y160137D01*
X-79Y160957D01*
X20828Y181864D01*
Y212852D01*
X17272Y216408D01*
X10160D01*
X7620Y218948D01*
Y226060D01*
X10668Y229108D01*
X32512D01*
X35560Y226060D01*
D02*
G37*
%LPC*%
G36*
X108784Y367284D02*
X107167D01*
X105673Y366665D01*
X104530Y365522D01*
X104281Y364921D01*
X102907D01*
X102658Y365522D01*
X101515Y366665D01*
X100021Y367284D01*
X98404D01*
X96910Y366665D01*
X95767Y365522D01*
X95518Y364921D01*
X94144D01*
X93895Y365522D01*
X92752Y366665D01*
X91258Y367284D01*
X89641D01*
X88147Y366665D01*
X87004Y365522D01*
X86385Y364028D01*
Y362412D01*
X87004Y360918D01*
X88147Y359775D01*
X89641Y359156D01*
X91258D01*
X92752Y359775D01*
X93895Y360918D01*
X94144Y361519D01*
X95518D01*
X95767Y360918D01*
X96910Y359775D01*
X98404Y359156D01*
X100021D01*
X101515Y359775D01*
X102658Y360918D01*
X102907Y361519D01*
X104281D01*
X104530Y360918D01*
X105673Y359775D01*
X107167Y359156D01*
X108784D01*
X110278Y359775D01*
X111421Y360918D01*
X112039Y362412D01*
Y364028D01*
X111421Y365522D01*
X110278Y366665D01*
X108784Y367284D01*
D02*
G37*
G36*
X-89590D02*
X-91207D01*
X-92701Y366665D01*
X-93844Y365522D01*
X-94093Y364921D01*
X-95467D01*
X-95716Y365522D01*
X-96860Y366665D01*
X-98353Y367284D01*
X-99970D01*
X-101464Y366665D01*
X-102607Y365522D01*
X-102856Y364921D01*
X-104230D01*
X-104479Y365522D01*
X-105623Y366665D01*
X-107116Y367284D01*
X-108733D01*
X-110227Y366665D01*
X-111370Y365522D01*
X-111989Y364028D01*
Y362412D01*
X-111370Y360918D01*
X-110227Y359775D01*
X-108733Y359156D01*
X-107116D01*
X-105623Y359775D01*
X-104479Y360918D01*
X-104230Y361519D01*
X-102856D01*
X-102607Y360918D01*
X-101464Y359775D01*
X-99970Y359156D01*
X-98353D01*
X-96860Y359775D01*
X-95716Y360918D01*
X-95467Y361519D01*
X-94093D01*
X-93844Y360918D01*
X-92701Y359775D01*
X-91207Y359156D01*
X-89590D01*
X-88097Y359775D01*
X-86953Y360918D01*
X-86335Y362412D01*
Y364028D01*
X-86953Y365522D01*
X-88097Y366665D01*
X-89590Y367284D01*
D02*
G37*
G36*
X27682D02*
X26065D01*
X24571Y366665D01*
X23428Y365522D01*
X22809Y364028D01*
Y362412D01*
X23428Y360918D01*
X24571Y359775D01*
X26065Y359156D01*
X27682D01*
X29175Y359775D01*
X30319Y360918D01*
X30937Y362412D01*
Y364028D01*
X30319Y365522D01*
X29175Y366665D01*
X27682Y367284D01*
D02*
G37*
G36*
X17115D02*
X15498D01*
X14005Y366665D01*
X12861Y365522D01*
X12243Y364028D01*
Y362412D01*
X12861Y360918D01*
X14005Y359775D01*
X15498Y359156D01*
X17115D01*
X18609Y359775D01*
X19752Y360918D01*
X20371Y362412D01*
Y364028D01*
X19752Y365522D01*
X18609Y366665D01*
X17115Y367284D01*
D02*
G37*
G36*
X6549D02*
X4932D01*
X3438Y366665D01*
X2295Y365522D01*
X1676Y364028D01*
Y362412D01*
X2295Y360918D01*
X3438Y359775D01*
X4932Y359156D01*
X6549D01*
X8043Y359775D01*
X9186Y360918D01*
X9804Y362412D01*
Y364028D01*
X9186Y365522D01*
X8043Y366665D01*
X6549Y367284D01*
D02*
G37*
G36*
X-4018D02*
X-5634D01*
X-7128Y366665D01*
X-8271Y365522D01*
X-8890Y364028D01*
Y362412D01*
X-8271Y360918D01*
X-7128Y359775D01*
X-5634Y359156D01*
X-4018D01*
X-2524Y359775D01*
X-1381Y360918D01*
X-762Y362412D01*
Y364028D01*
X-1381Y365522D01*
X-2524Y366665D01*
X-4018Y367284D01*
D02*
G37*
G36*
X-14584D02*
X-16201D01*
X-17694Y366665D01*
X-18838Y365522D01*
X-19456Y364028D01*
Y362412D01*
X-18838Y360918D01*
X-17694Y359775D01*
X-16201Y359156D01*
X-14584D01*
X-13090Y359775D01*
X-11947Y360918D01*
X-11328Y362412D01*
Y364028D01*
X-11947Y365522D01*
X-13090Y366665D01*
X-14584Y367284D01*
D02*
G37*
G36*
X-25150D02*
X-26767D01*
X-28261Y366665D01*
X-29404Y365522D01*
X-30023Y364028D01*
Y362412D01*
X-29404Y360918D01*
X-28261Y359775D01*
X-26767Y359156D01*
X-25150D01*
X-23657Y359775D01*
X-22513Y360918D01*
X-21895Y362412D01*
Y364028D01*
X-22513Y365522D01*
X-23657Y366665D01*
X-25150Y367284D01*
D02*
G37*
G36*
X71928Y366014D02*
X70312D01*
X68818Y365395D01*
X67675Y364252D01*
X67056Y362758D01*
Y361142D01*
X67675Y359648D01*
X68818Y358505D01*
X70312Y357886D01*
X71928D01*
X73422Y358505D01*
X74565Y359648D01*
X75184Y361142D01*
Y362758D01*
X74565Y364252D01*
X73422Y365395D01*
X71928Y366014D01*
D02*
G37*
G36*
X-68712Y365684D02*
X-70328D01*
X-71822Y365065D01*
X-72965Y363922D01*
X-73584Y362428D01*
Y360812D01*
X-72965Y359318D01*
X-71822Y358175D01*
X-70328Y357556D01*
X-68712D01*
X-67218Y358175D01*
X-66075Y359318D01*
X-65456Y360812D01*
Y362428D01*
X-66075Y363922D01*
X-67218Y365065D01*
X-68712Y365684D01*
D02*
G37*
G36*
X-7320Y354838D02*
X-8936D01*
X-10430Y354219D01*
X-11573Y353076D01*
X-12192Y351582D01*
Y349966D01*
X-11573Y348472D01*
X-10430Y347329D01*
X-8936Y346710D01*
X-7320D01*
X-5826Y347329D01*
X-4683Y348472D01*
X-4064Y349966D01*
Y351582D01*
X-4683Y353076D01*
X-5826Y354219D01*
X-7320Y354838D01*
D02*
G37*
G36*
X5888Y354584D02*
X4272D01*
X2778Y353965D01*
X1635Y352822D01*
X1016Y351328D01*
Y349712D01*
X1635Y348218D01*
X2778Y347075D01*
X4272Y346456D01*
X5888D01*
X7382Y347075D01*
X8525Y348218D01*
X9144Y349712D01*
Y351328D01*
X8525Y352822D01*
X7382Y353965D01*
X5888Y354584D01*
D02*
G37*
G36*
X-20020Y335534D02*
X-21636D01*
X-23130Y334915D01*
X-24273Y333772D01*
X-24892Y332278D01*
Y330997D01*
X-24955Y330913D01*
X-25719Y330345D01*
X-26065Y330213D01*
X-27748Y330910D01*
X-30052D01*
X-32180Y330028D01*
X-33809Y328400D01*
X-34690Y326272D01*
Y323968D01*
X-33809Y321840D01*
X-32180Y320211D01*
X-30052Y319330D01*
X-27748D01*
X-25620Y320211D01*
X-23991Y321840D01*
X-23110Y323968D01*
Y326272D01*
X-23295Y326718D01*
X-22323Y327690D01*
X-21636Y327406D01*
X-20020D01*
X-18526Y328025D01*
X-17383Y329168D01*
X-16764Y330662D01*
Y332278D01*
X-17383Y333772D01*
X-18526Y334915D01*
X-20020Y335534D01*
D02*
G37*
G36*
X134581Y363120D02*
X132119D01*
X131618Y363020D01*
X131108Y363020D01*
X128693Y362540D01*
X128222Y362344D01*
X127722Y362245D01*
X125447Y361303D01*
X125023Y361019D01*
X124551Y360824D01*
X122504Y359456D01*
X122143Y359095D01*
X121719Y358812D01*
X119978Y357071D01*
X119695Y356647D01*
X119334Y356286D01*
X117966Y354239D01*
X117771Y353767D01*
X117487Y353343D01*
X116545Y351068D01*
X116446Y350568D01*
X116250Y350097D01*
X115770Y347682D01*
Y347172D01*
X115670Y346671D01*
Y344209D01*
X115770Y343708D01*
Y343198D01*
X116250Y340783D01*
X116446Y340312D01*
X116545Y339812D01*
X117487Y337537D01*
X117771Y337113D01*
X117966Y336641D01*
X119334Y334594D01*
X119695Y334233D01*
X119978Y333809D01*
X121719Y332068D01*
X122143Y331785D01*
X122504Y331424D01*
X124551Y330056D01*
X125023Y329861D01*
X125447Y329577D01*
X127722Y328635D01*
X128222Y328536D01*
X128693Y328340D01*
X131108Y327860D01*
X131618D01*
X132119Y327761D01*
X134581D01*
X135082Y327860D01*
X135592D01*
X138007Y328340D01*
X138478Y328536D01*
X138978Y328635D01*
X141253Y329577D01*
X141677Y329861D01*
X142149Y330056D01*
X144196Y331424D01*
X144557Y331785D01*
X144981Y332068D01*
X146722Y333809D01*
X147005Y334233D01*
X147366Y334594D01*
X148734Y336641D01*
X148929Y337113D01*
X149213Y337537D01*
X150155Y339812D01*
X150254Y340312D01*
X150450Y340783D01*
X150930Y343198D01*
Y343708D01*
X151030Y344209D01*
Y346671D01*
X150930Y347172D01*
X150930Y347682D01*
X150450Y350097D01*
X150254Y350568D01*
X150155Y351068D01*
X149213Y353343D01*
X148929Y353767D01*
X148734Y354239D01*
X147366Y356286D01*
X147005Y356647D01*
X146722Y357071D01*
X144981Y358812D01*
X144557Y359095D01*
X144196Y359456D01*
X142149Y360824D01*
X141677Y361019D01*
X141253Y361303D01*
X138978Y362245D01*
X138478Y362344D01*
X138007Y362540D01*
X135592Y363020D01*
X135082D01*
X134581Y363120D01*
D02*
G37*
G36*
X-130849D02*
X-133311D01*
X-133812Y363020D01*
X-134322Y363020D01*
X-136737Y362540D01*
X-137208Y362344D01*
X-137708Y362245D01*
X-139983Y361303D01*
X-140407Y361019D01*
X-140879Y360824D01*
X-142926Y359456D01*
X-143287Y359095D01*
X-143711Y358812D01*
X-145452Y357071D01*
X-145735Y356647D01*
X-146096Y356286D01*
X-147464Y354239D01*
X-147659Y353767D01*
X-147943Y353343D01*
X-148885Y351068D01*
X-148984Y350568D01*
X-149180Y350097D01*
X-149660Y347682D01*
Y347172D01*
X-149760Y346671D01*
Y344209D01*
X-149660Y343708D01*
Y343198D01*
X-149180Y340783D01*
X-148984Y340312D01*
X-148885Y339812D01*
X-147943Y337537D01*
X-147659Y337113D01*
X-147464Y336641D01*
X-146096Y334594D01*
X-145735Y334233D01*
X-145452Y333809D01*
X-143711Y332068D01*
X-143287Y331785D01*
X-142926Y331424D01*
X-140879Y330056D01*
X-140407Y329861D01*
X-139983Y329577D01*
X-137708Y328635D01*
X-137208Y328536D01*
X-136737Y328340D01*
X-134322Y327860D01*
X-133812D01*
X-133311Y327761D01*
X-130849D01*
X-130349Y327860D01*
X-129838D01*
X-127423Y328340D01*
X-126952Y328536D01*
X-126452Y328635D01*
X-124177Y329577D01*
X-123753Y329861D01*
X-123281Y330056D01*
X-121234Y331424D01*
X-120873Y331785D01*
X-120449Y332068D01*
X-118708Y333809D01*
X-118425Y334233D01*
X-118064Y334594D01*
X-116696Y336641D01*
X-116501Y337113D01*
X-116217Y337537D01*
X-115275Y339812D01*
X-115176Y340312D01*
X-114980Y340783D01*
X-114500Y343198D01*
Y343708D01*
X-114401Y344209D01*
Y346671D01*
X-114500Y347172D01*
X-114500Y347682D01*
X-114980Y350097D01*
X-115176Y350568D01*
X-115275Y351068D01*
X-116217Y353343D01*
X-116501Y353767D01*
X-116696Y354239D01*
X-118064Y356286D01*
X-118425Y356647D01*
X-118708Y357071D01*
X-120449Y358812D01*
X-120873Y359095D01*
X-121234Y359456D01*
X-123281Y360824D01*
X-123753Y361019D01*
X-124177Y361303D01*
X-126452Y362245D01*
X-126952Y362344D01*
X-127423Y362540D01*
X-129838Y363020D01*
X-130349D01*
X-130849Y363120D01*
D02*
G37*
G36*
X16048Y335534D02*
X14432D01*
X12938Y334915D01*
X11795Y333772D01*
X11176Y332278D01*
Y330662D01*
X11795Y329168D01*
X12938Y328025D01*
X14432Y327406D01*
X16048D01*
X17542Y328025D01*
X18685Y329168D01*
X19304Y330662D01*
Y332278D01*
X18685Y333772D01*
X17542Y334915D01*
X16048Y335534D01*
D02*
G37*
G36*
X97328Y330454D02*
X95712D01*
X94218Y329835D01*
X93075Y328692D01*
X92456Y327198D01*
Y325582D01*
X93075Y324088D01*
X94218Y322945D01*
X95712Y322326D01*
X97328D01*
X98822Y322945D01*
X99965Y324088D01*
X100584Y325582D01*
Y327198D01*
X99965Y328692D01*
X98822Y329835D01*
X97328Y330454D01*
D02*
G37*
G36*
X5888Y329184D02*
X4272D01*
X2778Y328565D01*
X1635Y327422D01*
X1016Y325928D01*
Y324312D01*
X1635Y322818D01*
X2778Y321675D01*
X4272Y321056D01*
X5888D01*
X7382Y321675D01*
X8525Y322818D01*
X9144Y324312D01*
Y325928D01*
X8525Y327422D01*
X7382Y328565D01*
X5888Y329184D01*
D02*
G37*
G36*
X-5023Y329184D02*
X-6640D01*
X-8134Y328565D01*
X-9277Y327422D01*
X-9896Y325928D01*
Y324311D01*
X-9277Y322818D01*
X-8134Y321674D01*
X-6640Y321056D01*
X-5023D01*
X-3530Y321674D01*
X-2386Y322818D01*
X-1768Y324311D01*
Y325928D01*
X-2386Y327422D01*
X-3530Y328565D01*
X-5023Y329184D01*
D02*
G37*
G36*
X30052Y330910D02*
X27748D01*
X25620Y330028D01*
X23991Y328400D01*
X23110Y326272D01*
Y323968D01*
X23991Y321840D01*
X25620Y320211D01*
X27748Y319330D01*
X30052D01*
X32180Y320211D01*
X33809Y321840D01*
X34690Y323968D01*
Y326272D01*
X33809Y328400D01*
X32180Y330028D01*
X30052Y330910D01*
D02*
G37*
G36*
X71928Y324104D02*
X70312D01*
X68818Y323485D01*
X67675Y322342D01*
X67056Y320848D01*
Y319232D01*
X67675Y317738D01*
X68818Y316595D01*
X70312Y315976D01*
X71928D01*
X73422Y316595D01*
X74565Y317738D01*
X75184Y319232D01*
Y320848D01*
X74565Y322342D01*
X73422Y323485D01*
X71928Y324104D01*
D02*
G37*
G36*
X-208Y283972D02*
X-1824D01*
X-3318Y283353D01*
X-4461Y282210D01*
X-5080Y280716D01*
Y279100D01*
X-4461Y277606D01*
X-3318Y276463D01*
X-1824Y275844D01*
X-208D01*
X1286Y276463D01*
X2429Y277606D01*
X3048Y279100D01*
Y280716D01*
X2429Y282210D01*
X1286Y283353D01*
X-208Y283972D01*
D02*
G37*
G36*
X36368Y272796D02*
X34752D01*
X33258Y272177D01*
X32115Y271034D01*
X31496Y269540D01*
Y267924D01*
X32115Y266430D01*
X33258Y265287D01*
X34752Y264668D01*
X36368D01*
X37862Y265287D01*
X39005Y266430D01*
X39624Y267924D01*
Y269540D01*
X39005Y271034D01*
X37862Y272177D01*
X36368Y272796D01*
D02*
G37*
G36*
X93645Y260604D02*
X92029D01*
X90535Y259985D01*
X89392Y258842D01*
X89143Y258241D01*
X87768D01*
X87519Y258842D01*
X86376Y259985D01*
X84882Y260604D01*
X83266D01*
X81772Y259985D01*
X80629Y258842D01*
X80380Y258241D01*
X79005D01*
X78756Y258842D01*
X77613Y259985D01*
X76119Y260604D01*
X74503D01*
X73009Y259985D01*
X71866Y258842D01*
X71247Y257348D01*
Y255732D01*
X71866Y254238D01*
X73009Y253095D01*
X74503Y252476D01*
X76119D01*
X77613Y253095D01*
X78756Y254238D01*
X79005Y254839D01*
X80380D01*
X80629Y254238D01*
X81772Y253095D01*
X83266Y252476D01*
X84882D01*
X86376Y253095D01*
X87519Y254238D01*
X87768Y254839D01*
X89143D01*
X89392Y254238D01*
X90535Y253095D01*
X92029Y252476D01*
X93645D01*
X95139Y253095D01*
X96282Y254238D01*
X96901Y255732D01*
Y257348D01*
X96282Y258842D01*
X95139Y259985D01*
X93645Y260604D01*
D02*
G37*
G36*
X85136Y249428D02*
X83520D01*
X82026Y248809D01*
X80883Y247666D01*
X80264Y246172D01*
Y244556D01*
X80883Y243062D01*
X82026Y241919D01*
X83520Y241300D01*
X85136D01*
X86630Y241919D01*
X87773Y243062D01*
X88392Y244556D01*
Y246172D01*
X87773Y247666D01*
X86630Y248809D01*
X85136Y249428D01*
D02*
G37*
G36*
X-28148Y240284D02*
X-29764D01*
X-31258Y239665D01*
X-32401Y238522D01*
X-33020Y237028D01*
Y235412D01*
X-32401Y233918D01*
X-31258Y232775D01*
X-29764Y232156D01*
X-28148D01*
X-26654Y232775D01*
X-25511Y233918D01*
X-25252Y234541D01*
X-23878D01*
X-23517Y233669D01*
X-22373Y232526D01*
X-20880Y231907D01*
X-19263D01*
X-17769Y232526D01*
X-16626Y233669D01*
X-16007Y235163D01*
Y236780D01*
X-16626Y238273D01*
X-17769Y239417D01*
X-19263Y240035D01*
X-20880D01*
X-22373Y239417D01*
X-23517Y238273D01*
X-23775Y237650D01*
X-25150D01*
X-25511Y238522D01*
X-26654Y239665D01*
X-28148Y240284D01*
D02*
G37*
G36*
X-8336Y239776D02*
X-9952D01*
X-11446Y239157D01*
X-12589Y238014D01*
X-13208Y236520D01*
Y234904D01*
X-12589Y233410D01*
X-11446Y232267D01*
X-9952Y231648D01*
X-8336D01*
X-6842Y232267D01*
X-5699Y233410D01*
X-5080Y234904D01*
Y236520D01*
X-5699Y238014D01*
X-6842Y239157D01*
X-8336Y239776D01*
D02*
G37*
G36*
X116632Y236768D02*
X115016D01*
X113522Y236150D01*
X112379Y235007D01*
X111760Y233513D01*
Y231896D01*
X112379Y230402D01*
X113522Y229259D01*
X115016Y228640D01*
X116632D01*
X118126Y229259D01*
X119269Y230402D01*
X119888Y231896D01*
Y233513D01*
X119269Y235007D01*
X118126Y236150D01*
X116632Y236768D01*
D02*
G37*
G36*
X85136Y236220D02*
X83520D01*
X82026Y235601D01*
X80883Y234458D01*
X80264Y232964D01*
Y231348D01*
X80883Y229854D01*
X82026Y228711D01*
X83520Y228092D01*
X85136D01*
X86630Y228711D01*
X87773Y229854D01*
X88392Y231348D01*
Y232964D01*
X87773Y234458D01*
X86630Y235601D01*
X85136Y236220D01*
D02*
G37*
G36*
X-12196Y224790D02*
X-13712D01*
X-15112Y224210D01*
X-16184Y223138D01*
X-16764Y221738D01*
Y220222D01*
X-16184Y218822D01*
X-15112Y217750D01*
X-13712Y217170D01*
X-12196D01*
X-10796Y217750D01*
X-9724Y218822D01*
X-9144Y220222D01*
Y221738D01*
X-9724Y223138D01*
X-10796Y224210D01*
X-12196Y224790D01*
D02*
G37*
G36*
X70658Y218948D02*
X69042D01*
X67548Y218329D01*
X66405Y217186D01*
X65786Y215692D01*
Y214076D01*
X66405Y212582D01*
X67548Y211439D01*
X69042Y210820D01*
X70658D01*
X72152Y211439D01*
X73295Y212582D01*
X73914Y214076D01*
Y215692D01*
X73295Y217186D01*
X72152Y218329D01*
X70658Y218948D01*
D02*
G37*
G36*
X-26166Y216154D02*
X-27682D01*
X-29082Y215574D01*
X-30154Y214502D01*
X-30734Y213102D01*
Y211586D01*
X-30154Y210186D01*
X-29082Y209114D01*
X-27682Y208534D01*
X-26166D01*
X-24766Y209114D01*
X-23694Y210186D01*
X-23114Y211586D01*
Y213102D01*
X-23694Y214502D01*
X-24766Y215574D01*
X-26166Y216154D01*
D02*
G37*
G36*
X-11180Y205667D02*
X-12696D01*
X-14096Y205087D01*
X-15168Y204015D01*
X-15748Y202615D01*
Y201099D01*
X-15168Y199699D01*
X-14096Y198627D01*
X-12696Y198047D01*
X-11180D01*
X-9780Y198627D01*
X-8708Y199699D01*
X-8128Y201099D01*
Y202615D01*
X-8708Y204015D01*
X-9780Y205087D01*
X-11180Y205667D01*
D02*
G37*
G36*
X-82758Y205486D02*
X-84374D01*
X-85868Y204867D01*
X-87011Y203724D01*
X-87630Y202230D01*
Y200614D01*
X-87011Y199120D01*
X-85868Y197977D01*
X-84374Y197358D01*
X-82758D01*
X-81264Y197977D01*
X-80121Y199120D01*
X-79502Y200614D01*
Y202230D01*
X-80121Y203724D01*
X-81264Y204867D01*
X-82758Y205486D01*
D02*
G37*
G36*
X97328Y194056D02*
X95712D01*
X94218Y193437D01*
X93075Y192294D01*
X92456Y190800D01*
Y189184D01*
X93075Y187690D01*
X94218Y186547D01*
X95712Y185928D01*
X97328D01*
X98822Y186547D01*
X99965Y187690D01*
X100584Y189184D01*
Y190800D01*
X99965Y192294D01*
X98822Y193437D01*
X97328Y194056D01*
D02*
G37*
G36*
X130856Y192532D02*
X129240D01*
X127746Y191913D01*
X126603Y190770D01*
X125984Y189276D01*
Y187660D01*
X126603Y186166D01*
X127746Y185023D01*
X129240Y184404D01*
X130856D01*
X132350Y185023D01*
X133493Y186166D01*
X134112Y187660D01*
Y189276D01*
X133493Y190770D01*
X132350Y191913D01*
X130856Y192532D01*
D02*
G37*
G36*
X106980Y192024D02*
X105364D01*
X103870Y191405D01*
X102727Y190262D01*
X102108Y188768D01*
Y187152D01*
X102727Y185658D01*
X103870Y184515D01*
X105364Y183896D01*
X106980D01*
X108474Y184515D01*
X109617Y185658D01*
X110236Y187152D01*
Y188768D01*
X109617Y190262D01*
X108474Y191405D01*
X106980Y192024D01*
D02*
G37*
G36*
X-70820Y202692D02*
X-72436D01*
X-73930Y202073D01*
X-75073Y200930D01*
X-75692Y199436D01*
Y197820D01*
X-75073Y196326D01*
X-74675Y195928D01*
X-74021Y195072D01*
X-74675Y194268D01*
X-75099Y193844D01*
X-75718Y192350D01*
Y190734D01*
X-75099Y189240D01*
X-73956Y188097D01*
X-73495Y187906D01*
Y186531D01*
X-73930Y186351D01*
X-75073Y185208D01*
X-75692Y183714D01*
Y182098D01*
X-75073Y180604D01*
X-73930Y179461D01*
X-72436Y178842D01*
X-70820D01*
X-69326Y179461D01*
X-68183Y180604D01*
X-67564Y182098D01*
Y183714D01*
X-68183Y185208D01*
X-69326Y186351D01*
X-69786Y186542D01*
Y187917D01*
X-69352Y188097D01*
X-68208Y189240D01*
X-67590Y190734D01*
Y192350D01*
X-68208Y193844D01*
X-68607Y194242D01*
X-69261Y195098D01*
X-68607Y195902D01*
X-68183Y196326D01*
X-67564Y197820D01*
Y199436D01*
X-68183Y200930D01*
X-69326Y202073D01*
X-70820Y202692D01*
D02*
G37*
G36*
X90216Y186944D02*
X88600D01*
X87106Y186325D01*
X85963Y185182D01*
X85344Y183688D01*
Y182072D01*
X84460Y180887D01*
X84028D01*
X82534Y180268D01*
X81391Y179125D01*
X80772Y177632D01*
Y176015D01*
X81391Y174521D01*
X82534Y173378D01*
X84028Y172759D01*
X85644D01*
X87138Y173378D01*
X88281Y174521D01*
X88900Y176015D01*
Y177631D01*
X89784Y178816D01*
X90216D01*
X91710Y179435D01*
X92853Y180578D01*
X93472Y182072D01*
Y183688D01*
X92853Y185182D01*
X91710Y186325D01*
X90216Y186944D01*
D02*
G37*
G36*
X-37800Y178308D02*
X-39416D01*
X-40910Y177689D01*
X-42053Y176546D01*
X-42672Y175052D01*
Y173436D01*
X-42053Y171942D01*
X-40910Y170799D01*
X-39416Y170180D01*
X-37800D01*
X-36306Y170799D01*
X-35163Y171942D01*
X-34544Y173436D01*
Y175052D01*
X-35163Y176546D01*
X-36306Y177689D01*
X-37800Y178308D01*
D02*
G37*
G36*
X-10926Y186182D02*
X-12442D01*
X-13842Y185602D01*
X-14914Y184530D01*
X-15494Y183130D01*
Y181614D01*
X-14914Y180214D01*
X-13842Y179142D01*
X-13003Y178794D01*
X-12973Y178103D01*
X-13129Y177472D01*
X-14350Y176966D01*
X-15422Y175894D01*
X-16002Y174494D01*
Y172978D01*
X-15422Y171578D01*
X-14350Y170506D01*
X-12950Y169926D01*
X-11434D01*
X-10034Y170506D01*
X-8962Y171578D01*
X-8382Y172978D01*
Y174494D01*
X-8962Y175894D01*
X-10034Y176966D01*
X-10874Y177314D01*
X-10903Y178005D01*
X-10747Y178636D01*
X-9526Y179142D01*
X-8454Y180214D01*
X-7874Y181614D01*
Y183130D01*
X-8454Y184530D01*
X-9526Y185602D01*
X-10926Y186182D01*
D02*
G37*
G36*
X-91648Y174752D02*
X-93264D01*
X-94758Y174133D01*
X-95901Y172990D01*
X-96520Y171496D01*
Y169880D01*
X-95901Y168386D01*
X-94758Y167243D01*
X-93264Y166624D01*
X-91648D01*
X-90154Y167243D01*
X-89011Y168386D01*
X-88392Y169880D01*
Y171496D01*
X-89011Y172990D01*
X-90154Y174133D01*
X-91648Y174752D01*
D02*
G37*
G36*
X106472Y168656D02*
X104856D01*
X103362Y168037D01*
X102219Y166894D01*
X101600Y165400D01*
Y163784D01*
X102219Y162290D01*
X103362Y161147D01*
X104856Y160528D01*
X106472D01*
X107966Y161147D01*
X109109Y162290D01*
X109728Y163784D01*
Y165400D01*
X109109Y166894D01*
X107966Y168037D01*
X106472Y168656D01*
D02*
G37*
G36*
X-70820Y175260D02*
X-72436D01*
X-73930Y174641D01*
X-75073Y173498D01*
X-75692Y172004D01*
Y170388D01*
X-75073Y168894D01*
X-74386Y168207D01*
X-74070Y167386D01*
X-74386Y166565D01*
X-75073Y165878D01*
X-75692Y164384D01*
Y162768D01*
X-75073Y161274D01*
X-73930Y160131D01*
X-72436Y159512D01*
X-70820D01*
X-69326Y160131D01*
X-68183Y161274D01*
X-67564Y162768D01*
Y164384D01*
X-68183Y165878D01*
X-68870Y166565D01*
X-69186Y167386D01*
X-68870Y168207D01*
X-68183Y168894D01*
X-67564Y170388D01*
Y172004D01*
X-68183Y173498D01*
X-69326Y174641D01*
X-70820Y175260D01*
D02*
G37*
G36*
X-35768Y160020D02*
X-37384D01*
X-38878Y159401D01*
X-40021Y158258D01*
X-40640Y156764D01*
Y155148D01*
X-40021Y153654D01*
X-38878Y152511D01*
X-37384Y151892D01*
X-35768D01*
X-34274Y152511D01*
X-33131Y153654D01*
X-32512Y155148D01*
Y156764D01*
X-33131Y158258D01*
X-34274Y159401D01*
X-35768Y160020D01*
D02*
G37*
G36*
X119606Y158858D02*
X117989D01*
X116495Y158239D01*
X115352Y157096D01*
X114733Y155602D01*
Y153985D01*
X115352Y152492D01*
X116495Y151348D01*
X117989Y150730D01*
X119606D01*
X121099Y151348D01*
X122242Y152492D01*
X122861Y153985D01*
Y155602D01*
X122242Y157096D01*
X121099Y158239D01*
X119606Y158858D01*
D02*
G37*
G36*
X-46944Y154940D02*
X-48560D01*
X-50054Y154321D01*
X-51197Y153178D01*
X-51816Y151684D01*
Y150068D01*
X-51197Y148574D01*
X-50054Y147431D01*
X-48560Y146812D01*
X-46944D01*
X-45450Y147431D01*
X-44307Y148574D01*
X-43688Y150068D01*
Y151684D01*
X-44307Y153178D01*
X-45450Y154321D01*
X-46944Y154940D01*
D02*
G37*
G36*
X104440Y154246D02*
X102824D01*
X101330Y153627D01*
X100187Y152484D01*
X99568Y150990D01*
Y149374D01*
X100187Y147880D01*
X101330Y146737D01*
X102824Y146118D01*
X104440D01*
X105934Y146737D01*
X107077Y147880D01*
X107696Y149374D01*
Y150990D01*
X107077Y152484D01*
X105934Y153627D01*
X104440Y154246D01*
D02*
G37*
G36*
X147620Y89535D02*
X146004D01*
X144510Y88916D01*
X143367Y87773D01*
X142748Y86279D01*
Y84663D01*
X143367Y83169D01*
X144510Y82026D01*
X146004Y81407D01*
X147620D01*
X149114Y82026D01*
X150257Y83169D01*
X150876Y84663D01*
Y86279D01*
X150257Y87773D01*
X149114Y88916D01*
X147620Y89535D01*
D02*
G37*
G36*
Y79070D02*
X146004D01*
X144510Y78451D01*
X143367Y77308D01*
X142748Y75815D01*
Y74198D01*
X143367Y72704D01*
X144510Y71561D01*
X146004Y70942D01*
X147620D01*
X149114Y71561D01*
X150257Y72704D01*
X150876Y74198D01*
Y75815D01*
X150257Y77308D01*
X149114Y78451D01*
X147620Y79070D01*
D02*
G37*
G36*
Y68605D02*
X146004D01*
X144510Y67987D01*
X143367Y66844D01*
X142748Y65350D01*
Y63733D01*
X143367Y62239D01*
X144510Y61096D01*
X146004Y60477D01*
X147620D01*
X149114Y61096D01*
X150257Y62239D01*
X150876Y63733D01*
Y65350D01*
X150257Y66844D01*
X149114Y67987D01*
X147620Y68605D01*
D02*
G37*
G36*
X148128Y58141D02*
X146512D01*
X145018Y57522D01*
X143875Y56379D01*
X143256Y54885D01*
Y53268D01*
X143875Y51775D01*
X145018Y50631D01*
X146512Y50013D01*
X148128D01*
X149622Y50631D01*
X150765Y51775D01*
X151384Y53268D01*
Y54885D01*
X150765Y56379D01*
X149622Y57522D01*
X148128Y58141D01*
D02*
G37*
G36*
Y47676D02*
X146512D01*
X145018Y47057D01*
X143875Y45914D01*
X143256Y44420D01*
Y42803D01*
X143875Y41310D01*
X145018Y40167D01*
X146512Y39548D01*
X148128D01*
X149622Y40167D01*
X150765Y41310D01*
X151384Y42803D01*
Y44420D01*
X150765Y45914D01*
X149622Y47057D01*
X148128Y47676D01*
D02*
G37*
G36*
Y37211D02*
X146512D01*
X145018Y36592D01*
X143875Y35449D01*
X143256Y33955D01*
Y32339D01*
X143875Y30845D01*
X145018Y29702D01*
X146512Y29083D01*
X148128D01*
X149622Y29702D01*
X150765Y30845D01*
X151384Y32339D01*
Y33955D01*
X150765Y35449D01*
X149622Y36592D01*
X148128Y37211D01*
D02*
G37*
G36*
X-108920Y28448D02*
X-110536D01*
X-112030Y27829D01*
X-113173Y26686D01*
X-113792Y25192D01*
Y23576D01*
X-113173Y22082D01*
X-112030Y20939D01*
X-110536Y20320D01*
X-108920D01*
X-107426Y20939D01*
X-106283Y22082D01*
X-105664Y23576D01*
Y25192D01*
X-106283Y26686D01*
X-107426Y27829D01*
X-108920Y28448D01*
D02*
G37*
G36*
X-4457Y28263D02*
X-6074D01*
X-7568Y27644D01*
X-8711Y26500D01*
X-9330Y25007D01*
Y23390D01*
X-8711Y21896D01*
X-7568Y20753D01*
X-6074Y20134D01*
X-4457D01*
X-2964Y20753D01*
X-1820Y21896D01*
X-1201Y23390D01*
Y25007D01*
X-1820Y26500D01*
X-2964Y27644D01*
X-4457Y28263D01*
D02*
G37*
G36*
X22144Y27940D02*
X20528D01*
X19034Y27321D01*
X17891Y26178D01*
X17272Y24684D01*
Y23068D01*
X17891Y21574D01*
X19034Y20431D01*
X20528Y19812D01*
X22144D01*
X23638Y20431D01*
X24781Y21574D01*
X25400Y23068D01*
Y24684D01*
X24781Y26178D01*
X23638Y27321D01*
X22144Y27940D01*
D02*
G37*
G36*
X-76408D02*
X-78024D01*
X-79518Y27321D01*
X-80661Y26178D01*
X-81280Y24684D01*
Y23068D01*
X-80661Y21574D01*
X-79518Y20431D01*
X-78024Y19812D01*
X-76408D01*
X-74914Y20431D01*
X-73771Y21574D01*
X-73152Y23068D01*
Y24684D01*
X-73771Y26178D01*
X-74914Y27321D01*
X-76408Y27940D01*
D02*
G37*
G36*
X150287Y12700D02*
X148671D01*
X147177Y12081D01*
X146034Y10938D01*
X145785Y10337D01*
X144410D01*
X144161Y10938D01*
X143018Y12081D01*
X141524Y12700D01*
X139908D01*
X138414Y12081D01*
X137271Y10938D01*
X137022Y10337D01*
X135647D01*
X135398Y10938D01*
X134255Y12081D01*
X132761Y12700D01*
X131145D01*
X129651Y12081D01*
X128508Y10938D01*
X127889Y9444D01*
Y7828D01*
X128508Y6334D01*
X129651Y5191D01*
X131145Y4572D01*
X132761D01*
X134255Y5191D01*
X135398Y6334D01*
X135647Y6935D01*
X137022D01*
X137271Y6334D01*
X138414Y5191D01*
X139908Y4572D01*
X141524D01*
X143018Y5191D01*
X144161Y6334D01*
X144410Y6935D01*
X145785D01*
X146034Y6334D01*
X147177Y5191D01*
X148671Y4572D01*
X150287D01*
X151781Y5191D01*
X152924Y6334D01*
X153543Y7828D01*
Y9444D01*
X152924Y10938D01*
X151781Y12081D01*
X150287Y12700D01*
D02*
G37*
G36*
X-130383D02*
X-131999D01*
X-133493Y12081D01*
X-134636Y10938D01*
X-134885Y10337D01*
X-136260D01*
X-136509Y10938D01*
X-137652Y12081D01*
X-139146Y12700D01*
X-140762D01*
X-142256Y12081D01*
X-143399Y10938D01*
X-143648Y10337D01*
X-145023D01*
X-145272Y10938D01*
X-146415Y12081D01*
X-147909Y12700D01*
X-149525D01*
X-151019Y12081D01*
X-152162Y10938D01*
X-152781Y9444D01*
Y7828D01*
X-152162Y6334D01*
X-151019Y5191D01*
X-149525Y4572D01*
X-147909D01*
X-146415Y5191D01*
X-145272Y6334D01*
X-145023Y6935D01*
X-143648D01*
X-143399Y6334D01*
X-142256Y5191D01*
X-140762Y4572D01*
X-139146D01*
X-137652Y5191D01*
X-136509Y6334D01*
X-136260Y6935D01*
X-134885D01*
X-134636Y6334D01*
X-133493Y5191D01*
X-131999Y4572D01*
X-130383D01*
X-128889Y5191D01*
X-127746Y6334D01*
X-127127Y7828D01*
Y9444D01*
X-127746Y10938D01*
X-128889Y12081D01*
X-130383Y12700D01*
D02*
G37*
G36*
X134835Y2439D02*
X132373D01*
X131873Y2340D01*
X131362Y2340D01*
X128947Y1860D01*
X128476Y1664D01*
X127976Y1565D01*
X125701Y623D01*
X125277Y339D01*
X124805Y144D01*
X122758Y-1224D01*
X122397Y-1585D01*
X121973Y-1868D01*
X120232Y-3609D01*
X119949Y-4033D01*
X119588Y-4394D01*
X118220Y-6442D01*
X118025Y-6913D01*
X117741Y-7337D01*
X116799Y-9612D01*
X116700Y-10112D01*
X116504Y-10583D01*
X116024Y-12998D01*
Y-13508D01*
X115925Y-14009D01*
Y-16471D01*
X116024Y-16971D01*
Y-17482D01*
X116504Y-19897D01*
X116700Y-20368D01*
X116799Y-20868D01*
X117741Y-23143D01*
X118025Y-23567D01*
X118220Y-24039D01*
X119588Y-26086D01*
X119949Y-26447D01*
X120232Y-26871D01*
X121973Y-28612D01*
X122397Y-28895D01*
X122758Y-29256D01*
X124805Y-30624D01*
X125277Y-30819D01*
X125701Y-31103D01*
X127976Y-32045D01*
X128476Y-32144D01*
X128947Y-32340D01*
X131362Y-32820D01*
X131873D01*
X132373Y-32919D01*
X134835D01*
X135336Y-32820D01*
X135846D01*
X138261Y-32340D01*
X138732Y-32144D01*
X139232Y-32045D01*
X141507Y-31103D01*
X141931Y-30819D01*
X142403Y-30624D01*
X144450Y-29256D01*
X144811Y-28895D01*
X145235Y-28612D01*
X146976Y-26871D01*
X147259Y-26447D01*
X147620Y-26086D01*
X148988Y-24039D01*
X149183Y-23567D01*
X149467Y-23143D01*
X150409Y-20868D01*
X150508Y-20368D01*
X150704Y-19897D01*
X151184Y-17482D01*
Y-16972D01*
X151284Y-16471D01*
Y-14009D01*
X151184Y-13508D01*
X151184Y-12998D01*
X150704Y-10583D01*
X150508Y-10112D01*
X150409Y-9612D01*
X149467Y-7337D01*
X149183Y-6913D01*
X148988Y-6441D01*
X147620Y-4394D01*
X147259Y-4033D01*
X146976Y-3609D01*
X145235Y-1868D01*
X144811Y-1585D01*
X144450Y-1224D01*
X142402Y144D01*
X141931Y339D01*
X141507Y623D01*
X139232Y1565D01*
X138732Y1664D01*
X138261Y1860D01*
X135846Y2340D01*
X135336D01*
X134835Y2439D01*
D02*
G37*
G36*
X-131357D02*
X-133819D01*
X-134319Y2340D01*
X-134830Y2340D01*
X-137245Y1860D01*
X-137716Y1664D01*
X-138216Y1565D01*
X-140491Y623D01*
X-140915Y339D01*
X-141387Y144D01*
X-143434Y-1224D01*
X-143795Y-1585D01*
X-144219Y-1868D01*
X-145960Y-3609D01*
X-146243Y-4033D01*
X-146604Y-4394D01*
X-147972Y-6442D01*
X-148167Y-6913D01*
X-148451Y-7337D01*
X-149393Y-9612D01*
X-149492Y-10112D01*
X-149688Y-10583D01*
X-150168Y-12998D01*
Y-13508D01*
X-150267Y-14009D01*
Y-16471D01*
X-150168Y-16971D01*
Y-17482D01*
X-149688Y-19897D01*
X-149492Y-20368D01*
X-149393Y-20868D01*
X-148451Y-23143D01*
X-148167Y-23567D01*
X-147972Y-24039D01*
X-146604Y-26086D01*
X-146243Y-26447D01*
X-145960Y-26871D01*
X-144219Y-28612D01*
X-143795Y-28895D01*
X-143434Y-29256D01*
X-141387Y-30624D01*
X-140915Y-30819D01*
X-140491Y-31103D01*
X-138216Y-32045D01*
X-137716Y-32144D01*
X-137245Y-32340D01*
X-134830Y-32820D01*
X-134319D01*
X-133819Y-32919D01*
X-131357D01*
X-130857Y-32820D01*
X-130346D01*
X-127931Y-32340D01*
X-127460Y-32144D01*
X-126960Y-32045D01*
X-124685Y-31103D01*
X-124261Y-30819D01*
X-123789Y-30624D01*
X-121742Y-29256D01*
X-121381Y-28895D01*
X-120957Y-28612D01*
X-119216Y-26871D01*
X-118933Y-26447D01*
X-118572Y-26086D01*
X-117204Y-24039D01*
X-117009Y-23567D01*
X-116725Y-23143D01*
X-115783Y-20868D01*
X-115684Y-20368D01*
X-115488Y-19897D01*
X-115008Y-17482D01*
Y-16972D01*
X-114909Y-16471D01*
Y-14009D01*
X-115008Y-13508D01*
X-115008Y-12998D01*
X-115488Y-10583D01*
X-115684Y-10112D01*
X-115783Y-9612D01*
X-116725Y-7337D01*
X-117009Y-6913D01*
X-117204Y-6441D01*
X-118572Y-4394D01*
X-118933Y-4033D01*
X-119216Y-3609D01*
X-120957Y-1868D01*
X-121381Y-1585D01*
X-121742Y-1224D01*
X-123790Y144D01*
X-124261Y339D01*
X-124685Y623D01*
X-126960Y1565D01*
X-127460Y1664D01*
X-127931Y1860D01*
X-130346Y2340D01*
X-130857D01*
X-131357Y2439D01*
D02*
G37*
G36*
X-89362Y299457D02*
X-90978D01*
X-92472Y298839D01*
X-93615Y297696D01*
X-94234Y296202D01*
Y294585D01*
X-93615Y293091D01*
X-92472Y291948D01*
X-90978Y291329D01*
X-89362D01*
X-87868Y291948D01*
X-86725Y293091D01*
X-86106Y294585D01*
Y296202D01*
X-86725Y297696D01*
X-87868Y298839D01*
X-89362Y299457D01*
D02*
G37*
G36*
X-87076Y279908D02*
X-88692D01*
X-90186Y279289D01*
X-91329Y278146D01*
X-91948Y276652D01*
Y275036D01*
X-91329Y273542D01*
X-91166Y273379D01*
X-91692Y272109D01*
X-93728D01*
X-94254Y273379D01*
X-94091Y273542D01*
X-93472Y275036D01*
Y276652D01*
X-94091Y278146D01*
X-95234Y279289D01*
X-96728Y279908D01*
X-98344D01*
X-99838Y279289D01*
X-100981Y278146D01*
X-101443Y277032D01*
X-102773D01*
X-103235Y278146D01*
X-104378Y279289D01*
X-105872Y279908D01*
X-107488D01*
X-108982Y279289D01*
X-110125Y278146D01*
X-110587Y277032D01*
X-111917D01*
X-112379Y278146D01*
X-113522Y279289D01*
X-115016Y279908D01*
X-116632D01*
X-118126Y279289D01*
X-119269Y278146D01*
X-119888Y276652D01*
Y275036D01*
X-119269Y273542D01*
X-119106Y273379D01*
X-119632Y272109D01*
X-121922D01*
X-122448Y273379D01*
X-122285Y273542D01*
X-121666Y275036D01*
Y276652D01*
X-122285Y278146D01*
X-123428Y279289D01*
X-124922Y279908D01*
X-126538D01*
X-128032Y279289D01*
X-129175Y278146D01*
X-129794Y276652D01*
Y275036D01*
X-129175Y273542D01*
X-128032Y272399D01*
X-126538Y271780D01*
X-125991Y270510D01*
X-126525Y269711D01*
X-126546Y269605D01*
X-126559Y269587D01*
X-127976Y268927D01*
X-128732Y269240D01*
X-130348D01*
X-131842Y268621D01*
X-132985Y267478D01*
X-133604Y265984D01*
Y264368D01*
X-132985Y262874D01*
X-131842Y261731D01*
X-130348Y261112D01*
X-128732D01*
X-128705Y261123D01*
X-127495Y260314D01*
Y260132D01*
X-128705Y259323D01*
X-128732Y259334D01*
X-130348D01*
X-131842Y258715D01*
X-132985Y257572D01*
X-133604Y256078D01*
Y254462D01*
X-132985Y252968D01*
X-131842Y251825D01*
X-130348Y251206D01*
X-128732D01*
X-128234Y250604D01*
X-129156Y249936D01*
X-130348D01*
X-131842Y249317D01*
X-132985Y248174D01*
X-133604Y246680D01*
Y245064D01*
X-132985Y243570D01*
X-131842Y242427D01*
X-130728Y241965D01*
Y240635D01*
X-131842Y240173D01*
X-132985Y239030D01*
X-133604Y237536D01*
Y235920D01*
X-132985Y234426D01*
X-131842Y233283D01*
X-130348Y232664D01*
X-128732D01*
X-127238Y233283D01*
X-126095Y234426D01*
X-125476Y235920D01*
Y237536D01*
X-125686Y238044D01*
X-124660Y238886D01*
X-124423Y238727D01*
X-122936Y238431D01*
X-99683D01*
X-99092Y237161D01*
X-99568Y236012D01*
Y234396D01*
X-98949Y232902D01*
X-97806Y231759D01*
X-96312Y231140D01*
X-94696D01*
X-93202Y231759D01*
X-92059Y232902D01*
X-91597Y234016D01*
X-90267D01*
X-89805Y232902D01*
X-88662Y231759D01*
X-87168Y231140D01*
X-85552D01*
X-84058Y231759D01*
X-82915Y232902D01*
X-82296Y234396D01*
Y236012D01*
X-82915Y237506D01*
X-84058Y238649D01*
X-85552Y239268D01*
X-86351D01*
X-87030Y240538D01*
X-86835Y240829D01*
X-86539Y242316D01*
Y268224D01*
X-86835Y269711D01*
X-87369Y270510D01*
X-87248Y271034D01*
X-86906Y271822D01*
X-86865Y271867D01*
X-85582Y272399D01*
X-84439Y273542D01*
X-83820Y275036D01*
Y276652D01*
X-84439Y278146D01*
X-85582Y279289D01*
X-87076Y279908D01*
D02*
G37*
G36*
X-73868Y253492D02*
X-75484D01*
X-76978Y252873D01*
X-78121Y251730D01*
X-78740Y250236D01*
Y248620D01*
X-78121Y247126D01*
X-76978Y245983D01*
X-75484Y245364D01*
X-73868D01*
X-72374Y245983D01*
X-71231Y247126D01*
X-70612Y248620D01*
Y250236D01*
X-71231Y251730D01*
X-72374Y252873D01*
X-73868Y253492D01*
D02*
G37*
G36*
Y241300D02*
X-75484D01*
X-76978Y240681D01*
X-78121Y239538D01*
X-78740Y238044D01*
Y236428D01*
X-78121Y234934D01*
X-76978Y233791D01*
X-75484Y233172D01*
X-73868D01*
X-72374Y233791D01*
X-71231Y234934D01*
X-70612Y236428D01*
Y238044D01*
X-71231Y239538D01*
X-72374Y240681D01*
X-73868Y241300D01*
D02*
G37*
G36*
X-96220Y228092D02*
X-97836D01*
X-99330Y227473D01*
X-100473Y226330D01*
X-101092Y224836D01*
Y223220D01*
X-100473Y221726D01*
X-99330Y220583D01*
X-97836Y219964D01*
X-96220D01*
X-94726Y220583D01*
X-93583Y221726D01*
X-92964Y223220D01*
Y224836D01*
X-93583Y226330D01*
X-94726Y227473D01*
X-96220Y228092D01*
D02*
G37*
G36*
X-106380D02*
X-107996D01*
X-109490Y227473D01*
X-110633Y226330D01*
X-111252Y224836D01*
Y223220D01*
X-110633Y221726D01*
X-109490Y220583D01*
X-107996Y219964D01*
X-106380D01*
X-104886Y220583D01*
X-103743Y221726D01*
X-103124Y223220D01*
Y224836D01*
X-103743Y226330D01*
X-104886Y227473D01*
X-106380Y228092D01*
D02*
G37*
G36*
X-115397Y218694D02*
X-117013D01*
X-118507Y218075D01*
X-119650Y216932D01*
X-119899Y216331D01*
X-121274D01*
X-121523Y216932D01*
X-122666Y218075D01*
X-124160Y218694D01*
X-125776D01*
X-127270Y218075D01*
X-128413Y216932D01*
X-128662Y216331D01*
X-130037D01*
X-130286Y216932D01*
X-131429Y218075D01*
X-132923Y218694D01*
X-134539D01*
X-136033Y218075D01*
X-137176Y216932D01*
X-137795Y215438D01*
Y213822D01*
X-137176Y212328D01*
X-136033Y211185D01*
X-134539Y210566D01*
X-132923D01*
X-131429Y211185D01*
X-130286Y212328D01*
X-130037Y212929D01*
X-128662D01*
X-128413Y212328D01*
X-127270Y211185D01*
X-125776Y210566D01*
X-124160D01*
X-122666Y211185D01*
X-121523Y212328D01*
X-121274Y212929D01*
X-119899D01*
X-119650Y212328D01*
X-118507Y211185D01*
X-117013Y210566D01*
X-115397D01*
X-113903Y211185D01*
X-112760Y212328D01*
X-112141Y213822D01*
Y215438D01*
X-112760Y216932D01*
X-113903Y218075D01*
X-115397Y218694D01*
D02*
G37*
G36*
X-126700Y196596D02*
X-128316D01*
X-129810Y195977D01*
X-130953Y194834D01*
X-131572Y193340D01*
Y191724D01*
X-130953Y190230D01*
X-129810Y189087D01*
X-128316Y188468D01*
X-126700D01*
X-125206Y189087D01*
X-124063Y190230D01*
X-123444Y191724D01*
Y193340D01*
X-124063Y194834D01*
X-125206Y195977D01*
X-126700Y196596D01*
D02*
G37*
G36*
X-151084Y199390D02*
X-152700D01*
X-154194Y198771D01*
X-155337Y197628D01*
X-155956Y196134D01*
Y194518D01*
X-155337Y193024D01*
X-154194Y191881D01*
X-153593Y191632D01*
Y190257D01*
X-154194Y190008D01*
X-155337Y188865D01*
X-155956Y187371D01*
Y185755D01*
X-155337Y184261D01*
X-154194Y183118D01*
X-153593Y182869D01*
Y181494D01*
X-154194Y181245D01*
X-155337Y180102D01*
X-155956Y178608D01*
Y176992D01*
X-155337Y175498D01*
X-154194Y174355D01*
X-152700Y173736D01*
X-151084D01*
X-149590Y174355D01*
X-148447Y175498D01*
X-147828Y176992D01*
Y178608D01*
X-148447Y180102D01*
X-149590Y181245D01*
X-150191Y181494D01*
Y182869D01*
X-149590Y183118D01*
X-148447Y184261D01*
X-147828Y185755D01*
Y187371D01*
X-148447Y188865D01*
X-149590Y190008D01*
X-150191Y190257D01*
Y191632D01*
X-149590Y191881D01*
X-148447Y193024D01*
X-147828Y194518D01*
Y196134D01*
X-148447Y197628D01*
X-149590Y198771D01*
X-151084Y199390D01*
D02*
G37*
G36*
X-118064Y157988D02*
X-119680D01*
X-121174Y157369D01*
X-122317Y156226D01*
X-122936Y154732D01*
Y153116D01*
X-122317Y151622D01*
X-121174Y150479D01*
X-119680Y149860D01*
X-118064D01*
X-116570Y150479D01*
X-115427Y151622D01*
X-114808Y153116D01*
Y154732D01*
X-115427Y156226D01*
X-116570Y157369D01*
X-118064Y157988D01*
D02*
G37*
G36*
X-127716D02*
X-129332D01*
X-130826Y157369D01*
X-131969Y156226D01*
X-132588Y154732D01*
Y153116D01*
X-131969Y151622D01*
X-130826Y150479D01*
X-129332Y149860D01*
X-127716D01*
X-126222Y150479D01*
X-125079Y151622D01*
X-124460Y153116D01*
Y154732D01*
X-125079Y156226D01*
X-126222Y157369D01*
X-127716Y157988D01*
D02*
G37*
G36*
X-127208Y126492D02*
X-128824D01*
X-130318Y125873D01*
X-131461Y124730D01*
X-132080Y123236D01*
Y121620D01*
X-131461Y120126D01*
X-130318Y118983D01*
X-128824Y118364D01*
X-127208D01*
X-125714Y118983D01*
X-124571Y120126D01*
X-123952Y121620D01*
Y123236D01*
X-124571Y124730D01*
X-125714Y125873D01*
X-127208Y126492D01*
D02*
G37*
G36*
X-151084Y129794D02*
X-152700D01*
X-154194Y129175D01*
X-155337Y128032D01*
X-155956Y126538D01*
Y124922D01*
X-155337Y123428D01*
X-154194Y122285D01*
X-153593Y122036D01*
Y120661D01*
X-154194Y120412D01*
X-155337Y119269D01*
X-155956Y117775D01*
Y116159D01*
X-155337Y114665D01*
X-154194Y113522D01*
X-153593Y113273D01*
Y111898D01*
X-154194Y111649D01*
X-155337Y110506D01*
X-155956Y109012D01*
Y107396D01*
X-155337Y105902D01*
X-154194Y104759D01*
X-152700Y104140D01*
X-151084D01*
X-149590Y104759D01*
X-148447Y105902D01*
X-147828Y107396D01*
Y109012D01*
X-148447Y110506D01*
X-149590Y111649D01*
X-150191Y111898D01*
Y113273D01*
X-149590Y113522D01*
X-148447Y114665D01*
X-147828Y116159D01*
Y117775D01*
X-148447Y119269D01*
X-149590Y120412D01*
X-150191Y120661D01*
Y122036D01*
X-149590Y122285D01*
X-148447Y123428D01*
X-147828Y124922D01*
Y126538D01*
X-148447Y128032D01*
X-149590Y129175D01*
X-151084Y129794D01*
D02*
G37*
G36*
Y99695D02*
X-152700D01*
X-154194Y99076D01*
X-155337Y97933D01*
X-155956Y96439D01*
Y94823D01*
X-155337Y93329D01*
X-154194Y92186D01*
X-153593Y91937D01*
Y90562D01*
X-154194Y90313D01*
X-155337Y89170D01*
X-155956Y87676D01*
Y86060D01*
X-155337Y84566D01*
X-154194Y83423D01*
X-153593Y83174D01*
Y81799D01*
X-154194Y81550D01*
X-155337Y80407D01*
X-155956Y78913D01*
Y77297D01*
X-155337Y75803D01*
X-154194Y74660D01*
X-152700Y74041D01*
X-151084D01*
X-149590Y74660D01*
X-148447Y75803D01*
X-147828Y77297D01*
Y78913D01*
X-148447Y80407D01*
X-149590Y81550D01*
X-150191Y81799D01*
Y83174D01*
X-149590Y83423D01*
X-148447Y84566D01*
X-147828Y86060D01*
Y87676D01*
X-148447Y89170D01*
X-149590Y90313D01*
X-150191Y90562D01*
Y91937D01*
X-149590Y92186D01*
X-148447Y93329D01*
X-147828Y94823D01*
Y96439D01*
X-148447Y97933D01*
X-149590Y99076D01*
X-151084Y99695D01*
D02*
G37*
G36*
X27686Y167212D02*
X26100Y166896D01*
X24756Y165998D01*
X23858Y164654D01*
X23542Y163068D01*
X23858Y161482D01*
X24756Y160138D01*
X26100Y159240D01*
X27686Y158924D01*
X28071Y158539D01*
X27860Y157480D01*
X28176Y155894D01*
X29074Y154550D01*
X30418Y153652D01*
X32004Y153336D01*
X33590Y153652D01*
X34934Y154550D01*
X35832Y155894D01*
X36148Y157480D01*
X35832Y159066D01*
X34934Y160410D01*
X33590Y161308D01*
X32004Y161624D01*
X31619Y162009D01*
X31830Y163068D01*
X31514Y164654D01*
X30616Y165998D01*
X29272Y166896D01*
X27686Y167212D01*
D02*
G37*
G36*
X19812Y127080D02*
X18226Y126764D01*
X16882Y125866D01*
X15984Y124522D01*
X15798Y123588D01*
X14450Y123320D01*
X14106Y123834D01*
X12762Y124732D01*
X11176Y125048D01*
X9590Y124732D01*
X8246Y123834D01*
X7348Y122490D01*
X7032Y120904D01*
X7348Y119318D01*
X8246Y117974D01*
X9590Y117076D01*
X11176Y116760D01*
X12762Y117076D01*
X14106Y117974D01*
X15004Y119318D01*
X15190Y120252D01*
X16538Y120520D01*
X16882Y120006D01*
X18226Y119108D01*
X19812Y118792D01*
X21398Y119108D01*
X22742Y120006D01*
X23640Y121350D01*
X23956Y122936D01*
X23640Y124522D01*
X22742Y125866D01*
X21398Y126764D01*
X19812Y127080D01*
D02*
G37*
G36*
X-56694Y119258D02*
X-58280Y118942D01*
X-59624Y118044D01*
X-60522Y116700D01*
X-60838Y115114D01*
X-60522Y113528D01*
X-59624Y112184D01*
X-58280Y111286D01*
X-56694Y110970D01*
X-55108Y111286D01*
X-53764Y112184D01*
X-52866Y113528D01*
X-52550Y115114D01*
X-52866Y116700D01*
X-53764Y118044D01*
X-55108Y118942D01*
X-56694Y119258D01*
D02*
G37*
G36*
X88392Y118444D02*
X86806Y118128D01*
X85462Y117230D01*
X84564Y115886D01*
X84248Y114300D01*
X84564Y112714D01*
X85462Y111370D01*
X86806Y110472D01*
X88392Y110156D01*
X89978Y110472D01*
X91322Y111370D01*
X92220Y112714D01*
X92536Y114300D01*
X92220Y115886D01*
X91322Y117230D01*
X89978Y118128D01*
X88392Y118444D01*
D02*
G37*
G36*
X51816Y117174D02*
X50230Y116858D01*
X48886Y115960D01*
X47988Y114616D01*
X47672Y113030D01*
X47988Y111444D01*
X48886Y110100D01*
X50230Y109202D01*
X51816Y108886D01*
X53402Y109202D01*
X54746Y110100D01*
X55644Y111444D01*
X55960Y113030D01*
X55644Y114616D01*
X54746Y115960D01*
X53402Y116858D01*
X51816Y117174D01*
D02*
G37*
G36*
X100584Y77804D02*
X98998Y77488D01*
X97654Y76590D01*
X96756Y75246D01*
X96440Y73660D01*
X96756Y72074D01*
X97654Y70730D01*
X98998Y69832D01*
X100584Y69516D01*
X102170Y69832D01*
X103514Y70730D01*
X104412Y72074D01*
X104728Y73660D01*
X104412Y75246D01*
X103514Y76590D01*
X102170Y77488D01*
X100584Y77804D01*
D02*
G37*
G36*
X87884D02*
X86298Y77488D01*
X84954Y76590D01*
X84056Y75246D01*
X83740Y73660D01*
X84056Y72074D01*
X84954Y70730D01*
X86298Y69832D01*
X87884Y69516D01*
X89470Y69832D01*
X90814Y70730D01*
X91712Y72074D01*
X92028Y73660D01*
X91712Y75246D01*
X90814Y76590D01*
X89470Y77488D01*
X87884Y77804D01*
D02*
G37*
G36*
X61468D02*
X59882Y77488D01*
X58538Y76590D01*
X57640Y75246D01*
X57324Y73660D01*
X57640Y72074D01*
X58538Y70730D01*
X59882Y69832D01*
X61468Y69516D01*
X63054Y69832D01*
X64398Y70730D01*
X65296Y72074D01*
X65612Y73660D01*
X65296Y75246D01*
X64398Y76590D01*
X63054Y77488D01*
X61468Y77804D01*
D02*
G37*
G36*
X48768D02*
X47182Y77488D01*
X45838Y76590D01*
X44940Y75246D01*
X44624Y73660D01*
X44940Y72074D01*
X45838Y70730D01*
X47182Y69832D01*
X48768Y69516D01*
X50354Y69832D01*
X51698Y70730D01*
X52596Y72074D01*
X52912Y73660D01*
X52596Y75246D01*
X51698Y76590D01*
X50354Y77488D01*
X48768Y77804D01*
D02*
G37*
G36*
X-96012D02*
X-97598Y77488D01*
X-98942Y76590D01*
X-99840Y75246D01*
X-100156Y73660D01*
X-99840Y72074D01*
X-98942Y70730D01*
X-97598Y69832D01*
X-96012Y69516D01*
X-94426Y69832D01*
X-93082Y70730D01*
X-92184Y72074D01*
X-91868Y73660D01*
X-92184Y75246D01*
X-93082Y76590D01*
X-94426Y77488D01*
X-96012Y77804D01*
D02*
G37*
G36*
X60960Y50880D02*
X59374Y50564D01*
X58030Y49666D01*
X57132Y48322D01*
X56816Y46736D01*
X57132Y45150D01*
X58030Y43806D01*
X59374Y42908D01*
X60960Y42592D01*
X62546Y42908D01*
X63890Y43806D01*
X64788Y45150D01*
X65104Y46736D01*
X64788Y48322D01*
X63890Y49666D01*
X62546Y50564D01*
X60960Y50880D01*
D02*
G37*
G36*
X-42672D02*
X-44258Y50564D01*
X-45602Y49666D01*
X-46500Y48322D01*
X-46816Y46736D01*
X-46500Y45150D01*
X-45602Y43806D01*
X-44258Y42908D01*
X-42672Y42592D01*
X-41086Y42908D01*
X-39742Y43806D01*
X-38844Y45150D01*
X-38528Y46736D01*
X-38844Y48322D01*
X-39742Y49666D01*
X-41086Y50564D01*
X-42672Y50880D01*
D02*
G37*
G36*
X-67057Y50879D02*
X-68643Y50563D01*
X-69987Y49665D01*
X-70885Y48321D01*
X-71200Y46735D01*
X-70885Y45149D01*
X-69987Y43805D01*
X-68643Y42907D01*
X-67057Y42592D01*
X-65471Y42907D01*
X-64127Y43805D01*
X-63229Y45149D01*
X-62913Y46735D01*
X-63229Y48321D01*
X-64127Y49665D01*
X-65471Y50563D01*
X-67057Y50879D01*
D02*
G37*
G36*
X12191Y45727D02*
X10605Y45411D01*
X9261Y44513D01*
X8363Y43169D01*
X8048Y41583D01*
X8363Y39997D01*
X9261Y38653D01*
X10605Y37755D01*
X12191Y37439D01*
X13777Y37755D01*
X15121Y38653D01*
X16019Y39997D01*
X16335Y41583D01*
X16019Y43169D01*
X15121Y44513D01*
X13777Y45411D01*
X12191Y45727D01*
D02*
G37*
%LPD*%
D15*
X102616Y83820D02*
X118364Y99568D01*
X25273Y83947D02*
X102489D01*
X118364Y99568D02*
Y126808D01*
X-55372Y83820D02*
X-14224D01*
X25146D01*
X25273Y83947D01*
X-94996Y83820D02*
X-55372D01*
X102489Y83947D02*
X102616Y83820D01*
X118337Y126836D02*
X118364Y126808D01*
D63*
X-77216Y310388D02*
D03*
X-89916D02*
D03*
X-102616D02*
D03*
X-115316D02*
D03*
D64*
X-128016D02*
D03*
D65*
X155956Y186436D02*
D03*
Y203436D02*
D03*
D66*
X-28900Y325120D02*
D03*
X28900D02*
D03*
D67*
X155448Y271526D02*
D03*
X92837Y256540D02*
D03*
X84074D02*
D03*
X75311D02*
D03*
X107975Y363220D02*
D03*
X99212D02*
D03*
X90449D02*
D03*
X-90399D02*
D03*
X-99162D02*
D03*
X-107925D02*
D03*
X26873D02*
D03*
X16307D02*
D03*
X5740D02*
D03*
X-4826D02*
D03*
X-15392D02*
D03*
X-25959D02*
D03*
X155448Y280289D02*
D03*
Y289052D02*
D03*
Y304800D02*
D03*
Y313563D02*
D03*
Y322326D02*
D03*
X146812Y64541D02*
D03*
Y75006D02*
D03*
Y85471D02*
D03*
X147320Y33147D02*
D03*
Y43612D02*
D03*
Y54077D02*
D03*
X-151892Y116967D02*
D03*
Y108204D02*
D03*
Y95631D02*
D03*
Y86868D02*
D03*
Y78105D02*
D03*
X131953Y8636D02*
D03*
X140716D02*
D03*
X149479D02*
D03*
X-148717D02*
D03*
X-139954D02*
D03*
X-131191D02*
D03*
X-151892Y125730D02*
D03*
Y195326D02*
D03*
Y186563D02*
D03*
Y177800D02*
D03*
X-116205Y214630D02*
D03*
X-124968D02*
D03*
X-133731D02*
D03*
X123317Y259080D02*
D03*
X132080D02*
D03*
X140843D02*
D03*
Y252222D02*
D03*
X69850Y214884D02*
D03*
X28956Y284988D02*
D03*
X-1016Y292608D02*
D03*
X35560Y268732D02*
D03*
X-90170Y295394D02*
D03*
X-127977D02*
D03*
X-83566Y201422D02*
D03*
X-56694Y115114D02*
D03*
X-1016Y279908D02*
D03*
X19304Y284988D02*
D03*
X-95504Y235204D02*
D03*
X-115824Y275844D02*
D03*
X-106680D02*
D03*
X-97536D02*
D03*
X-87884D02*
D03*
X-74676Y249428D02*
D03*
Y237236D02*
D03*
X-125730Y275844D02*
D03*
X108712Y-14732D02*
D03*
Y-3048D02*
D03*
X-59944Y257556D02*
D03*
X-28956Y236220D02*
D03*
X12699Y202111D02*
D03*
X-11938Y201857D02*
D03*
X12010Y220907D02*
D03*
X-69596Y77724D02*
D03*
X102616Y83820D02*
D03*
X94488Y89662D02*
D03*
X118337Y126836D02*
D03*
X55372Y88900D02*
D03*
X-33020Y270764D02*
D03*
X75692Y245364D02*
D03*
X-83820Y73152D02*
D03*
X-96012Y73660D02*
D03*
X61468D02*
D03*
X-92456Y170688D02*
D03*
X-71628Y182906D02*
D03*
X-90932Y186436D02*
D03*
X-71654Y191542D02*
D03*
X-71628Y198628D02*
D03*
Y171196D02*
D03*
X-83312Y170688D02*
D03*
X-109728Y24384D02*
D03*
X-115316Y74168D02*
D03*
X82804Y2540D02*
D03*
X118797Y154794D02*
D03*
X-102616Y88392D02*
D03*
X-136906Y56388D02*
D03*
Y64516D02*
D03*
X-128016Y122428D02*
D03*
X91440Y15240D02*
D03*
X-137668Y84836D02*
D03*
X-124460Y50292D02*
D03*
X-12954Y220980D02*
D03*
X74168Y275336D02*
D03*
X85463Y284480D02*
D03*
X-86360Y235204D02*
D03*
X-107188Y224028D02*
D03*
X-129540Y245872D02*
D03*
Y236728D02*
D03*
Y265176D02*
D03*
X21336Y23876D02*
D03*
X-5265Y24199D02*
D03*
X96520Y189992D02*
D03*
X103632Y150182D02*
D03*
X106172Y187960D02*
D03*
X89408Y147320D02*
D03*
X84836Y176823D02*
D03*
X-99060Y195580D02*
D03*
X48768Y36068D02*
D03*
X73152D02*
D03*
X-6095Y47243D02*
D03*
X-143764Y71120D02*
D03*
X51816Y113030D02*
D03*
X-20071Y235971D02*
D03*
X-26924Y212344D02*
D03*
X-99060Y207010D02*
D03*
X-9144Y235712D02*
D03*
X-36576Y155956D02*
D03*
X-47752Y150876D02*
D03*
X-63500Y150368D02*
D03*
X87884Y73660D02*
D03*
X48768D02*
D03*
X-71628Y163576D02*
D03*
X-67161Y136039D02*
D03*
X-38608Y174244D02*
D03*
X88392Y114300D02*
D03*
X-67057Y46735D02*
D03*
X-48809Y33083D02*
D03*
X115824Y232705D02*
D03*
X128016Y232156D02*
D03*
X105664Y164592D02*
D03*
X89408Y182880D02*
D03*
X41656Y179832D02*
D03*
X11176Y120904D02*
D03*
X19812Y122936D02*
D03*
X27686Y163068D02*
D03*
X32004Y157480D02*
D03*
X157480Y145796D02*
D03*
X158242Y106172D02*
D03*
Y125476D02*
D03*
X130048Y188468D02*
D03*
X139700Y192024D02*
D03*
X96505Y227287D02*
D03*
X96592Y215900D02*
D03*
X96419Y203873D02*
D03*
X-87609Y129031D02*
D03*
X-118872Y153924D02*
D03*
X-128524D02*
D03*
X-74455Y142889D02*
D03*
X-145820Y139796D02*
D03*
X-127508Y192532D02*
D03*
X84328Y206756D02*
D03*
Y232156D02*
D03*
Y245364D02*
D03*
X-29464Y154432D02*
D03*
Y174244D02*
D03*
X-19304Y154432D02*
D03*
X42164Y171704D02*
D03*
X-77216Y23876D02*
D03*
X-42672Y46736D02*
D03*
X-84836Y33020D02*
D03*
X-3557Y163067D02*
D03*
X-12192Y173736D02*
D03*
X37084Y210312D02*
D03*
Y220472D02*
D03*
X12772Y182299D02*
D03*
X-11684Y182372D02*
D03*
X33528Y193040D02*
D03*
X38608Y198628D02*
D03*
X-30480Y77724D02*
D03*
X9144D02*
D03*
X12191Y41583D02*
D03*
X60960Y46736D02*
D03*
X100584Y73660D02*
D03*
X113792D02*
D03*
X74168D02*
D03*
X35052D02*
D03*
X-43688Y74168D02*
D03*
X97028Y35560D02*
D03*
X24892Y36068D02*
D03*
X-4572Y74168D02*
D03*
X-26416Y289560D02*
D03*
X-97028Y224028D02*
D03*
X5080Y325120D02*
D03*
X-5832Y325120D02*
D03*
X15240Y331470D02*
D03*
X-20828D02*
D03*
X-94996Y83820D02*
D03*
X-55372D02*
D03*
X132080Y252222D02*
D03*
X123317D02*
D03*
X105410Y267970D02*
D03*
X110490Y238760D02*
D03*
X154940D02*
D03*
X96520Y326390D02*
D03*
X57150Y269240D02*
D03*
X25146Y83820D02*
D03*
X-14224D02*
D03*
X71120Y320040D02*
D03*
Y361950D02*
D03*
X-69850Y320040D02*
D03*
X-69520Y361620D02*
D03*
X-129540Y255270D02*
D03*
X63246Y83820D02*
D03*
X5080Y350520D02*
D03*
X-8128Y350774D02*
D03*
M02*
